/* XPM */
static char *coat_ui_xpm[] = {
/* width height num_colors chars_per_pixel */
"    32    32      256            2",
/* colors */
"`` c #000000",
"`. c #717171",
"`# c #707070",
"`a c #404040",
"`b c #3f3f3f",
"`c c #3e3e3e",
"`d c #3d3d3d",
"`e c #3c3c3c",
"`f c #3b3b3b",
"`g c #d5d5d5",
"`h c #393939",
"`i c #3a3a3a",
"`j c #353535",
"`k c #363636",
"`l c #2e2e2e",
"`m c #373737",
"`n c #343434",
"`o c #282828",
"`p c #252525",
"`q c #383838",
"`r c #323232",
"`s c #303030",
"`t c #989898",
"`u c #b2b2b2",
"`v c #313131",
"`w c #6f6f6f",
"`x c #9c9c9c",
"`y c #858484",
"`z c #2b2b2b",
"`A c #6e6e6e",
"`B c #242424",
"`C c #202020",
"`D c #010100",
"`E c #0a1105",
"`F c #0b1205",
"`G c #020401",
"`H c #000000",
"`I c #000000",
"`J c #000000",
"`K c #000000",
"`L c #000000",
"`M c #000000",
"`N c #000000",
"`O c #000000",
"`P c #000000",
"`Q c #000000",
"`R c #000000",
"`S c #000000",
"`T c #000000",
"`U c #000000",
"`V c #000000",
"`W c #000000",
"`X c #000000",
"`Y c #000000",
"`Z c #000000",
"`0 c #000000",
"`1 c #000000",
"`2 c #000000",
"`3 c #000000",
"`4 c #000000",
"`5 c #000000",
"`6 c #000000",
"`7 c #000000",
"`8 c #000000",
".` c #000000",
".. c #000000",
".# c #000000",
".a c #000000",
".b c #000000",
".c c #000000",
".d c #000000",
".e c #000000",
".f c #000000",
".g c #000000",
".h c #000000",
".i c #000000",
".j c #000000",
".k c #000000",
".l c #000000",
".m c #000000",
".n c #000000",
".o c #000000",
".p c #000000",
".q c #000000",
".r c #000000",
".s c #000000",
".t c #000000",
".u c #000000",
".v c #000000",
".w c #000000",
".x c #000000",
".y c #000000",
".z c #000000",
".A c #000000",
".B c #000000",
".C c #000000",
".D c #000000",
".E c #000000",
".F c #000000",
".G c #000000",
".H c #000000",
".I c #000000",
".J c #000000",
".K c #000000",
".L c #000000",
".M c #000000",
".N c #000000",
".O c #000000",
".P c #000000",
".Q c #000000",
".R c #000000",
".S c #000000",
".T c #000000",
".U c #000000",
".V c #000000",
".W c #000000",
".X c #000000",
".Y c #000000",
".Z c #000000",
".0 c #000000",
".1 c #000000",
".2 c #000000",
".3 c #000000",
".4 c #000000",
".5 c #000000",
".6 c #000000",
".7 c #000000",
".8 c #000000",
"#` c #000000",
"#. c #000000",
"## c #000000",
"#a c #000000",
"#b c #000000",
"#c c #000000",
"#d c #000000",
"#e c #000000",
"#f c #000000",
"#g c #000000",
"#h c #000000",
"#i c #000000",
"#j c #000000",
"#k c #000000",
"#l c #000000",
"#m c #000000",
"#n c #000000",
"#o c #000000",
"#p c #000000",
"#q c #000000",
"#r c #000000",
"#s c #000000",
"#t c #000000",
"#u c #000000",
"#v c #000000",
"#w c #000000",
"#x c #000000",
"#y c #000000",
"#z c #000000",
"#A c #000000",
"#B c #000000",
"#C c #000000",
"#D c #000000",
"#E c #000000",
"#F c #000000",
"#G c #000000",
"#H c #000000",
"#I c #000000",
"#J c #000000",
"#K c #000000",
"#L c #000000",
"#M c #000000",
"#N c #000000",
"#O c #000000",
"#P c #000000",
"#Q c #000000",
"#R c #000000",
"#S c #000000",
"#T c #000000",
"#U c #000000",
"#V c #000000",
"#W c #000000",
"#X c #000000",
"#Y c #000000",
"#Z c #000000",
"#0 c #000000",
"#1 c #000000",
"#2 c #000000",
"#3 c #000000",
"#4 c #000000",
"#5 c #000000",
"#6 c #000000",
"#7 c #000000",
"#8 c #000000",
"a` c #000000",
"a. c #000000",
"a# c #000000",
"aa c #000000",
"ab c #000000",
"ac c #000000",
"ad c #000000",
"ae c #000000",
"af c #000000",
"ag c #000000",
"ah c #000000",
"ai c #000000",
"aj c #000000",
"ak c #000000",
"al c #000000",
"am c #000000",
"an c #000000",
"ao c #000000",
"ap c #000000",
"aq c #000000",
"ar c #000000",
"as c #000000",
"at c #000000",
"au c #000000",
"av c #000000",
"aw c #000000",
"ax c #000000",
"ay c #000000",
"az c #000000",
"aA c #000000",
"aB c #000000",
"aC c #000000",
"aD c #000000",
"aE c #000000",
"aF c #000000",
"aG c #000000",
"aH c #000000",
"aI c #000000",
"aJ c #000000",
"aK c #000000",
"aL c #000000",
"aM c #000000",
"aN c #000000",
"aO c #000000",
"aP c #000000",
"aQ c #000000",
"aR c #000000",
"aS c #000000",
"aT c #000000",
"aU c #000000",
"aV c #000000",
"aW c #000000",
"aX c #000000",
"aY c #000000",
"aZ c #000000",
"a0 c #000000",
"a1 c #000000",
"a2 c #000000",
"a3 c #000000",
"a4 c #000000",
"a5 c #000000",
"a6 c #000000",
"a7 c #000000",
"a8 c #000000",
/* pixels */
"````````````````````````````````````````````````````````````````",
"```.`.`.`.`.`.`.`.`.`.`.`.`.`.`.`.`.`.`.`.`.`.`.`.`.`.`.`.`.`.``",
"```#`a`a`a`a`a`a`a`a`a`a`a`a`a`a`a`a`a`a`a`a`a`a`a`a`a`a`a`a`a``",
"```.`a`a`a`a`a`a`a`a`a`a`a`a`a`a`a`a`a`a`a`a`a`a`a`a`a`a`a`a`a``",
"```.`a`a`a`a`a`a`a`a`a`a`a`a`a`a`a`a`a`a`a`a`a`a`a`a`a`a`a`a`a``",
"```.`a`a`a`a`a`a`a`a`a`a`a`a`a`a`a`a`a`a`a`a`a`a`a`a`a`a`a`a`a``",
"```.`a`a`a`a`b`b`c`c`d`e`f`f`f`f`f`f`f`f`f`f`f`f`f`e`c`b`a`a`a``",
"```.`a`a`a`b`d`g`h`i`g`g`g`g`g`g`g`g`g`g`g`g`g`g`g`j`f`c`a`a`a``",
"```.`a`a`a`b`g`g`j`k`g`g`g`g`g`g`g`g`g`g`g`g`g`g`g`l`m`d`a`a`a``",
"```.`a`a`a`c`h`j`n`j`n`l`o`p`p`p`p`p`p`p`p`p`p`p`o`l`m`d`a`a`a``",
"```.`a`a`a`b`e`h`q`h`h`j`r`s`s`s`s`s`s`s`s`s`s`s`r`j`f`c`a`a`a``",
"```.`a`a`a`b`d`e`f`e`f`h`m`j`j`j`j`j`j`j`j`j`j`j`m`h`e`b`a`a`a``",
"```.`a`a`a`b`d`g`h`i`g`g`g`g`g`g`g`g`g`g`g`g`g`g`g`j`f`c`a`a`a``",
"```.`a`a`a`b`g`g`j`k`g`g`g`g`g`g`g`g`g`g`g`g`g`g`g`l`m`d`a`a`a``",
"```.`a`a`a`c`h`j`n`j`n`l`o`p`p`p`p`p`p`p`p`p`p`p`o`l`m`d`a`a`a``",
"```.`a`a`a`b`e`h`q`h`h`j`r`s`s`s`s`s`s`s`s`s`s`s`r`j`f`c`a`a`a``",
"```.`a`a`a`b`e`i`i`f`f`h`m`j`j`j`j`j`j`j`j`j`j`j`m`h`e`b`a`a`a``",
"```#`a`a`a`c`g`t`m`h`u`u`u`u`u`u`u`u`u`u`u`u`u`u`u`j`f`c`a`a`a``",
"```#`a`a`a`d`t`t`v`n`t`t`t`t`t`t`t`t`t`t`t`t`t`t`t`l`m`d`a`a`a``",
"```#`a`a`a`d`m`v`v`n`n`l`o`p`p`p`p`p`p`p`p`p`p`p`o`l`m`d`a`a`a``",
"```#`a`a`a`c`f`m`m`h`h`j`r`s`s`s`s`s`s`s`s`s`s`s`r`j`f`c`a`a`a``",
"```#`a`a`a`b`d`i`h`q`q`m`k`j`j`j`j`j`j`j`j`j`j`j`k`m`h`e`c`b`a``",
"```w`a`a`a`c`x`x`x`x`x`x`x`x`x`x`x`x`x`x`x`x`x`x`x`x`x`j`f`c`a``",
"```w`a`a`a`d`x`y`y`y`y`y`y`y`y`y`y`y`y`y`y`y`y`y`y`y`y`z`j`e`a``",
"```A`a`a`a`f`x`y`y`y`y`y`y`y`y`y`y`y`y`y`y`y`y`y`y`y`y`B`r`f`a``",
"```A`a`a`a`f`x`y`y`y`y`y`y`y`y`y`y`y`y`y`y`y`y`y`y`y`y`B`r`f`a``",
"```A`a`a`a`e`j`z`B`C`C`C`C`C`C`C`C`C`C`C`C`C`C`C`C`C`B`z`j`e`a``",
"```A`a`a`a`c`f`j`r`s`s`s`s`s`s`s`s`s`s`s`s`s`s`s`s`s`r`j`f`c`a``",
"```A`a`a`a`b`c`e`f`f`f`f`f`f`f`f`f`f`f`f`f`f`f`f`f`f`f`e`c`b`a``",
"```A`a`a`a`a`a`a`a`a`a`a`a`a`a`a`a`a`a`a`a`a`a`a`a`a`a`a`a`a`a``",
"```w`a`a`a`a`a`a`a`a`a`a`a`a`a`a`a`a`a`a`a`a`a`a`a`a`a`a`a`a`a``",
"`````````````````````````````````````````````D`E`F`G````````````"
};
