/* XPM */
static char *coat_load_xpm[] = {
/* width height num_colors chars_per_pixel */
"    32    32      256            2",
/* colors */
"`` c #000000",
"`. c #717171",
"`# c #707070",
"`a c #404040",
"`b c #3f3f3f",
"`c c #3e3e3e",
"`d c #3d3d3d",
"`e c #6c6c6c",
"`f c #3b3b3b",
"`g c #363636",
"`h c #3a3a3a",
"`i c #303030",
"`j c #b1b1b1",
"`k c #2c2c2c",
"`l c #343434",
"`m c #393939",
"`n c #282828",
"`o c #323232",
"`p c #383838",
"`q c #678856",
"`r c #97a391",
"`s c #272727",
"`t c #313131",
"`u c #92a08a",
"`v c #256602",
"`w c #2f6b0e",
"`x c #aeafad",
"`y c #2d6d0c",
"`z c #246801",
"`A c #4f7e37",
"`B c #4a7e30",
"`C c #256c01",
"`D c #266c02",
"`E c #819975",
"`F c #7c986e",
"`G c #277002",
"`H c #267001",
"`I c #2a7206",
"`J c #a7aca5",
"`K c #a1aa9d",
"`L c #297604",
"`M c #277501",
"`N c #3e7f1f",
"`O c #3b8118",
"`P c #297a01",
"`Q c #6b9556",
"`R c #619449",
"`S c #2a8002",
"`T c #2b8003",
"`U c #99a891",
"`V c #aeb0ad",
"`W c #478f27",
"`X c #418d1e",
"`Y c #3e8c1b",
"`Z c #2b8602",
"`0 c #34890e",
"`1 c #63984b",
"`2 c #a2ad9d",
"`3 c #2c8b02",
"`4 c #378e11",
"`5 c #2e9102",
"`6 c #399411",
"`7 c #6f6f6f",
"`8 c #a2ae9d",
".` c #2f9702",
".. c #3a9911",
".# c #252525",
".a c #212121",
".b c #1f1f1f",
".c c #212d1c",
".d c #309d02",
".e c #2f9205",
".f c #6e6e6e",
".g c #283523",
".h c #31a203",
".i c #309706",
".j c #313e2c",
".k c #32a703",
".l c #329d07",
".m c #374532",
".n c #33ac03",
".o c #33a208",
".p c #3c4a36",
".q c #34af03",
".r c #35a508",
".s c #3f4a3a",
".t c #35ae05",
".u c #379d0e",
".v c #010100",
".w c #0a1105",
".x c #0b1205",
".y c #020401",
".z c #000000",
".A c #000000",
".B c #000000",
".C c #000000",
".D c #000000",
".E c #000000",
".F c #000000",
".G c #000000",
".H c #000000",
".I c #000000",
".J c #000000",
".K c #000000",
".L c #000000",
".M c #000000",
".N c #000000",
".O c #000000",
".P c #000000",
".Q c #000000",
".R c #000000",
".S c #000000",
".T c #000000",
".U c #000000",
".V c #000000",
".W c #000000",
".X c #000000",
".Y c #000000",
".Z c #000000",
".0 c #000000",
".1 c #000000",
".2 c #000000",
".3 c #000000",
".4 c #000000",
".5 c #000000",
".6 c #000000",
".7 c #000000",
".8 c #000000",
"#` c #000000",
"#. c #000000",
"## c #000000",
"#a c #000000",
"#b c #000000",
"#c c #000000",
"#d c #000000",
"#e c #000000",
"#f c #000000",
"#g c #000000",
"#h c #000000",
"#i c #000000",
"#j c #000000",
"#k c #000000",
"#l c #000000",
"#m c #000000",
"#n c #000000",
"#o c #000000",
"#p c #000000",
"#q c #000000",
"#r c #000000",
"#s c #000000",
"#t c #000000",
"#u c #000000",
"#v c #000000",
"#w c #000000",
"#x c #000000",
"#y c #000000",
"#z c #000000",
"#A c #000000",
"#B c #000000",
"#C c #000000",
"#D c #000000",
"#E c #000000",
"#F c #000000",
"#G c #000000",
"#H c #000000",
"#I c #000000",
"#J c #000000",
"#K c #000000",
"#L c #000000",
"#M c #000000",
"#N c #000000",
"#O c #000000",
"#P c #000000",
"#Q c #000000",
"#R c #000000",
"#S c #000000",
"#T c #000000",
"#U c #000000",
"#V c #000000",
"#W c #000000",
"#X c #000000",
"#Y c #000000",
"#Z c #000000",
"#0 c #000000",
"#1 c #000000",
"#2 c #000000",
"#3 c #000000",
"#4 c #000000",
"#5 c #000000",
"#6 c #000000",
"#7 c #000000",
"#8 c #000000",
"a` c #000000",
"a. c #000000",
"a# c #000000",
"aa c #000000",
"ab c #000000",
"ac c #000000",
"ad c #000000",
"ae c #000000",
"af c #000000",
"ag c #000000",
"ah c #000000",
"ai c #000000",
"aj c #000000",
"ak c #000000",
"al c #000000",
"am c #000000",
"an c #000000",
"ao c #000000",
"ap c #000000",
"aq c #000000",
"ar c #000000",
"as c #000000",
"at c #000000",
"au c #000000",
"av c #000000",
"aw c #000000",
"ax c #000000",
"ay c #000000",
"az c #000000",
"aA c #000000",
"aB c #000000",
"aC c #000000",
"aD c #000000",
"aE c #000000",
"aF c #000000",
"aG c #000000",
"aH c #000000",
"aI c #000000",
"aJ c #000000",
"aK c #000000",
"aL c #000000",
"aM c #000000",
"aN c #000000",
"aO c #000000",
"aP c #000000",
"aQ c #000000",
"aR c #000000",
"aS c #000000",
"aT c #000000",
"aU c #000000",
"aV c #000000",
"aW c #000000",
"aX c #000000",
"aY c #000000",
"aZ c #000000",
"a0 c #000000",
"a1 c #000000",
"a2 c #000000",
"a3 c #000000",
"a4 c #000000",
"a5 c #000000",
"a6 c #000000",
"a7 c #000000",
"a8 c #000000",
/* pixels */
"````````````````````````````````````````````````````````````````",
"```.`.`.`.`.`.`.`.`.`.`.`.`.`.`.`.`.`.`.`.`.`.`.`.`.`.`.`.`.`.``",
"```#`a`a`a`a`a`a`a`a`a`a`a`a`a`a`a`a`a`a`a`a`a`a`a`a`a`a`a`a`a``",
"```.`a`a`a`a`a`a`a`a`a`a`a`a`a`a`a`a`a`a`a`a`a`a`a`a`a`a`a`a`a``",
"```.`a`a`a`a`a`a`a`a`a`a`a`a`a`a`a`a`a`a`a`a`a`a`a`a`a`a`a`a`a``",
"```.`a`a`b`b`c`c`c`d`d`d`d`d`d`d`d`d`d`d`d`d`d`d`d`d`c`c`c`b`b``",
"```.`a`b`c`e`e`e`e`e`e`e`e`e`e`e`e`e`e`e`e`e`e`e`e`e`e`e`f`d`c``",
"```.`a`b`d`e`e`e`e`e`e`e`e`e`e`e`e`e`e`e`e`e`e`e`e`e`e`e`g`h`d``",
"```.`a`c`f`e`e`e`e`e`e`e`e`e`e`e`e`e`e`e`e`e`e`e`e`e`e`e`i`g`f``",
"```.`a`c`h`j`j`j`j`j`j`j`j`j`j`j`j`j`j`j`j`j`j`j`j`j`j`j`k`l`h``",
"```.`a`c`m`j`j`j`j`j`j`j`j`j`j`j`j`j`j`j`j`j`j`j`j`j`j`j`n`o`m``",
"```.`a`d`p`j`j`j`j`j`j`j`j`j`j`j`j`j`j`j`q`r`j`j`j`j`j`j`s`t`p``",
"```.`a`d`p`j`j`j`j`j`j`j`j`j`j`j`j`j`j`u`v`w`j`j`j`j`j`j`s`t`p``",
"```.`a`d`p`j`j`j`j`j`j`j`j`j`j`j`j`j`x`y`z`z`A`j`j`j`j`j`s`t`p``",
"```.`a`d`p`j`j`j`j`j`j`j`j`j`j`j`j`j`B`C`C`C`D`E`j`j`j`j`s`t`p``",
"```.`a`d`p`j`j`j`j`j`j`j`j`j`j`j`j`F`G`H`H`H`H`I`J`j`j`j`s`t`p``",
"```.`a`d`p`j`j`j`j`j`j`j`j`j`j`j`K`L`M`M`M`M`M`M`N`j`j`j`s`t`p``",
"```#`a`d`p`j`j`j`j`j`j`j`j`j`j`j`O`P`P`P`P`P`P`P`P`Q`j`j`s`t`p``",
"```#`a`d`p`j`j`j`j`j`j`j`j`j`j`R`S`S`S`S`S`S`S`S`S`T`U`j`s`t`p``",
"```#`a`d`p`j`j`j`j`j`j`j`j`j`V`W`X`Y`Z`Z`Z`Z`Z`0`X`X`1`j`s`t`p``",
"```#`a`d`p`j`j`j`j`j`j`j`j`j`j`j`j`2`3`3`3`3`3`4`j`j`j`j`s`t`p``",
"```#`a`d`p`j`j`j`j`j`j`j`j`j`j`j`j`2`5`5`5`5`5`6`j`j`j`j`s`t`p``",
"```7`a`c`m`j`j`j`j`j`j`j`j`j`j`j`j`8.`.`.`.`.`..`j`j`j`j`n`o`m``",
"```7`a`c`h`l`k.#.a.b.b.b.b.b.b.b.b.c.d.d.d.d.d.e.b.b.a.#`k`l`h``",
"``.f`a`c`f`g`i`k`n`s`s`s`s`s`s`s`s.g.h.h.h.h.h.i`s`s`n`k`i`g`f``",
"``.f`a`b`d`h`g`l`o`t`t`t`t`t`t`t`t.j.k.k.k.k.k.l`t`t`o`l`g`h`d``",
"``.f`a`b`c`d`f`h`m`p`p`p`p`p`p`p`p.m.n.n.n.n.n.o`p`p`m`h`f`d`c``",
"``.f`a`a`b`b`c`c`c`d`d`d`d`d`d`d`d.p.q.q.q.q.q.r`d`d`c`c`c`b`b``",
"``.f`a`a`a`a`a`a`a`a`a`a`a`a`a`a`a.s.t.t.t.t.t.u`a`a`a`a`a`a`a``",
"``.f`a`a`a`a`a`a`a`a`a`a`a`a`a`a`a`a`a`a`a`a`a`a`a`a`a`a`a`a`a``",
"```7`a`a`a`a`a`a`a`a`a`a`a`a`a`a`a`a`a`a`a`a`a`a`a`a`a`a`a`a`a``",
"````````````````````````````````````````````.v.w.x.y````````````"
};
