/* XPM */
static char * coat_alpha_xpm[] = {
"32 32 152 2",
"  	c None",
". 	c #272727",
"+ 	c #353535",
"@ 	c #323232",
"# 	c #333333",
"$ 	c #383838",
"% 	c #717171",
"& 	c #727272",
"* 	c #737373",
"= 	c #414141",
"- 	c #424242",
"; 	c #434343",
"> 	c #444444",
", 	c #454545",
"' 	c #464646",
") 	c #474747",
"! 	c #484848",
"~ 	c #494949",
"{ 	c #4B4B4B",
"] 	c #4C4C4C",
"^ 	c #4A4A4A",
"/ 	c #4D4D4D",
"( 	c #4F4F4F",
"_ 	c #515151",
": 	c #525252",
"< 	c #535353",
"[ 	c #565656",
"} 	c #595959",
"| 	c #5A5A5A",
"1 	c #5C5C5C",
"2 	c #5B5B5B",
"3 	c #575757",
"4 	c #545454",
"5 	c #606060",
"6 	c #656565",
"7 	c #676767",
"8 	c #696969",
"9 	c #666666",
"0 	c #616161",
"a 	c #5D5D5D",
"b 	c #585858",
"c 	c #5E5E5E",
"d 	c #6C6C6C",
"e 	c #767676",
"f 	c #797979",
"g 	c #777777",
"h 	c #6D6D6D",
"i 	c #686868",
"j 	c #7C7C7C",
"k 	c #848484",
"l 	c #8A8A8A",
"m 	c #8D8D8D",
"n 	c #8B8B8B",
"o 	c #868686",
"p 	c #7E7E7E",
"q 	c #757575",
"r 	c #6B6B6B",
"s 	c #626262",
"t 	c #747474",
"u 	c #808080",
"v 	c #8C8C8C",
"w 	c #979797",
"x 	c #9F9F9F",
"y 	c #A3A3A3",
"z 	c #A0A0A0",
"A 	c #999999",
"B 	c #8F8F8F",
"C 	c #838383",
"D 	c #505050",
"E 	c #818181",
"F 	c #909090",
"G 	c #9E9E9E",
"H 	c #ACACAC",
"I 	c #B6B6B6",
"J 	c #BBBBBB",
"K 	c #BDBDBD",
"L 	c #B7B7B7",
"M 	c #AFAFAF",
"N 	c #A2A2A2",
"O 	c #949494",
"P 	c #4E4E4E",
"Q 	c #555555",
"R 	c #B0B0B0",
"S 	c #C0C0C0",
"T 	c #CBCBCB",
"U 	c #D2D2D2",
"V 	c #D3D3D3",
"W 	c #CCCCCC",
"X 	c #C2C2C2",
"Y 	c #B3B3B3",
"Z 	c #7F7F7F",
"` 	c #6F6F6F",
" .	c #636363",
"..	c #DFDFDF",
"+.	c #E7E7E7",
"@.	c #E8E8E8",
"#.	c #E2E2E2",
"$.	c #D5D5D5",
"%.	c #C4C4C4",
"&.	c #B1B1B1",
"*.	c #9B9B9B",
"=.	c #888888",
"-.	c #EEEEEE",
";.	c #F6F6F6",
">.	c #F7F7F7",
",.	c #F0F0F0",
"'.	c #E3E3E3",
").	c #D0D0D0",
"!.	c #8E8E8E",
"~.	c #7A7A7A",
"{.	c #6A6A6A",
"].	c #BCBCBC",
"^.	c #FFFFFF",
"/.	c #F9F9F9",
"(.	c #EBEBEB",
"_.	c #D7D7D7",
":.	c #C1C1C1",
"<.	c #A8A8A8",
"[.	c #929292",
"}.	c #7D7D7D",
"|.	c #343434",
"1.	c #A4A4A4",
"2.	c #FAFAFA",
"3.	c #A9A9A9",
"4.	c #B8B8B8",
"5.	c #CDCDCD",
"6.	c #F3F3F3",
"7.	c #E5E5E5",
"8.	c #A5A5A5",
"9.	c #7B7B7B",
"0.	c #858585",
"a.	c #989898",
"b.	c #C3C3C3",
"c.	c #D6D6D6",
"d.	c #ECECEC",
"e.	c #E6E6E6",
"f.	c #D8D8D8",
"g.	c #C7C7C7",
"h.	c #9D9D9D",
"i.	c #A1A1A1",
"j.	c #B4B4B4",
"k.	c #CFCFCF",
"l.	c #939393",
"m.	c #707070",
"n.	c #646464",
"o.	c #A6A6A6",
"p.	c #878787",
"q.	c #787878",
"r.	c #A7A7A7",
"s.	c #6E6E6E",
"t.	c #919191",
"u.	c #828282",
". + @ @ @ @ @ @ @ # # # # # # # # # # # # # # @ @ @ @ @ @ @ + . ",
"$ % % % % % % & & & & & * & & * & * & * & & & & % % % % % % % $ ",
"# % = = = = = - - - ; ; > > > , > , > > ; - - - - = = = = = = # ",
"@ % = = = - - - ; > , ' ' ) ) ) ! ) ) ' ' , > ; ; - - = = = = @ ",
"@ % = = = - - ; > , ' ! ~ { ] ] ] ] { ~ ! ' ' > > - - - = = = @ ",
"@ % = - - ; > , ' ~ ^ / ( _ : < < : _ ( / { ! ' ' > ; - - = = @ ",
"@ % = - - > , ) ~ ] ( < [ } | 1 1 2 } 3 4 _ ] ~ ) , > - - - = @ ",
"@ % - - ; , ) ~ / _ [ 2 5 6 7 8 8 7 9 0 a b : / ^ ! , > - - - @ ",
"@ & - ; > ' ~ / _ 3 c 6 d & e f f g * h 9 5 } < / ^ ' , ; - - @ ",
"# & - > , ! ] _ b 5 i & j k l m m n o p q r s } : ] ~ ' > - - # ",
"# & - , ' ^ ( 3 c 8 t u v w x y y z A B C e r 5 3 D { ) , ; - # ",
"# & ; ' ! ] < 2 6 * E F G H I J K L M N O C q i a 4 P ~ ' > - # ",
"# & > ' ~ P Q 5 r j v G R S T U V W X Y y F Z `  .b D ^ ' > - # ",
"# & > ) { _ } 6 & k w H S U ..+.@.#.$.%.&.*.=.e 7 2 : { ) , ; # ",
"# & > ) { : | 7 e l G I T ..-.;.>.,.'.).J y !.~.{.a 4 ] ! , ; # ",
"# * , ) { < 1 8 f m N ].U +.;.^.^./.(._.:.<.[.}.d c Q / ! , ; |.",
"# & > ) ] : 1 8 f m 1.].V @.>.^.^.2.(._.:.3.[.}.d c Q / ! , ; |.",
"# & , ) { : 2 7 g n z 4.5.#.,./.2.6.7.U K 8.B 9.r c < / ! , ; # ",
"# * > ) { _ } 6 * 0.a.M b.c.'.(.d.e.f.g.Y h.l e i 1 : ] ! , ; # ",
"# * > ' ~ ( 3 0 h }.B i.j.%.k._.f.U g.L 8.l.u m.n.b _ { ) > ; # ",
"# & ; ' ! / < 1 7 t C O 1.&.J :.X ].Y o.w p.q.{.c Q P ~ ' > ; # ",
"# & ; , ' { D 3 5 {.g k F *.y r.<.8.h.l.o f s.s } _ ] ) , ; - # ",
"# & - > ' ! ] : } s {.e p =.!.t.[.B l u.q.d  .2 4 / ~ ' , - - # ",
"# & - ; > ' ~ P < } 5 i ` q ~.j p 9.g % {.s 2 < P ^ ) , ; - - # ",
"@ & - - ; ' ) ^ P < b a  .7 {.d h r i n.c } < ( ^ ) ' > ; - - @ ",
"@ % = - - > , ) ~ / _ 4 3 2 a c c a 2 } Q _ P { ! , > ; - - = @ ",
"@ % = - - ; > ' ) ~ { P D : 4 4 4 < : _ P ] ~ ) ' , ; - - = = @ ",
"@ % = = - - - > > ' ) ~ ^ { ] ] / / ] { ~ ) ' > > ; - - - = = @ ",
"@ % = = = - - - - > , ' ' ) ! ! ! ! ! ) ' , > - ; - - = = = = @ ",
"# % = = = = - - - - ; > > , , , , , , , > ; - - - - = = = = = # ",
"$ % = = = = = - - - - - ; ; ; ; ; ; ; ; - - - - - = = = = = = $ ",
". + @ @ @ @ @ @ # # # # # # # # |.# # # # # # # @ @ @ @ @ @ + . "};
