/* XPM */
static char * coat_uv_xpm[] = {
"32 32 535 2",
"  	c None",
". 	c #000000",
"+ 	c #737373",
"@ 	c #434343",
"# 	c #494949",
"$ 	c #4B4B4B",
"% 	c #4B4C4C",
"& 	c #4A4B4B",
"* 	c #454545",
"= 	c #424142",
"- 	c #464646",
"; 	c #4B4A4B",
"> 	c #484848",
", 	c #404140",
"' 	c #484949",
") 	c #4E4E4E",
"! 	c #4D4D4D",
"~ 	c #4A4A4A",
"{ 	c #4C4C4C",
"] 	c #4D4D4E",
"^ 	c #383838",
"/ 	c #373738",
"( 	c #363535",
"_ 	c #353435",
": 	c #3E3D3E",
"< 	c #3F403F",
"[ 	c #363637",
"} 	c #363536",
"| 	c #424242",
"1 	c #454243",
"2 	c #3C3D3D",
"3 	c #2B2C2D",
"4 	c #2F2D2D",
"5 	c #434242",
"6 	c #272729",
"7 	c #606160",
"8 	c #605D5A",
"9 	c #716E70",
"0 	c #90938F",
"a 	c #979E96",
"b 	c #717172",
"c 	c #646C67",
"d 	c #828481",
"e 	c #989699",
"f 	c #6E7473",
"g 	c #5C5C5C",
"h 	c #777678",
"i 	c #76797A",
"j 	c #555355",
"k 	c #323132",
"l 	c #3D3D3D",
"m 	c #40403E",
"n 	c #5E5C5D",
"o 	c #71726D",
"p 	c #7A7C78",
"q 	c #B1B0B0",
"r 	c #C2B8B5",
"s 	c #A9A5A6",
"t 	c #9C9C9A",
"u 	c #9B9792",
"v 	c #A9A8AB",
"w 	c #B8BFB7",
"x 	c #ABB1A7",
"y 	c #9A999C",
"z 	c #9CA8A0",
"A 	c #BCBFBD",
"B 	c #BCBABD",
"C 	c #8A9693",
"D 	c #616465",
"E 	c #777677",
"F 	c #5B5B5B",
"G 	c #404040",
"H 	c #3F3E3F",
"I 	c #616164",
"J 	c #C0C3BD",
"K 	c #C5CDC1",
"L 	c #BEBEBF",
"M 	c #9D9A9C",
"N 	c #99988E",
"O 	c #9E9F9A",
"P 	c #A09FA1",
"Q 	c #A49C9B",
"R 	c #8F8D8E",
"S 	c #9E9C9B",
"T 	c #B1A9AB",
"U 	c #B7B9BB",
"V 	c #A1A39A",
"W 	c #88887F",
"X 	c #6D6C6F",
"Y 	c #A0A59F",
"Z 	c #C7CEC0",
"` 	c #EAEAEC",
" .	c #787879",
"..	c #3A3A3A",
"+.	c #3F3F3F",
"@.	c #7C7C7B",
"#.	c #87918B",
"$.	c #6D7973",
"%.	c #838082",
"&.	c #B7B6B6",
"*.	c #A3B0A3",
"=.	c #A8ADA8",
"-.	c #B4B1B5",
";.	c #ABA7A4",
">.	c #BEBFBA",
",.	c #969697",
"'.	c #847C74",
").	c #626061",
"!.	c #999C9B",
"~.	c #C0BAB6",
"{.	c #EBE7EA",
"].	c #BCBDC0",
"^.	c #7E7C75",
"/.	c #6C675F",
"(.	c #7D7D7E",
"_.	c #767777",
":.	c #393939",
"<.	c #343534",
"[.	c #878487",
"}.	c #F3F3FC",
"|.	c #EFF0F0",
"1.	c #9A9A9B",
"2.	c #585B58",
"3.	c #686F69",
"4.	c #7C7C7D",
"5.	c #B8B6B7",
"6.	c #B1BCB3",
"7.	c #9B9E9C",
"8.	c #8E8D8E",
"9.	c #9F9F99",
"0.	c #B7B7B2",
"a.	c #CDCCD3",
"b.	c #969597",
"c.	c #928D84",
"d.	c #5D5857",
"e.	c #908E91",
"f.	c #B2B2AF",
"g.	c #9C979D",
"h.	c #626162",
"i.	c #393A38",
"j.	c #49494A",
"k.	c #484948",
"l.	c #5A535A",
"m.	c #453540",
"n.	c #8C8885",
"o.	c #E1D5D6",
"p.	c #F2FFFF",
"q.	c #FFFFFF",
"r.	c #D5CFD2",
"s.	c #474947",
"t.	c #384A3F",
"u.	c #424248",
"v.	c #C4C1C4",
"w.	c #EDEDEF",
"x.	c #B9B4B8",
"y.	c #525052",
"z.	c #545549",
"A.	c #7B847D",
"B.	c #BCBDBC",
"C.	c #63687C",
"D.	c #97969C",
"E.	c #5B5B58",
"F.	c #383739",
"G.	c #474647",
"H.	c #595C59",
"I.	c #1F2222",
"J.	c #A69B9B",
"K.	c #EBD4D5",
"L.	c #7A8489",
"M.	c #5B5642",
"N.	c #6D654E",
"O.	c #939398",
"P.	c #E3DDE3",
"Q.	c #E5F6D5",
"R.	c #BBBDB9",
"S.	c #595058",
"T.	c #2F4436",
"U.	c #355C3E",
"V.	c #837679",
"W.	c #D9E6EB",
"X.	c #F6FFFF",
"Y.	c #898687",
"Z.	c #030203",
"`.	c #7F7F7D",
" +	c #4F4E4E",
".+	c #474747",
"++	c #414141",
"@+	c #4B4C4B",
"#+	c #7A7C7A",
"$+	c #969897",
"%+	c #DBDCDF",
"&+	c #848286",
"*+	c #140E02",
"=+	c #161101",
"-+	c #5B585F",
";+	c #E4E3E8",
">+	c #D7EEBE",
",+	c #EBF0E9",
"'+	c #7C757D",
")+	c #172819",
"!+	c #102C16",
"~+	c #504A4E",
"{+	c #F2F3F2",
"]+	c #F7FBFA",
"^+	c #878484",
"/+	c #8D8784",
"(+	c #6A6D70",
"_+	c #444444",
":+	c #434443",
"<+	c #383737",
"[+	c #B4ACB9",
"}+	c #727477",
"|+	c #4D584E",
"1+	c #8F8E8C",
"2+	c #57595F",
"3+	c #1D1E25",
"4+	c #DDDEDD",
"5+	c #DDDAE0",
"6+	c #F6F4F6",
"7+	c #7E807E",
"8+	c #221C1F",
"9+	c #443C41",
"0+	c #737775",
"a+	c #B0AAAE",
"b+	c #675C60",
"c+	c #969999",
"d+	c #E6EEEF",
"e+	c #5B5B60",
"f+	c #3D3B3B",
"g+	c #343331",
"h+	c #A49EA8",
"i+	c #888588",
"j+	c #14020D",
"k+	c #575356",
"l+	c #C5CBC9",
"m+	c #C5CFCF",
"n+	c #9D9D9C",
"o+	c #636263",
"p+	c #626473",
"q+	c #606364",
"r+	c #8E8F8C",
"s+	c #BFBBC4",
"t+	c #DDDAE3",
"u+	c #A9A7A6",
"v+	c #28302C",
"w+	c #191B16",
"x+	c #A8AFB2",
"y+	c #D1E2E1",
"z+	c #504949",
"A+	c #3C3C3C",
"B+	c #888987",
"C+	c #969694",
"D+	c #280F21",
"E+	c #484A4E",
"F+	c #C0B9B6",
"G+	c #F3D1D1",
"H+	c #B9B9BA",
"I+	c #313436",
"J+	c #433E2D",
"K+	c #212220",
"L+	c #97959C",
"M+	c #EFFAE2",
"N+	c #E1EFD3",
"O+	c #A79DAA",
"P+	c #26412B",
"Q+	c #2A4430",
"R+	c #C5C0C4",
"S+	c #CDCCCD",
"T+	c #626260",
"U+	c #353535",
"V+	c #474746",
"W+	c #4E5253",
"X+	c #5D5D5E",
"Y+	c #434743",
"Z+	c #2A312F",
"`+	c #BCB2B4",
" @	c #EFD9D9",
".@	c #B4B5B6",
"+@	c #3B3E42",
"@@	c #685C37",
"#@	c #393630",
"$@	c #94939A",
"%@	c #E3EFD9",
"&@	c #E8F2DA",
"*@	c #939198",
"=@	c #12100F",
"-@	c #545051",
";@	c #7E7B7B",
">@	c #787A7B",
",@	c #666D6C",
"'@	c #333131",
")@	c #434341",
"!@	c #494B4F",
"~@	c #4B4C57",
"{@	c #B5B5B2",
"]@	c #898886",
"^@	c #7B7E7E",
"/@	c #B7C1C0",
"(@	c #BEBDBB",
"_@	c #2C2F35",
":@	c #242525",
"<@	c #9A9B98",
"[@	c #E6E3ED",
"}@	c #B9B5BF",
"|@	c #858584",
"1@	c #908E92",
"2@	c #C7C1C5",
"3@	c #2E3D32",
"4@	c #67706C",
"5@	c #676368",
"6@	c #353434",
"7@	c #454646",
"8@	c #3E3D3A",
"9@	c #B5ACBF",
"0@	c #CBC4D4",
"a@	c #3C403A",
"b@	c #1A1819",
"c@	c #505051",
"d@	c #ABABAA",
"e@	c #A8B0B0",
"f@	c #B8BABB",
"g@	c #7B7A7A",
"h@	c #393A3B",
"i@	c #222224",
"j@	c #7F7E7F",
"k@	c #FFFFF4",
"l@	c #C2C4BF",
"m@	c #292E2D",
"n@	c #5C5F5D",
"o@	c #4D4E4D",
"p@	c #3D3D3E",
"q@	c #393737",
"r@	c #454846",
"s@	c #757776",
"t@	c #A39EA4",
"u@	c #C6C8C9",
"v@	c #565354",
"w@	c #2C0724",
"x@	c #333233",
"y@	c #BAC2C0",
"z@	c #E3C4C4",
"A@	c #EDE7E8",
"B@	c #666B6F",
"C@	c #29210C",
"D@	c #373123",
"E@	c #888A8F",
"F@	c #F7FFE9",
"G@	c #A0A39E",
"H@	c #726B72",
"I@	c #6C6E6B",
"J@	c #343532",
"K@	c #3B393A",
"L@	c #9DABAB",
"M@	c #656663",
"N@	c #777671",
"O@	c #646564",
"P@	c #1E1B1C",
"Q@	c #272828",
"R@	c #B0B5B5",
"S@	c #E1C6C7",
"T@	c #E7E1E1",
"U@	c #606365",
"V@	c #17130E",
"W@	c #33342D",
"X@	c #9B9DA0",
"Y@	c #A5A2B0",
"Z@	c #777779",
"`@	c #DCE2D4",
" #	c #6E726F",
".#	c #2A2B2B",
"+#	c #3E3E3E",
"@#	c #3B3B3B",
"##	c #3A3A3B",
"$#	c #9B9B9A",
"%#	c #4F4E55",
"&#	c #00000C",
"*#	c #888886",
"=#	c #9EA79F",
"-#	c #777877",
";#	c #828081",
">#	c #899B93",
",#	c #929796",
"'#	c #797677",
")#	c #757E83",
"!#	c #A3A7AC",
"~#	c #767372",
"{#	c #121008",
"]#	c #6B6C69",
"^#	c #E6EBE1",
"/#	c #6E6C6C",
"(#	c #322F31",
"_#	c #3D3D3F",
":#	c #60625D",
"<#	c #4F5053",
"[#	c #000007",
"}#	c #706F71",
"|#	c #E0CFEE",
"1#	c #CBC8CE",
"2#	c #474C46",
"3#	c #352130",
"4#	c #211E21",
"5#	c #9AA29F",
"6#	c #FAE3E2",
"7#	c #E2D6DA",
"8#	c #535957",
"9#	c #0C0400",
"0#	c #747376",
"a#	c #9F9FA4",
"b#	c #6D706B",
"c#	c #303832",
"d#	c #5D615C",
"e#	c #6D6968",
"f#	c #5F5F5E",
"g#	c #C1BDC8",
"h#	c #D6D5D9",
"i#	c #464C45",
"j#	c #32122A",
"k#	c #180F16",
"l#	c #9A9F9D",
"m#	c #FFEAEC",
"n#	c #CDC4C4",
"o#	c #4B5253",
"p#	c #5C6365",
"q#	c #676663",
"r#	c #4E4C46",
"s#	c #636563",
"t#	c #2E2F30",
"u#	c #363636",
"v#	c #373635",
"w#	c #5E6060",
"x#	c #BDCDCD",
"y#	c #7A7D7C",
"z#	c #48463F",
"A#	c #7E7D7B",
"B#	c #6C6B6D",
"C#	c #4C554C",
"D#	c #4B4E4B",
"E#	c #858485",
"F#	c #88948F",
"G#	c #5D6461",
"H#	c #989292",
"I#	c #E4DADB",
"J#	c #5C5C5A",
"K#	c #3B3936",
"L#	c #454544",
"M#	c #343535",
"N#	c #323232",
"O#	c #4A4B48",
"P#	c #ABAEB0",
"Q#	c #8D8C89",
"R#	c #0A101C",
"S#	c #10121C",
"T#	c #9B9C97",
"U#	c #C3C0CA",
"V#	c #CAC9CD",
"W#	c #595B59",
"X#	c #190616",
"Y#	c #2F2C30",
"Z#	c #BDBCB8",
"`#	c #DAC6C7",
" $	c #838384",
".$	c #797B7A",
"+$	c #2A2A2A",
"@$	c #403F40",
"#$	c #3E3F3D",
"$$	c #5C5C59",
"%$	c #4B484A",
"&$	c #646461",
"*$	c #38383E",
"=$	c #0E0D12",
"-$	c #868883",
";$	c #C2B6CF",
">$	c #CAC7CC",
",$	c #50524F",
"'$	c #150312",
")$	c #4B4447",
"!$	c #969E97",
"~$	c #717978",
"{$	c #ACA2A2",
"]$	c #696363",
"^$	c #303232",
"/$	c #444343",
"($	c #414041",
"_$	c #132019",
":$	c #353836",
"<$	c #ACABAA",
"[$	c #8E908D",
"}$	c #706D6F",
"|$	c #7E8178",
"1$	c #848481",
"2$	c #707071",
"3$	c #878D86",
"4$	c #9DA3A1",
"5$	c #372B33",
"6$	c #2C2029",
"7$	c #4C4C4B",
"8$	c #303131",
"9$	c #3B3C3B",
"0$	c #3B3636",
"a$	c #687777",
"b$	c #AFBFBF",
"c$	c #605C58",
"d$	c #121524",
"e$	c #16181D",
"f$	c #9B9998",
"g$	c #D9CEE2",
"h$	c #8F8F90",
"i$	c #322F2D",
"j$	c #373036",
"k$	c #373938",
"l$	c #424343",
"m$	c #454444",
"n$	c #464546",
"o$	c #2F2E2F",
"p$	c #3F3F3C",
"q$	c #373A44",
"r$	c #36373B",
"s$	c #4A4748",
"t$	c #353237",
"u$	c #2E2D2D",
"v$	c #404240",
"w$	c #424744",
"x$	c #3E4040",
"y$	c #484541",
"z$	c #444443",
"A$	c #353637",
"B$	c #353733",
"C$	c #444445",
"D$	c #070B04",
"E$	c #1A2F0A",
"F$	c #000100",
"G$	c #010100",
"H$	c #0A1105",
"I$	c #0B1205",
"J$	c #020401",
". . . . . . . . . . . . . . . . . . . . . . . . . . . . . . . . ",
". + + + + + + + + + + + + + + + + + + + + + + + + + + + + + + . ",
". + @ @ @ @ @ @ @ @ @ @ @ @ @ @ @ @ @ @ @ @ @ @ @ @ @ @ @ @ @ . ",
". + # # # # # # # # $ % & * = - ; > , @ ' ) ! ~ # # # # # # @ . ",
". + # # # # # { ] > ^ / ( _ : < [ } | 1 2 3 4 5 $ ~ # # # # @ . ",
". + # # # ~ > _ 6 / 7 8 9 0 a b c d e f g h i j k l $ # # # @ . ",
". + # # ~ # m n o p q r s t u v w x y z A B C D E F G $ # # @ . ",
". + # # ~ H I J K L M N O P Q R S T U V W X Y Z `  ...> # # @ . ",
". + # # > +.@.#.$.%.&.*.=.-.;.>.,.'.).!.~.{.].^./.(._.:.# # @ . ",
". + # # # <.[.}.|.1.2.3.4.5.6.7.8.9.0.a.b.c.d.e.f.g.h.i.j.# @ . ",
". + # # > k.l.m.n.o.p.q.r.s.t.u.v.w.w.x.y.z.A.B.C.D.E.F.$ # @ . ",
". + # # ~ G.H.I.J.K.L.M.N.O.P.Q.R.S.T.U.V.W.X.Y.Z.`. +5 ~ # @ . ",
". + > > .+++@+#+$+%+&+*+=+-+;+>+,+'+)+!+~+{+]+^+/+(+: ~ # # @ . ",
". + * _+:+| <+[+}+|+1+2+3+! 4+5+6+7+8+9+0+a+b+c+d+e+f+# > # @ . ",
". + _+_+_+@ g+h+i+j+k+l+m+n+o+p+q+r+s+t+u+v+w+x+y+z+A+_+* .+@ . ",
". + _+_+_+@ ^ B+C+D+E+F+G+H+I+J+K+L+M+N+O+P+Q+R+S+T+U+* _+_+@ . ",
". + _+@ @ | V+W+X+Y+Z+`+ @.@+@@@#@$@%@&@*@=@-@;@>@,@'@- @ _+@ . ",
". + @ @ @ | )@!@~@{@]@^@/@(@@ _@:@<@[@}@|@1@2@3@4@5@6@7@@ @ @ . ",
". + @ @ | ++l V+8@9@0@a@b@c@d@e@f@g@h@i@j@k@l@m@n@o@p@@ @ @ @ . ",
". + | | ++++q@r@s@t@u@v@w@x@y@z@A@B@C@D@E@F@G@H@I@J@G ++| | @ . ",
". + ++++G +.K@2 L@M@N@O@P@Q@R@S@T@U@V@W@X@Y@Z@`@ #.#+.G ++++@ . ",
". + +++.+.+#@###$#%#&#*#=#-#;#>#,#'#)#!#~#{#]#^#/#(#l +#+.++@ . ",
". + @ G l +#.._#:#<#[#}#|#1#2#3#4#5#6#7#8#9#0#a#b#k l +#+.++@ . ",
". + - * G l @#:.c#d#e#f#g#h#i#j#k#l#m#n#o#p#q#r#s#t#l +.| _+@ . ",
". + .+* _+++A+u#v#w#x#y#z#A#B#C#D#E#F#G#H#I#J#K#L#M#+#@ * * @ . ",
". + .+* * _+| N#O#d P#Q#R#S#T#U#V#W#X#Y#Z#`# $.$+$+#@ _+* * @ . ",
". + .+* _+_+* @$#$$$%$&$*$=$-$;$>$,$'$)$!$~${$]$^$/$L#_+* * @ . ",
". + .+* * _+_+_+($l _$:$<$[$}$|$1$2$3$4$5$6$7$8$@ _+_+_+* * @ . ",
". + .+- * * _+_+@ @ 9$0$a$b$c$d$e$f$g$h$i$j$k$l$m$_+_+_+* .+@ . ",
". + .+- * * * _+_+_+n$+++$o$p$q$r$s$t$u$v$w$m$_+_+_+* * - .+@ . ",
". + .+- * * * _+_+_+@ * /$f+x$y$z$A$B$+#C$m$_+_+_+* * * - .+@ . ",
". . . . . . . . D$E$F$. . . . . . . . . . . G$H$I$J$. . . . . . "};
