/* XPM */
static char * coat_prim_xpm[] = {
"32 32 498 2",
"  	c None",
". 	c #000000",
"+ 	c #717171",
"@ 	c #707070",
"# 	c #404040",
"$ 	c #423F3F",
"% 	c #3F4040",
"& 	c #3E4040",
"* 	c #413F3F",
"= 	c #414040",
"- 	c #344646",
"; 	c #2F4949",
"> 	c #2F4A4A",
", 	c #304A4A",
"' 	c #324A4A",
") 	c #314A4A",
"! 	c #314848",
"~ 	c #3A4343",
"{ 	c #3B4444",
"] 	c #4A3B3B",
"^ 	c #623131",
"/ 	c #6E2727",
"( 	c #782121",
"_ 	c #7E1F1F",
": 	c #7C1F1F",
"< 	c #702222",
"[ 	c #682A2A",
"} 	c #593434",
"| 	c #3C4141",
"1 	c #3C4242",
"2 	c #752929",
"3 	c #C20202",
"4 	c #C00000",
"5 	c #BF0000",
"6 	c #BC0000",
"7 	c #B90000",
"8 	c #B70000",
"9 	c #B80000",
"0 	c #BE0000",
"a 	c #A01010",
"b 	c #3B4343",
"c 	c #384545",
"d 	c #403F3F",
"e 	c #314B4B",
"f 	c #711C1C",
"g 	c #B60000",
"h 	c #B20000",
"i 	c #BA0000",
"j 	c #BB0000",
"k 	c #C60000",
"l 	c #B60404",
"m 	c #3D4242",
"n 	c #354646",
"o 	c #354A4A",
"p 	c #5B2828",
"q 	c #950000",
"r 	c #9A0000",
"s 	c #AB0000",
"t 	c #BD0000",
"u 	c #C20000",
"v 	c #C30000",
"w 	c #9B0E0E",
"x 	c #394747",
"y 	c #394343",
"z 	c #354949",
"A 	c #592E2E",
"B 	c #960000",
"C 	c #980000",
"D 	c #A60000",
"E 	c #B00000",
"F 	c #900F0F",
"G 	c #344848",
"H 	c #364949",
"I 	c #543131",
"J 	c #8F0000",
"K 	c #940000",
"L 	c #A20000",
"M 	c #AD0000",
"N 	c #B40000",
"O 	c #841616",
"P 	c #314949",
"Q 	c #3E4141",
"R 	c #384848",
"S 	c #4D3434",
"T 	c #870000",
"U 	c #910000",
"V 	c #9E0000",
"W 	c #AA0000",
"X 	c #B10000",
"Y 	c #B50000",
"Z 	c #B30000",
"` 	c #7B2121",
" .	c #483636",
"..	c #800000",
"+.	c #8A0000",
"@.	c #A50000",
"#.	c #AC0000",
"$.	c #712525",
"%.	c #40423F",
"&.	c #41403E",
"*.	c #3A4744",
"=.	c #453C3A",
"-.	c #770404",
";.	c #830000",
">.	c #A00000",
",.	c #A80000",
"'.	c #AE0000",
").	c #632A2A",
"!.	c #304B4B",
"~.	c #403F40",
"{.	c #3F3247",
"].	c #3E2E49",
"^.	c #3E2D49",
"/.	c #3A324D",
"(.	c #433642",
"_.	c #6D0908",
":.	c #7B0000",
"<.	c #890000",
"[.	c #990000",
"}.	c #A30000",
"|.	c #A70000",
"1.	c #5A3030",
"2.	c #404140",
"3.	c #40433F",
"4.	c #3F3346",
"5.	c #3D2E49",
"6.	c #3E4E38",
"7.	c #40672C",
"8.	c #406D26",
"9.	c #3B5E32",
"0.	c #3C3B3F",
"a.	c #65000F",
"b.	c #710000",
"c.	c #7D0000",
"d.	c #9C0000",
"e.	c #A40000",
"f.	c #A10000",
"g.	c #543535",
"h.	c #34433C",
"i.	c #403D3B",
"j.	c #3F3F40",
"k.	c #3F3F3F",
"l.	c #40433E",
"m.	c #3F3047",
"n.	c #3E3A43",
"o.	c #42871F",
"p.	c #4ABB00",
"q.	c #4EC900",
"r.	c #51CA00",
"s.	c #4EC400",
"t.	c #41AA0A",
"u.	c #48490C",
"v.	c #5E0002",
"w.	c #720000",
"x.	c #9D0000",
"y.	c #920001",
"z.	c #503631",
"A.	c #344547",
"B.	c #3E3D3C",
"C.	c #3F413F",
"D.	c #3E3246",
"E.	c #3D3B44",
"F.	c #47AB0A",
"G.	c #50D200",
"H.	c #52C803",
"I.	c #55C90B",
"J.	c #58CC00",
"K.	c #59CC00",
"L.	c #56CF00",
"M.	c #42D400",
"N.	c #3B5709",
"O.	c #600003",
"P.	c #7E0000",
"Q.	c #970000",
"R.	c #930000",
"S.	c #900000",
"T.	c #8D0000",
"U.	c #3C3333",
"V.	c #2878C5",
"W.	c #484E5D",
"X.	c #3F372D",
"Y.	c #3F4042",
"Z.	c #3F3D40",
"`.	c #3D2F48",
" +	c #428918",
".+	c #4CCB00",
"++	c #59C119",
"@+	c #7FDB65",
"#+	c #85E16C",
"$+	c #63D227",
"%+	c #55CC00",
"&+	c #54C400",
"*+	c #53C900",
"=+	c #3AC003",
"-+	c #472C08",
";+	c #740000",
">+	c #860000",
",+	c #8B0000",
"'+	c #0E4474",
")+	c #349CFF",
"!+	c #4B6993",
"~+	c #3B2C1D",
"{+	c #404041",
"]+	c #3F413E",
"^+	c #3F3246",
"/+	c #3F5435",
"(+	c #45B200",
"_+	c #49B600",
":+	c #6BCB48",
"<+	c #BAF9B3",
"[+	c #B5FAAA",
"}+	c #6CD542",
"|+	c #58CC15",
"1+	c #60CC2B",
"2+	c #58C215",
"3+	c #46C900",
"4+	c #3B7408",
"5+	c #670005",
"6+	c #880000",
"7+	c #840000",
"8+	c #790000",
"9+	c #45253F",
"0+	c #0062B5",
"a+	c #4C97EC",
"b+	c #4089D7",
"c+	c #2E312F",
"d+	c #463B32",
"e+	c #3E3E3F",
"f+	c #3F3049",
"g+	c #3F6825",
"h+	c #4AB200",
"i+	c #63C636",
"j+	c #92E180",
"k+	c #89E070",
"l+	c #60CD2C",
"m+	c #72D64B",
"n+	c #9AE78D",
"o+	c #78D05C",
"p+	c #47BF04",
"q+	c #369201",
"r+	c #5E0504",
"s+	c #7A0000",
"t+	c #760000",
"u+	c #5D1019",
"v+	c #00589D",
"w+	c #0565B5",
"x+	c #4989D6",
"y+	c #4E9CF6",
"z+	c #17476A",
"A+	c #473423",
"B+	c #3E3E40",
"C+	c #3F3F3E",
"D+	c #3F403E",
"E+	c #3E3049",
"F+	c #3C6620",
"G+	c #41A900",
"H+	c #4AAD00",
"I+	c #50BA09",
"J+	c #56C01F",
"K+	c #54C215",
"L+	c #53C413",
"M+	c #7CD560",
"N+	c #ACEBA3",
"O+	c #82D06D",
"P+	c #42B607",
"Q+	c #359000",
"R+	c #670600",
"S+	c #780000",
"T+	c #630608",
"U+	c #07477B",
"V+	c #005FA8",
"W+	c #0D64B0",
"X+	c #3782CF",
"Y+	c #66A1F0",
"Z+	c #0960AB",
"`+	c #3C342F",
" @	c #413D38",
".@	c #3E403D",
"+@	c #3E3148",
"@@	c #395729",
"#@	c #3A9B00",
"$@	c #46A300",
"%@	c #4BAF00",
"&@	c #4CB600",
"*@	c #4DBA00",
"=@	c #51BC05",
"-@	c #5FC234",
";@	c #6FC656",
">@	c #5BB62F",
",@	c #3DAD00",
"'@	c #377B05",
")@	c #63050D",
"!@	c #7C0000",
"~@	c #7F0000",
"{@	c #760200",
"]@	c #1B3357",
"^@	c #00589F",
"/@	c #095B9E",
"(@	c #0769B7",
"_@	c #257CCB",
":@	c #749DE2",
"<@	c #0F76D4",
"[@	c #20415B",
"}@	c #483728",
"|@	c #3D3F41",
"1@	c #3E3E3E",
"2@	c #6F6F6F",
"3@	c #3F3942",
"4@	c #393C3A",
"5@	c #2F7902",
"6@	c #3D9900",
"7@	c #45A100",
"8@	c #48AA00",
"9@	c #4AAF00",
"0@	c #4DB000",
"a@	c #4AAF02",
"b@	c #45AA05",
"c@	c #419D00",
"d@	c #3C9F00",
"e@	c #305A1D",
"f@	c #2E233C",
"g@	c #372E2D",
"h@	c #412B21",
"i@	c #213247",
"j@	c #004D91",
"k@	c #005192",
"l@	c #0B5FA7",
"m@	c #0369B9",
"n@	c #1975C7",
"o@	c #7196DA",
"p@	c #1D81DD",
"q@	c #03579A",
"r@	c #463427",
"s@	c #3F3C39",
"t@	c #3D3E3E",
"u@	c #3D3D3E",
"v@	c #3D3D3C",
"w@	c #3E3144",
"x@	c #2C4621",
"y@	c #287D00",
"z@	c #3D9400",
"A@	c #439C00",
"B@	c #449F00",
"C@	c #45A200",
"D@	c #43A000",
"E@	c #3F9600",
"F@	c #3B9C00",
"G@	c #327906",
"H@	c #2C2931",
"I@	c #2D2F39",
"J@	c #323B34",
"K@	c #27393F",
"L@	c #00447D",
"M@	c #004C8C",
"N@	c #005393",
"O@	c #0A62AC",
"P@	c #0069BA",
"Q@	c #1472C5",
"R@	c #638FD6",
"S@	c #3582D3",
"T@	c #0069C5",
"U@	c #303E4D",
"V@	c #44372B",
"W@	c #6E6E6E",
"X@	c #3D3D3D",
"Y@	c #3C3C3B",
"Z@	c #3A393B",
"`@	c #392D40",
" #	c #213619",
".#	c #1A5700",
"+#	c #2D7B00",
"@#	c #368800",
"##	c #378900",
"$#	c #358800",
"%#	c #328900",
"&#	c #2B6F06",
"*#	c #272728",
"=#	c #2E2235",
"-#	c #323533",
";#	c #3C3129",
">#	c #2A3748",
",#	c #00488B",
"'#	c #004E8A",
")#	c #02579B",
"!#	c #0764AE",
"~#	c #0069B8",
"{#	c #0E6FC2",
"]#	c #5285D1",
"^#	c #4081CC",
"/#	c #0071CF",
"(#	c #145489",
"_#	c #43352A",
":#	c #3E3D3B",
"<#	c #3C3C3C",
"[#	c #383A37",
"}#	c #373638",
"|#	c #342839",
"1#	c #1C1B22",
"2#	c #12290B",
"3#	c #194603",
"4#	c #205502",
"5#	c #225606",
"6#	c #224113",
"7#	c #231E28",
"8#	c #2C2132",
"9#	c #333431",
"0#	c #343535",
"a#	c #383532",
"b#	c #3A3532",
"c#	c #0B4880",
"d#	c #0054A0",
"e#	c #015A9E",
"f#	c #0464AF",
"g#	c #0B6EBF",
"h#	c #417ECB",
"i#	c #407DC8",
"j#	c #0175D3",
"k#	c #0A60A8",
"l#	c #40362F",
"m#	c #3E3C39",
"n#	c #3B3B3B",
"o#	c #393939",
"p#	c #363736",
"q#	c #353635",
"r#	c #352F36",
"s#	c #2A2030",
"t#	c #231D28",
"u#	c #231E26",
"v#	c #241D29",
"w#	c #291D30",
"x#	c #2F2931",
"y#	c #333432",
"z#	c #353535",
"A#	c #373737",
"B#	c #373839",
"C#	c #3E352B",
"D#	c #36383D",
"E#	c #0C5395",
"F#	c #0064BC",
"G#	c #0069BE",
"H#	c #006BBF",
"I#	c #0570C5",
"J#	c #2F7CCE",
"K#	c #3884DC",
"L#	c #067DE5",
"M#	c #224D72",
"N#	c #433328",
"O#	c #383838",
"P#	c #363636",
"Q#	c #343534",
"R#	c #333433",
"S#	c #333034",
"T#	c #312C34",
"U#	c #322E33",
"V#	c #333332",
"W#	c #38393B",
"X#	c #40352B",
"Y#	c #3D3737",
"Z#	c #214D76",
"`#	c #0B63AD",
" $	c #026CC3",
".$	c #0072CE",
"+$	c #217AD3",
"@$	c #3078CA",
"#$	c #2E5277",
"$$	c #3F3328",
"%$	c #3D3B39",
"&$	c #3A3A3A",
"*$	c #373738",
"=$	c #363635",
"-$	c #3A3C3D",
";$	c #3E3933",
">$	c #433426",
",$	c #403734",
"'$	c #36414B",
")$	c #304454",
"!$	c #36424E",
"~$	c #3C3837",
"{$	c #423223",
"]$	c #3E3B39",
"^$	c #3C3E3F",
"/$	c #3D3C3C",
"($	c #3C3D3F",
"_$	c #3C3D3D",
":$	c #403932",
"<$	c #42372C",
"[$	c #43352B",
"}$	c #3F352B",
"|$	c #3D3730",
"1$	c #3C3D3E",
"2$	c #3D3E3F",
"3$	c #070B04",
"4$	c #1A2F0A",
"5$	c #000100",
"6$	c #010100",
"7$	c #0A1105",
"8$	c #0B1205",
"9$	c #020401",
". . . . . . . . . . . . . . . . . . . . . . . . . . . . . . . . ",
". + + + + + + + + + + + + + + + + + + + + + + + + + + + + + + . ",
". @ # # # # # # # # # # # $ $ $ # % & % * $ $ = # # # # # # # . ",
". + # # # # # # # # # = & - ; > , ' ' ) > > ! ~ * # # # # # # . ",
". + # # # # # # # # # # { ] ^ / ( _ _ : < [ } | 1 * # # # # # . ",
". + # # # # # # # # % ! 2 3 4 5 6 7 8 8 7 9 0 a b c = # # # # . ",
". + # # # # # # # # d e f g h 9 i j j 6 6 6 k l m n = # # # # . ",
". + # # # # # # # # * o p q r s 8 t u v u 5 6 w x y = # # # # . ",
". + # # # # # # # # * z A B C D E g j 6 6 9 6 F G 1 # # # # # . ",
". + # # # # # # # # * H I J K L M N 9 i i g i O P Q # # # # # . ",
". + # # # # # # # # * R S T U V W X Y g 9 Z g ` ) % # # # # # . ",
". + # # # # # # # # * R  ...+.C @.#.h N N E N $.) d # # # # # . ",
". + # # # # # # %.%.&.*.=.-.;.U >.,.'.X E #.E ).!.$ # # # # # . ",
". + # # # # %.~.{.].^./.(._.:.<.[.}.W #.s |.,.1.! $ # # # # # . ",
". + # # 2.3.4.5.6.7.8.9.0.a.b.c.U d.e.D e.f.V g.h.i.j.k.k.# # . ",
". + # # l.m.n.o.p.q.r.s.t.u.v.w.T B V >.x.r y.z.A.B.% k.k.k.# . ",
". + # C.D.E.F.G.H.I.J.K.L.M.N.O.P.J Q.[.R.S.T.U.V.W.X.Y.k.k.k.. ",
". @ k.Z.`. +.+++@+#+$+%+&+*+=+-+;+>+S.S.>+<.,+'+)+!+~+{+k.k.k.. ",
". @ ]+^+/+(+_+:+<+[+}+|+1+2+3+4+5+..6+7+8+T.9+0+a+b+c+d+e+k.k.. ",
". @ ]+f+g+(+h+i+j+k+l+m+n+o+p+q+r+s+P.t+c.u+v+w+x+y+z+A+B+C+k.. ",
". @ D+E+F+G+H+I+J+K+L+M+N+O+P+Q+R+P.s+S+T+U+V+W+X+Y+Z+`+ @e+k.. ",
". @ .@+@@@#@$@%@&@*@=@-@;@>@,@'@)@!@~@{@]@^@/@(@_@:@<@[@}@|@1@. ",
". 2@1@3@4@5@6@7@8@9@0@a@b@c@d@e@f@g@h@i@j@k@l@m@n@o@p@q@r@s@t@. ",
". 2@u@v@w@x@y@z@A@B@C@D@E@F@G@H@I@J@K@L@M@N@O@P@Q@R@S@T@U@V@e+. ",
". W@X@Y@Z@`@ #.#+#@###$#%#&#*#=#-#;#>#,#'#)#!#~#{#]#^#/#(#_#:#. ",
". W@X@<#[#}#|#1#2#3#4#5#6#7#8#9#0#a#b#c#d#e#f#~#g#h#i#j#k#l#m#. ",
". W@<#n#o#p#q#r#s#t#u#v#w#x#y#z#A#B#C#D#E#F#G#H#I#J#K#L#M#N#X@. ",
". W@<#n#o#O#P#Q#R#S#T#U#V#Q#P#A#o#o#W#X#Y#Z#`# $.$+$@$#$$$%$t@. ",
". W@X@<#n#&$O#*$P#=$=$p#A#O#O#&$n#n#n#-$;$>$,$'$)$!$~${$]$^$1@. ",
". W@X@X@n#n#&$&$o#o#o#o#&$n#n#n#n#<#<#/$($_$:$<$[$}$|$1$2$1@1@. ",
". 2@X@X@X@X@<#<#n#n#<#n#<#<#<#<#X@X@X@X@X@X@e+e+1@e+e+1@1@1@1@. ",
". . . . . . . . 3$4$5$. . . . . . . . . . . 6$7$8$9$. . . . . . "};
