/* XPM */
static char * coat_curv_xpm[] = {
"32 32 190 2",
"  	c None",
". 	c #000000",
"+ 	c #717171",
"@ 	c #707070",
"# 	c #404040",
"$ 	c #3F3F3F",
"% 	c #3F403F",
"& 	c #3F423E",
"* 	c #404C38",
"= 	c #47583A",
"- 	c #484D44",
"; 	c #3E3E3E",
"> 	c #404D38",
", 	c #578834",
"' 	c #77AD51",
") 	c #4D633D",
"! 	c #3B3C3B",
"~ 	c #3D3D3D",
"{ 	c #4F693D",
"] 	c #8BC164",
"^ 	c #76BF41",
"/ 	c #466B2C",
"( 	c #393B38",
"_ 	c #3C3C3C",
": 	c #66844F",
"< 	c #82C74F",
"[ 	c #5EB123",
"} 	c #3F5F27",
"| 	c #373837",
"1 	c #3B3B3B",
"2 	c #444841",
"3 	c #618F40",
"4 	c #6AC42A",
"5 	c #519D1A",
"6 	c #394C2B",
"7 	c #363636",
"8 	c #3A3A3A",
"9 	c #455738",
"0 	c #5BA228",
"a 	c #5CBF13",
"b 	c #46821A",
"c 	c #343D2E",
"d 	c #3F4838",
"e 	c #4A7F22",
"f 	c #56B90F",
"g 	c #50AE0D",
"h 	c #3C6122",
"i 	c #333532",
"j 	c #383838",
"k 	c #3E433B",
"l 	c #446F25",
"m 	c #50B00B",
"n 	c #53C006",
"o 	c #448417",
"p 	c #35412D",
"q 	c #353535",
"r 	c #393939",
"s 	c #3E3F3E",
"t 	c #3E4837",
"u 	c #4DA50E",
"v 	c #52BF04",
"w 	c #489511",
"x 	c #384E28",
"y 	c #343534",
"z 	c #373737",
"A 	c #40592F",
"B 	c #48861B",
"C 	c #4FAF0A",
"D 	c #52BC05",
"E 	c #4A9D0F",
"F 	c #3A5725",
"G 	c #343532",
"H 	c #3D3F3C",
"I 	c #3E4738",
"J 	c #415E2D",
"K 	c #467C1F",
"L 	c #4CA110",
"M 	c #52BF05",
"N 	c #52BE05",
"O 	c #489312",
"P 	c #3A5825",
"Q 	c #343831",
"R 	c #425B2F",
"S 	c #467324",
"T 	c #48891A",
"U 	c #4DA70E",
"V 	c #52BD05",
"W 	c #4DA80C",
"X 	c #427B1A",
"Y 	c #374B29",
"Z 	c #343732",
"` 	c #404140",
" .	c #41473D",
"..	c #465B38",
"+.	c #4D7730",
"@.	c #529025",
"#.	c #55A618",
"$.	c #55B90C",
"%.	c #54BE07",
"&.	c #51B906",
"*.	c #4BA20E",
"=.	c #437E19",
"-.	c #343C2F",
";.	c #343434",
">.	c #3F413E",
",.	c #3F3F3E",
"'.	c #444F3C",
").	c #527538",
"!.	c #5F9538",
"~.	c #68AF36",
"{.	c #6CC12F",
"].	c #68C721",
"^.	c #5DBE17",
"/.	c #51A811",
"(.	c #478B15",
"_.	c #40711D",
":.	c #395327",
"<.	c #40443C",
"[.	c #516B3E",
"}.	c #6BA245",
"|.	c #7DC749",
"1.	c #82D747",
"2.	c #79CF3B",
"3.	c #68BB2E",
"4.	c #569926",
"5.	c #457523",
"6.	c #3B5826",
"7.	c #35402D",
"8.	c #3F403E",
"9.	c #3F433D",
"0.	c #516E3D",
"a.	c #81BC56",
"b.	c #90D75D",
"c.	c #80C94E",
"d.	c #67A839",
"e.	c #51832E",
"f.	c #416129",
"g.	c #37442D",
"h.	c #333730",
"i.	c #3E403D",
"j.	c #475D38",
"k.	c #81B859",
"l.	c #90D461",
"m.	c #71B640",
"n.	c #4F7A30",
"o.	c #394A2E",
"p.	c #343632",
"q.	c #323333",
"r.	c #6F6F6F",
"s.	c #3F4739",
"t.	c #61963D",
"u.	c #95D964",
"v.	c #6CB836",
"w.	c #456A2A",
"x.	c #333830",
"y.	c #323232",
"z.	c #3D3E3E",
"A.	c #3D3D3E",
"B.	c #435F2F",
"C.	c #7EBE4E",
"D.	c #70C830",
"E.	c #498021",
"F.	c #333C2D",
"G.	c #3E3E3F",
"H.	c #6E6E6E",
"I.	c #66C224",
"J.	c #52A715",
"K.	c #395625",
"L.	c #3E3D3B",
"M.	c #47851C",
"N.	c #54C105",
"O.	c #468B15",
"P.	c #343D2D",
"Q.	c #3E3C39",
"R.	c #498B19",
"S.	c #52C004",
"T.	c #427A1A",
"U.	c #3D4438",
"V.	c #457A20",
"W.	c #50B20A",
"X.	c #3F6722",
"Y.	c #363835",
"Z.	c #3E4D34",
"`.	c #3F5E2A",
" +	c #3A4432",
".+	c #3C3D3C",
"++	c #010100",
"@+	c #0A1105",
"#+	c #0B1205",
"$+	c #020401",
". . . . . . . . . . . . . . . . . . . . . . . . . . . . . . . . ",
". + + + + + + + + + + + + + + + + + + + + + + + + + + + + + + . ",
". @ # # # # # # # # # # # # # # # # # # # # # # # # # # # # # . ",
". + # # # # # # # # # # # # # # # # # # # # # # # # # # # # # . ",
". + # # # # # # # # # # # # # # # # # # # # # # # $ $ % $ $ $ . ",
". + # # # # # # # # # # # # # # # # # # # # # # $ & * = - ; ; . ",
". + # # # # # # # # # # # # # # # # # # # # # # $ > , ' ) ! ~ . ",
". + # # # # # # # # # # # # # # # # # # # # # $ ; { ] ^ / ( _ . ",
". + # # # # # # # # # # # # # # # # # # # # # $ # : < [ } | 1 . ",
". + # # # # # # # # # # # # # # # # # # # # # $ 2 3 4 5 6 7 8 . ",
". + # # # # # # # # # # # # # # # # # # # # $ ; 9 0 a b c 7 1 . ",
". + # # # # # # # # # # # # # # # # # # # $ $ d e f g h i j _ . ",
". + # # # # # # # # # # # # # # # # # # $ $ k l m n o p q r ~ . ",
". + # # # # # # # # # # # # # # # # $ $ s t l u v w x y z 1 ; . ",
". + # # # # # # # # # # # # # $ $ $ s k A B C D E F G 7 8 ~ $ . ",
". + # # # # # # # # # # $ $ $ ; H I J K L M N O P Q 7 r _ ; $ . ",
". + # # # # # # # # $ $ ; H d R S T U V D W X Y Z 7 r _ ; $ $ . ",
". @ $ # # # # # $ $ `  ...+.@.#.$.%.&.*.=.P -.;.7 r _ ; $ # $ . ",
". @ >.# # # # $ ,.'.).!.~.{.].^./.(._.:.-.y q j 8 _ ; $ # # $ . ",
". @ >.# # # $ <.[.}.|.1.2.3.4.5.6.7.Z y 7 j r 1 ~ ; $ # # # $ . ",
". @ 8.# # $ 9.0.a.b.c.d.e.f.g.h.y q z j 8 1 ~ ; $ $ # # # # $ . ",
". @ i.# $ ; j.k.l.m.n.o.p.q.;.7 j r 1 _ ~ ; $ $ # # # # # # ; . ",
". r.; # $ s.t.u.v.w.x.y.;.z r 8 _ ~ ; $ $ $ # # # # # # # # z.. ",
". r.A.# s B.C.D.E.F.y.7 r 1 ~ ; ; $ $ # # # # # # # # # # # G.. ",
". H.~ $ H 5.I.J.K.y.q r _ ; $ $ # # # # # # # # # # # # # # L.. ",
". H.~ $ k M.N.O.P.;.j _ ; $ # # # # # # # # # # # # # # # # Q.. ",
". H._ $ I R.S.T.Z 7 8 ; $ # # # # # # # # # # # # # # # # # ~ . ",
". H._ $ U.V.W.X.Y.r _ $ # # # # # # # # # # # # # # # # # # z.. ",
". H.~ $ H Z.`. +j 1 ~ $ # # # # # # # # # # # # # # # # # # ; . ",
". H.~ $ ; .+! 8 1 ~ ; $ # # # # # # # # # # # # # # # # # # ; . ",
". r.~ ~ _ 1 r r r r 1 1 _ _ _ _ ~ ~ ~ ~ ~ ~ G.G.; G.G.; ; ; ; . ",
". . . . . . . . . . . . . . . . . . . . . . ++@+#+$+. . . . . . "};
