/* XPM */
static char *coat_imp_xpm[] = {
/* width height num_colors chars_per_pixel */
"    32    32      256            2",
/* colors */
"`` c #040204",
"`. c #bc8a0c",
"`# c #745e14",
"`a c #444204",
"`b c #c4c204",
"`c c #6c5634",
"`d c #fc8204",
"`e c #4c3e14",
"`f c #1c1e1c",
"`g c #bc6a0c",
"`h c #7c6a54",
"`i c #e4c6ac",
"`j c #c4a204",
"`k c #34261c",
"`l c #94826c",
"`m c #5c4a24",
"`n c #f4e204",
"`o c #d4a20c",
"`p c #a47224",
"`q c #a49264",
"`r c #2c3a3c",
"`s c #84765c",
"`t c #3c3a34",
"`u c #64564c",
"`v c #343634",
"`w c #ccba94",
"`x c #2c2e2c",
"`y c #3c4244",
"`z c #9c661c",
"`A c #fce264",
"`B c #544a3c",
"`C c #fcf25c",
"`D c #0c1204",
"`E c #74523c",
"`F c #4c3a34",
"`G c #645244",
"`H c #f4c204",
"`I c #242624",
"`J c #b4a27c",
"`K c #ac825c",
"`L c #fcb604",
"`M c #a4927c",
"`N c #846a54",
"`O c #fcf204",
"`P c #8c7e64",
"`Q c #3c3a3c",
"`R c #6c6e6c",
"`S c #44362c",
"`T c #545244",
"`U c #1c120c",
"`V c #f4d204",
"`W c #6c6614",
"`X c #e49a04",
"`Y c #9c8a74",
"`Z c #6c5e4c",
"`0 c #34323c",
"`1 c #745e4c",
"`2 c #4c4234",
"`3 c #1c1a14",
"`4 c #44360c",
"`5 c #8c7664",
"`6 c #5c4e3c",
"`7 c #b49a84",
"`8 c #84623c",
".` c #2c2214",
".. c #fcd284",
".# c #c4b604",
".a c #fce294",
".b c #ac9a7c",
".c c #746654",
".d c #54463c",
".e c #645e2c",
".f c #241e14",
".g c #747274",
".h c #342e24",
".i c #9c8274",
".j c #f4ea04",
".k c #f4a604",
".l c #343a3c",
".m c #6c5a44",
".n c #f4ca04",
".o c #fcbe04",
".p c #443e3c",
".q c #24160c",
".r c #4c4244",
".s c #ec8e04",
".t c #7c7264",
".u c #947a6c",
".v c #443a2c",
".w c #3c322c",
".x c #fcb26c",
".y c #44423c",
".z c #fcea64",
".A c #2c261c",
".B c #bcaa84",
".C c #84725c",
".D c #fcfa04",
".E c #3c3e3c",
".F c #f4da04",
".G c #f49a04",
".H c #3c363c",
".I c #7c624c",
".J c #8c7a64",
".K c #5c4a4c",
".L c #fcd2a4",
".M c #6c5e34",
".N c #241e24",
".O c #343e3c",
".P c #c49a04",
".Q c #84562c",
".R c #5c461c",
".S c #7c6e5c",
".T c #c4aa04",
".U c #3c2a24",
".V c #948674",
".W c #ac9e74",
".X c #84766c",
".Y c #645a4c",
".Z c #2c363c",
".0 c #544e44",
".1 c #fcfa5c",
".2 c #fcc204",
".3 c #fcba04",
".4 c #ac9684",
".5 c #1c1614",
".6 c #6c6234",
".7 c #9c8e7c",
".8 c #6c6254",
"#` c #34363c",
"#. c #a48e7c",
"## c #d46e04",
"#a c #c49a2c",
"#b c #fcae04",
"#c c #fc8a04",
"#d c #fcba54",
"#e c #fce2b4",
"#f c #3c3224",
"#g c #fc9604",
"#h c #845e34",
"#i c #c4be04",
"#j c #fcbe1c",
"#k c #dca604",
"#l c #d4b69c",
"#m c #bca684",
"#n c #2c323c",
"#o c #fcea04",
"#p c #fca204",
"#q c #2c2a2c",
"#r c #241a14",
"#s c #8c725c",
"#t c #543e14",
"#u c #fce204",
"#v c #a49274",
"#w c #5c5244",
"#x c #fcd204",
"#y c #ac9a8c",
"#z c #3c2e24",
"#A c #fcca04",
"#B c #fcda04",
"#C c #fc9614",
"#D c #e4caa4",
"#E c #342a24",
"#F c #a49684",
"#G c #74624c",
"#H c #4c463c",
"#I c #24221c",
"#J c #443e34",
"#K c #3c362c",
"#L c #444644",
"#M c #2c2a24",
"#N c #fcd6ac",
"#O c #040604",
"#P c #a47624",
"#Q c #fce664",
"#R c #fcf65c",
"#S c #4c3e34",
"#T c #fcf604",
"#U c #fcd684",
"#V c #c4ba04",
"#W c #9c8674",
"#X c #f4ee04",
"#Y c #4c4644",
"#Z c #947e6c",
"#0 c #fcee64",
"#1 c #5c4e4c",
"#2 c #c4ae04",
"#3 c #fcc604",
"#4 c #fc8e04",
"#5 c #7c6a5c",
"#6 c #948274",
"#7 c #847664",
"#8 c #544a44",
"a` c #64524c",
"a. c #8c7e6c",
"a# c #3c3a44",
"aa c #1c1214",
"ab c #9c8a7c",
"ac c #6c5e54",
"ad c #4c423c",
"ae c #8c766c",
"af c #5c4e44",
"ag c #ac9a84",
"ah c #74665c",
"ai c #645e34",
"aj c #241e1c",
"ak c #343a44",
"al c #6c5a4c",
"am c #241614",
"an c #443a34",
"ao c #444244",
"ap c #bcaa8c",
"aq c #847264",
"ar c #fcfa0c",
"as c #3c3e44",
"at c #8c7a6c",
"au c #6c5e3c",
"av c #343e44",
"aw c #645a54",
"ax c #fcba0c",
"ay c #6c623c",
"az c #343644",
"aA c #241a1c",
"aB c #746254",
"aC c #3c3634",
"aD c #000000",
"aE c #000000",
"aF c #000000",
"aG c #000000",
"aH c #000000",
"aI c #000000",
"aJ c #000000",
"aK c #000000",
"aL c #000000",
"aM c #000000",
"aN c #000000",
"aO c #000000",
"aP c #000000",
"aQ c #000000",
"aR c #000000",
"aS c #000000",
"aT c #000000",
"aU c #000000",
"aV c #000000",
"aW c #000000",
"aX c #000000",
"aY c #000000",
"aZ c #000000",
"a0 c #000000",
"a1 c #000000",
"a2 c #000000",
"a3 c #000000",
"a4 c #000000",
"a5 c #000000",
"a6 c #000000",
"a7 c #000000",
"a8 c #000000",
/* pixels */
"````````````````````````````````````````````````````````````````",
"```R`R.g`R`R.g`R`R.g`R`R.g`R`R.g`R`R.g`R`R.g`R`R.g`R`R.g`R`R.g``",
"```Rao`y.y`y.p`y.yas.y`y.p`y.yas.y`y.p`y.yas.y`y.p`y.yas.y`y.p``",
"``.g.E.pas.yas.yas.yas.yas.yas.yas.yas.yas.yas.yas.yas.yas.yas``",
"```Rao`y.p`y.p`y.p`y.p`y.pas.l`r`0.H`r.la#ao.Eao.Eao.Eao.Eao.E``",
"```Rao.Eao.Eao.Eao.Eao.l.Z.l#Y.K`uaw`u`Tao.Z.l`y.p`y.p`y.p`y.p``",
"```Rao.Eao.Eao.Eao.l.Z.pal.C.J`5#7`5.X#s#7.I.r.Zak.p`y.p`y.p`y``",
"```Rao.Eao.Eao.E#`.l`u#s.u`P#Z#Z#W#W#W#6`lat`5`1.E#nao.Eao.Eao``",
"```Rao.Eao.Eao#n.paB.u.Jat.e`a`a`a`a`a`W`q`lat.J`N#H#n`y.p`y.p``",
"```Rao.Eao.Eaz.p.c`5#7#Z.V.e#i.Darar.D.1.W`l#Zat#7`Nad.Zao.Eao``",
"```Rao.Eao.O`Q.m.C`5at.i`Y.M#i#T#T.D`O#R.W.7.ia.`5aq#Ganav.p`y``",
"```Rao.Eao#``6`haqat`l`Y#.ai#V`O`O`O`n`C`J`M`Y`lataq#5`G#`as.y``",
"```Rao.Eao#J`u#5#7.J#W`Y`May.##o#o#o#u#0#m`M.7#W#Z#7.Sal#Jao.E``",
"```Rao.E`Q#H#G.S`5#Z.V#.#Fay#2#u#u#u.F.z.B#y`M#W`l.J.S.c`B.Eao``",
"```Rao`y`t`BaB.S.X`l#W.7#y#G.T#B#B#B#x#Q.B`7`M.V`lae.Sah`6`Q.E``",
"```Rao.E`Q`6.8.S`5a..V#.ag.6`j#x#x#x.n`Aap#y#..V#Z.X.taB#w`t.y``",
"```Rao.E`t.K#G.S#7at.Vab`Mau.P#A#3#A`H#3`7#F.7#Wa.`5.SaB`GaC.E``",
"```Rao.EaC`Bacahaq.J`m`e#t`4#k.o.2.o.o`o`##t.R#aat#7ah.8`6aC.E``",
"```Rao.E`v`2al.c.S#7`c`..3`Lax`L`L`L`L`L#j.a`w.7#7.t.cal.d`v.E``",
"```Rao.p`van`G.8#5.t#7#P`X#b#b#b#b#b#b#p#U#D`M.Xaq`haB`u.v`v.p``",
"```R`y.pas#z#8alaB#5.S.X`p.G#p#p#p#p#p..#e`M#7aq.SaB`Zaf#fao.E``",
"```Rao.E`y#E`S#walaB#5.S`h`z#c#g#g#g#d#e#.aq.S#5.cal#w#S.A`y.p``",
"```Rao.p`y`v#E`2`u.Y.8`h#5#h`g#4`d#C#N`7.C#5.caB.Y`u`B#E`0`y.p``",
"```R`y.p`y.p`I.A`B`u`ual.8aB#h##`d.L#l`h.c.8ac`u`u.0.h#I.Eao.E``",
"```R.p`y.p`yaoaj.A.d#w#w.Yalal.Q.x`i`1acal.Y`u#w`6.h.5ao.Eao.E``",
"```R.p`y.p`y.p`yaj.q#S.0afaf#w`c`K.I#w`u#waf.0`2.`amas.yas.yas``",
"```Ras.yas.yas.yas#q`U`k#J.dadad.d.d.d#8#H#S.U.q`fao.Eao.Eao.E``",
"```R.p`y.p`y.p`y.p`y.p`f`U#r`k`S.w#K`S.w.``U.5#``y.p`y.p`y.p`y``",
"```Ras.yas.yas.yas.yas`yao`x`faA.5aaam.N#Iavas.yas.yas.yas.y.E``",
"```R.p`y.p`y.p`y.p`y.p`y.Easao.Eao.p`yasao.Eao.Eao.Eao.Eaoas.y``",
"```R`y.p`y.p`y.p`y.p`y.pao`y.p`y.p`y.p`y.p`y.p`y.p`y.p`y.p`y.p``",
"```````````````````````````````````````````````D`D``````````````"
};
