/* XPM */
static char * coat_vox_xpm[] = {
"32 32 570 2",
"  	c None",
". 	c #000000",
"+ 	c #737373",
"@ 	c #434343",
"# 	c #424242",
"$ 	c #434242",
"% 	c #454443",
"& 	c #454342",
"* 	c #3A3C3E",
"= 	c #30373B",
"- 	c #373B3F",
"; 	c #404246",
"> 	c #3F3F42",
", 	c #444444",
"' 	c #424342",
") 	c #414140",
"! 	c #424243",
"~ 	c #424345",
"{ 	c #373C41",
"] 	c #30373C",
"^ 	c #3D3E3E",
"/ 	c #625A4D",
"( 	c #665B4F",
"_ 	c #564C46",
": 	c #44413F",
"< 	c #312F2F",
"[ 	c #393A3A",
"} 	c #454545",
"| 	c #424241",
"1 	c #3F4041",
"2 	c #424344",
"3 	c #404040",
"4 	c #3D3733",
"5 	c #48413A",
"6 	c #564F49",
"7 	c #8C7D6B",
"8 	c #86705E",
"9 	c #3E3633",
"0 	c #1C1412",
"a 	c #575754",
"b 	c #7F8384",
"c 	c #444243",
"d 	c #2A2B2C",
"e 	c #444443",
"f 	c #434342",
"g 	c #3E4041",
"h 	c #3B3D3F",
"i 	c #4F4A46",
"j 	c #50443D",
"k 	c #7A6045",
"l 	c #9F7D56",
"m 	c #988E7E",
"n 	c #6F716F",
"o 	c #1D1F22",
"p 	c #3A302B",
"q 	c #5E4E3A",
"r 	c #73604E",
"s 	c #A59D8D",
"t 	c #A3A49D",
"u 	c #6A6B6A",
"v 	c #343636",
"w 	c #414241",
"x 	c #3F3F40",
"y 	c #353A3E",
"z 	c #33383D",
"A 	c #6D5B51",
"B 	c #706154",
"C 	c #766656",
"D 	c #866D5A",
"E 	c #9C9486",
"F 	c #7B8C8E",
"G 	c #2B2928",
"H 	c #58493E",
"I 	c #806C59",
"J 	c #8C745D",
"K 	c #896445",
"L 	c #896241",
"M 	c #887159",
"N 	c #A79A8B",
"O 	c #5F5A58",
"P 	c #3C3B3C",
"Q 	c #38393A",
"R 	c #45413D",
"S 	c #504A42",
"T 	c #896C54",
"U 	c #B18F77",
"V 	c #787774",
"W 	c #736A61",
"X 	c #848278",
"Y 	c #8FA0A1",
"Z 	c #413D38",
"` 	c #5F5752",
" .	c #7D7B72",
"..	c #70665B",
"+.	c #676359",
"@.	c #636561",
"#.	c #56595A",
"$.	c #393837",
"%.	c #47372E",
"&.	c #664B38",
"*.	c #433B38",
"=.	c #424445",
"-.	c #444545",
";.	c #373737",
">.	c #4F504D",
",.	c #6F7774",
"'.	c #967D66",
").	c #C79363",
"!.	c #797974",
"~.	c #7A8383",
"{.	c #868F8C",
"].	c #ABBDBD",
"^.	c #A9B3B0",
"/.	c #706C64",
"(.	c #757A78",
"_.	c #73726C",
":.	c #727571",
"<.	c #768585",
"[.	c #798788",
"}.	c #60696A",
"|.	c #505354",
"1.	c #3A3D40",
"2.	c #44362E",
"3.	c #453429",
"4.	c #3F3E3F",
"5.	c #3B3837",
"6.	c #A7ABA8",
"7.	c #A5B6B8",
"8.	c #AF815E",
"9.	c #766352",
"0.	c #586D75",
"a.	c #8A9494",
"b.	c #A5B5B4",
"c.	c #C1C7C6",
"d.	c #E1E1DD",
"e.	c #E8EDEB",
"f.	c #A3A5A2",
"g.	c #79807E",
"h.	c #A6AEAB",
"i.	c #B2B6AF",
"j.	c #8A908B",
"k.	c #707472",
"l.	c #5A5D5D",
"m.	c #474949",
"n.	c #34383C",
"o.	c #3A312B",
"p.	c #3A332E",
"q.	c #404244",
"r.	c #444445",
"s.	c #2D2D2D",
"t.	c #605E59",
"u.	c #D4E0E2",
"v.	c #BFB9AC",
"w.	c #8B5C3B",
"x.	c #48555B",
"y.	c #768384",
"z.	c #929E9D",
"A.	c #B2BAB8",
"B.	c #D9D8D3",
"C.	c #F8F6F2",
"D.	c #FFFFFF",
"E.	c #FAFCF8",
"F.	c #CDD3CF",
"G.	c #C6CAC5",
"H.	c #AAB0AB",
"I.	c #949991",
"J.	c #7C817C",
"K.	c #606564",
"L.	c #515453",
"M.	c #363739",
"N.	c #242424",
"O.	c #2E221D",
"P.	c #403E3E",
"Q.	c #434647",
"R.	c #323031",
"S.	c #747875",
"T.	c #B9BCB2",
"U.	c #A29181",
"V.	c #6A665E",
"W.	c #505F64",
"X.	c #7B8586",
"Y.	c #95A2A2",
"Z.	c #B5BBB7",
"`.	c #E4E0DB",
" +	c #FCFBF7",
".+	c #E9EAE3",
"++	c #CACDC7",
"@+	c #AAAFAD",
"#+	c #9A9C96",
"$+	c #83857E",
"%+	c #6A6F6B",
"&+	c #464A4A",
"*+	c #35322F",
"=+	c #614A3B",
"-+	c #634D38",
";+	c #4D433C",
">+	c #424346",
",+	c #424343",
"'+	c #3C3A3D",
")+	c #626665",
"!+	c #55483E",
"~+	c #676461",
"{+	c #B8C8C9",
"]+	c #788282",
"^+	c #6B777B",
"/+	c #A1ADAF",
"(+	c #C7CDC4",
"_+	c #E4E3D8",
":+	c #F4F2EF",
"<+	c #FBF8F5",
"[+	c #FFFCF6",
"}+	c #EBEBE5",
"|+	c #CACECA",
"1+	c #B8BCBB",
"2+	c #A8A8A1",
"3+	c #8D8980",
"4+	c #464A48",
"5+	c #69706C",
"6+	c #8E877C",
"7+	c #888072",
"8+	c #413C3B",
"9+	c #3A3331",
"0+	c #454343",
"a+	c #474344",
"b+	c #292322",
"c+	c #3E3E3E",
"d+	c #B4B6B1",
"e+	c #4C5352",
"f+	c #7A8382",
"g+	c #BABAAD",
"h+	c #DADACD",
"i+	c #EDEDE6",
"j+	c #FDF9F3",
"k+	c #DADAD7",
"l+	c #B5BCB9",
"m+	c #909795",
"n+	c #6D716F",
"o+	c #8E8C82",
"p+	c #9A948A",
"q+	c #525350",
"r+	c #737674",
"s+	c #B0BAB8",
"t+	c #A9B5B5",
"u+	c #676F6E",
"v+	c #2D302E",
"w+	c #2F2823",
"x+	c #423C39",
"y+	c #434443",
"z+	c #717573",
"A+	c #7E7973",
"B+	c #D9D6CE",
"C+	c #BEBFB9",
"D+	c #51514B",
"E+	c #5A5D58",
"F+	c #656863",
"G+	c #767773",
"H+	c #AFB0A8",
"I+	c #A2A7A0",
"J+	c #ABB5B3",
"K+	c #CED3D0",
"L+	c #A3AAA7",
"M+	c #797D7B",
"N+	c #433F3A",
"O+	c #62615B",
"P+	c #5C5C57",
"Q+	c #969894",
"R+	c #C3C9C6",
"S+	c #BABCB7",
"T+	c #555751",
"U+	c #272523",
"V+	c #2F2C28",
"W+	c #3F3B37",
"X+	c #444343",
"Y+	c #333232",
"Z+	c #797F7E",
"`+	c #989B95",
" @	c #8F8F87",
".@	c #989D98",
"+@	c #676763",
"@@	c #6A6D68",
"#@	c #676A67",
"$@	c #5D5E5D",
"%@	c #788080",
"&@	c #B6BAB5",
"*@	c #4C4A48",
"=@	c #7A7D7C",
"-@	c #696764",
";@	c #2E2B27",
">@	c #8D8F89",
",@	c #A6ADA5",
"'@	c #989991",
")@	c #4A4844",
"!@	c #272524",
"~@	c #343433",
"{@	c #3F3E3D",
"]@	c #3F3F3F",
"^@	c #454748",
"/@	c #746358",
"(@	c #585956",
"_@	c #686F6C",
":@	c #72726E",
"<@	c #696B69",
"[@	c #6D6F6B",
"}@	c #707371",
"|@	c #525150",
"1@	c #949893",
"2@	c #4D4D48",
"3@	c #4D4F4D",
"4@	c #7E837F",
"5@	c #4C4C4A",
"6@	c #747774",
"7@	c #43403D",
"8@	c #3C3A37",
"9@	c #616360",
"0@	c #747772",
"a@	c #7D7F79",
"b@	c #494745",
"c@	c #282727",
"d@	c #373735",
"e@	c #403F3E",
"f@	c #42423F",
"g@	c #423B38",
"h@	c #1C1B1C",
"i@	c #82837F",
"j@	c #757974",
"k@	c #646563",
"l@	c #6C6F6D",
"m@	c #504E4D",
"n@	c #706E6B",
"o@	c #62645D",
"p@	c #6B6C67",
"q@	c #929694",
"r@	c #9FA29D",
"s@	c #90918A",
"t@	c #3E3935",
"u@	c #3A3735",
"v@	c #353537",
"w@	c #414243",
"x@	c #585A58",
"y@	c #484543",
"z@	c #2F2928",
"A@	c #332F2C",
"B@	c #434142",
"C@	c #2F353B",
"D@	c #32312D",
"E@	c #3D2F2C",
"F@	c #696463",
"G@	c #959891",
"H@	c #8E8E87",
"I@	c #7E807A",
"J@	c #686966",
"K@	c #44403C",
"L@	c #858680",
"M@	c #959894",
"N@	c #D5D7D4",
"O@	c #EBECE9",
"P@	c #67645E",
"Q@	c #282724",
"R@	c #484744",
"S@	c #292524",
"T@	c #201F1D",
"U@	c #2D2D2E",
"V@	c #2E2520",
"W@	c #3A3634",
"X@	c #464749",
"Y@	c #454442",
"Z@	c #3F4142",
"`@	c #2E3139",
" #	c #514F4B",
".#	c #A39072",
"+#	c #6B5745",
"@#	c #251E1F",
"##	c #494846",
"$#	c #737471",
"%#	c #767873",
"&#	c #767976",
"*#	c #4B4E4E",
"=#	c #36393C",
"-#	c #72797A",
";#	c #909191",
">#	c #5A5958",
",#	c #282526",
"'#	c #393B3C",
")#	c #3A3836",
"!#	c #302A27",
"~#	c #221A15",
"{#	c #2A2520",
"]#	c #39383A",
"^#	c #3D3D3C",
"/#	c #464646",
"(#	c #3D4141",
"_#	c #313133",
":#	c #61564B",
"<#	c #B2A180",
"[#	c #4C4742",
"}#	c #373836",
"|#	c #272222",
"1#	c #2B2929",
"2#	c #424142",
"3#	c #3C3E41",
"4#	c #363E43",
"5#	c #454743",
"6#	c #35312A",
"7#	c #201F1F",
"8#	c #1F2120",
"9#	c #36383A",
"0#	c #353434",
"a#	c #282423",
"b#	c #282221",
"c#	c #2D221C",
"d#	c #383430",
"e#	c #46474A",
"f#	c #464748",
"g#	c #424141",
"h#	c #3F4141",
"i#	c #33363A",
"j#	c #72675D",
"k#	c #9A8871",
"l#	c #6D6860",
"m#	c #616A6E",
"n#	c #444949",
"o#	c #3A3A3A",
"p#	c #373534",
"q#	c #2F2D2A",
"r#	c #181B23",
"s#	c #111318",
"t#	c #725F44",
"u#	c #A08262",
"v#	c #6D5D4E",
"w#	c #4C4B48",
"x#	c #4A4B4B",
"y#	c #3D3D3A",
"z#	c #2D2827",
"A#	c #2C2B2A",
"B#	c #454544",
"C#	c #62564B",
"D#	c #9C9C94",
"E#	c #D5E0DF",
"F#	c #7E8586",
"G#	c #515959",
"H#	c #5D5F5D",
"I#	c #322F30",
"J#	c #2F3032",
"K#	c #181C20",
"L#	c #1F1512",
"M#	c #746049",
"N#	c #B19E81",
"O#	c #74645B",
"P#	c #4B4949",
"Q#	c #4F504F",
"R#	c #494949",
"S#	c #464545",
"T#	c #424542",
"U#	c #323230",
"V#	c #262322",
"W#	c #2B2522",
"X#	c #434545",
"Y#	c #464746",
"Z#	c #5C5750",
"`#	c #383935",
" $	c #919292",
".$	c #C7CDC8",
"+$	c #4C4E49",
"@$	c #3F4140",
"#$	c #383837",
"$$	c #151518",
"%$	c #211B18",
"&$	c #988C7B",
"*$	c #A49B8C",
"=$	c #595E60",
"-$	c #6C777A",
";$	c #4B4C4D",
">$	c #413F3F",
",$	c #3B3C3C",
"'$	c #37383A",
")$	c #2D2928",
"!$	c #271E17",
"~$	c #3D3735",
"{$	c #454546",
"]$	c #414242",
"^$	c #4C4C4B",
"/$	c #494948",
"($	c #2F3031",
"_$	c #3C3936",
":$	c #9A9790",
"<$	c #5C5A56",
"[$	c #2E2C2C",
"}$	c #222220",
"|$	c #1D120B",
"1$	c #695747",
"2$	c #9BA4A1",
"3$	c #DEECEE",
"4$	c #858B89",
"5$	c #525556",
"6$	c #61645F",
"7$	c #373636",
"8$	c #373838",
"9$	c #343434",
"0$	c #322F2E",
"a$	c #2D2623",
"b$	c #2E231F",
"c$	c #3F3936",
"d$	c #454547",
"e$	c #393838",
"f$	c #636565",
"g$	c #72716D",
"h$	c #868073",
"i$	c #676966",
"j$	c #302C2A",
"k$	c #211B17",
"l$	c #1D1611",
"m$	c #3E3831",
"n$	c #565450",
"o$	c #252323",
"p$	c #6B6967",
"q$	c #C4C5BF",
"r$	c #555550",
"s$	c #474A47",
"t$	c #3D3C3A",
"u$	c #2D2A28",
"v$	c #2F2724",
"w$	c #291F18",
"x$	c #302522",
"y$	c #423F3E",
"z$	c #464848",
"A$	c #3B3B3C",
"B$	c #474849",
"C$	c #6A6967",
"D$	c #585652",
"E$	c #28292B",
"F$	c #242221",
"G$	c #373432",
"H$	c #3E3D3C",
"I$	c #4E5051",
"J$	c #5C5E5C",
"K$	c #424140",
"L$	c #54514C",
"M$	c #93928A",
"N$	c #4F4D49",
"O$	c #322F2B",
"P$	c #332925",
"Q$	c #2B1E1A",
"R$	c #322823",
"S$	c #363431",
"T$	c #434344",
"U$	c #464647",
"V$	c #303234",
"W$	c #3A3939",
"X$	c #434444",
"Y$	c #3E3D3D",
"Z$	c #686A67",
"`$	c #838078",
" %	c #8A867A",
".%	c #444948",
"+%	c #272421",
"@%	c #29201D",
"#%	c #342B26",
"$%	c #3F3A38",
"%%	c #46484A",
"&%	c #414141",
"*%	c #3D3D3D",
"=%	c #3F3E3E",
"-%	c #5B5A57",
";%	c #242426",
">%	c #313030",
",%	c #3F3F3D",
"'%	c #434243",
")%	c #323334",
"!%	c #333436",
"~%	c #484A4B",
". . . . . . . . . . . . . . . . . . . . . . . . . . . . . . . . ",
". + + + + + + + + + + + + + + + + + + + + + + + + + + + + + + . ",
". + @ @ @ @ @ @ @ @ @ @ @ @ @ @ @ @ @ @ @ @ @ @ @ @ @ @ @ @ @ . ",
". + @ @ # # # # # # # # $ $ # % & * = - ; > # , # # # # # # # . ",
". + @ @ # # # # # # # ' ) ! ~ { ] ^ / ( _ : < [ } @ # # # # # . ",
". + @ @ # # # # # # | 1 2 3 4 5 6 7 8 9 0 a b c d # e # # # # . ",
". + @ @ # # # # # f g h i j k l m n o p q r s t u v w # # # # . ",
". + @ @ # # # ! x y z A B C D E F G H I J K L M N O P ! # # # . ",
". + @ @ # @ ' Q R S T U V W X Y Z `  ...+.@.#.$.%.&.*.=.# # # . ",
". + @ @ # -.;.>.,.'.).!.~.{.].^./.(._.:.<.[.}.|.1.2.3.4.-.# # . ",
". + @ @ e Q 5.6.7.8.9.0.a.b.c.d.e.f.g.h.i.j.k.l.m.n.o.p.q.# # . ",
". + @ @ r.s.t.u.v.w.x.y.z.A.B.C.D.E.F.G.H.I.J.K.L.M.N.O.P.Q.# . ",
". + @ @ ! R.S.T.U.V.W.X.Y.Z.`.D.D. +.+++@+#+$+%+&+*+=+-+;+>+,+. ",
". + @ @ w '+)+!+~+{+]+^+/+(+_+:+<+[+}+|+1+2+3+@.4+5+6+7+8+9+0+. ",
". + @ @ # ! a+b+c+D.d+e+f+g+h+i+j+k+l+m+n+o+p+q+r+s+t+u+v+w+x+. ",
". + @ @ # y+R.z+A+B+C+D+E+F+G+H+I+J+K+L+M+N+O+P+Q+R+S+T+U+V+W+. ",
". + @ @ # X+Y+Z+`+ @.@+@@@%+#@$@%@&@*@x =@-@;@>.>@,@'@)@!@~@{@. ",
". + @ @ # ,+]@^@/@(@_@:@<@[@}@|@1@2@3@4@5@6@7@8@9@0@a@b@c@d@e@. ",
". + @ @ # # ,+f@g@h@# i@j@k@l@m@n@o@p@q@r@s@t@u@v@w@x@y@z@A@B@. ",
". + @ @ # # e ) C@D@E@F@G@H@I@J@K@L@M@N@O@P@Q@R@S@T@U@*+V@W@X@. ",
". + @ @ # Y@Z@`@ #.#+#@###$#%#&#*#=#-#;#>#,#'#)#!#~#{#]#^#/#! . ",
". + @ @ e (#_#:#<#J [#}#|#1#2#3#4#5#6#7#8#9#0#a#b#c#d#e#f#! g#. ",
". + @ @ h#i#j#k#l#m#n#o#p#q#r#s#t#u#v#w#x#2#| y#S@z#A#x B## # . ",
". + @ @ M.C#D#E#F#G#H#I#J#K#L#M#N#O#P#Q#R#S#@ T#U#V#W#f X## # . ",
". + @ @ Y#Z#`# $.$+$@$#$$$%$&$*$=$-$;$>$3 ,$;.'$)$!$~${$]$# # . ",
". + @ @ ^$/$($_$:$<$[$}$|$1$2$3$4$5$6$7$8$9$0$a$b$c$d$w@| # # . ",
". + @ @ e$f$g$h$i$j$k$l$m$n$o$p$q$r$s$t$u$v$w$x$y$z$]$# # # # . ",
". + @ @ A$B$C$D$E$F$G$H$I$J$K$L$M$N$O$P$Q$R$S$T$U$w # # # # # . ",
". + @ @ , ^#v V$W$/#R#X$Y$Z$`$ %.%+%@%#%$%r.%%X$g## # # # # # . ",
". + @ @ # @ f } } @ &%@ *%=%-%Y@;%>%,%U$z$'%g## # # # # # # # . ",
". + @ @ # # # # # # # # -.]@)%!%, ~%z$2 &%g## # # # # # # # # . ",
". . . . . . . . . . . . . . . . . . . . . . . . . . . . . . . . "};
