/* XPM */
static char * coat_autopo_xpm[] = {
"32 32 345 2",
"  	c None",
". 	c #000000",
"+ 	c #737373",
"@ 	c #434343",
"# 	c #424242",
"$ 	c #454544",
"% 	c #686867",
"& 	c #515150",
"* 	c #747473",
"= 	c #FFFFFF",
"- 	c #6C6C6B",
"; 	c #D1D1D1",
"> 	c #474746",
", 	c #424241",
"' 	c #DDDDDD",
") 	c #6A6A69",
"! 	c #ADADAC",
"~ 	c #E7E7E7",
"{ 	c #9C9C9B",
"] 	c #5D5D5D",
"^ 	c #D0D0D0",
"/ 	c #C5C5C5",
"( 	c #DBDBDB",
"_ 	c #CECECE",
": 	c #6B6B6B",
"< 	c #383837",
"[ 	c #E8E8E8",
"} 	c #1E1E1E",
"| 	c #717171",
"1 	c #BABAB9",
"2 	c #1B1B1A",
"3 	c #767676",
"4 	c #A1A1A1",
"5 	c #181817",
"6 	c #7B7B7A",
"7 	c #919191",
"8 	c #757575",
"9 	c #3B3B3A",
"0 	c #8B8B8A",
"a 	c #B9B9B9",
"b 	c #8F8F8F",
"c 	c #656565",
"d 	c #979796",
"e 	c #252524",
"f 	c #A2A2A2",
"g 	c #818180",
"h 	c #282827",
"i 	c #2E2E2E",
"j 	c #999998",
"k 	c #727272",
"l 	c #6F6F6E",
"m 	c #C8C8C8",
"n 	c #535352",
"o 	c #DADADA",
"p 	c #676767",
"q 	c #484848",
"r 	c #323231",
"s 	c #838382",
"t 	c #4C4C4B",
"u 	c #2B2B2A",
"v 	c #5C5C5B",
"w 	c #7F7F7F",
"x 	c #353534",
"y 	c #8D8D8D",
"z 	c #4E4E4D",
"A 	c #3F3F3E",
"B 	c #707070",
"C 	c #838383",
"D 	c #444342",
"E 	c #3C3E40",
"F 	c #35383D",
"G 	c #32393C",
"H 	c #3D3041",
"I 	c #3E2A41",
"J 	c #3F2B42",
"K 	c #413543",
"L 	c #424143",
"M 	c #424542",
"N 	c #3C3F41",
"O 	c #33383C",
"P 	c #464341",
"Q 	c #5F574C",
"R 	c #795959",
"S 	c #578F44",
"T 	c #4DA33D",
"U 	c #467A3B",
"V 	c #414E3D",
"W 	c #402E42",
"X 	c #423644",
"Y 	c #424641",
"Z 	c #454443",
"` 	c #373B40",
" .	c #3B3C3D",
"..	c #6C5B4E",
"+.	c #8C7661",
"@.	c #948167",
"#.	c #A17573",
"$.	c #68AA53",
"%.	c #5DCC4D",
"&.	c #59B247",
"*.	c #54B542",
"=.	c #428437",
"-.	c #3D3C3E",
";.	c #443347",
">.	c #424541",
",.	c #3A3D41",
"'.	c #423F3F",
").	c #7F6A55",
"!.	c #907C69",
"~.	c #92806D",
"{.	c #988671",
"].	c #AA7F7D",
"^.	c #6AA354",
"/.	c #63CA52",
"(.	c #5DA94C",
"_.	c #5CAC4D",
":.	c #54A845",
"<.	c #479E35",
"[.	c #373B35",
"}.	c #433447",
"|.	c #434543",
"1.	c #434345",
"2.	c #3F4143",
"3.	c #3C3C3D",
"4.	c #7A6552",
"5.	c #8A7867",
"6.	c #917E6C",
"7.	c #9D8874",
"8.	c #A08F7A",
"9.	c #B18D89",
"0.	c #6FB35C",
"a.	c #6BD858",
"b.	c #67BF57",
"c.	c #5FAF50",
"d.	c #62B351",
"e.	c #539A44",
"f.	c #459732",
"g.	c #3C3B3C",
"h.	c #453C47",
"i.	c #444545",
"j.	c #393A3E",
"k.	c #605244",
"l.	c #847261",
"m.	c #8C7A69",
"n.	c #998672",
"o.	c #A28F7B",
"p.	c #A89983",
"q.	c #BF9A9A",
"r.	c #72AC5F",
"s.	c #65C257",
"t.	c #69BA58",
"u.	c #589E49",
"v.	c #5BAB4D",
"w.	c #4B8C40",
"x.	c #4D903E",
"y.	c #2F5F27",
"z.	c #403544",
"A.	c #444344",
"B.	c #434546",
"C.	c #3D4042",
"D.	c #72614E",
"E.	c #857364",
"F.	c #92806C",
"G.	c #9D8A76",
"H.	c #A79685",
"I.	c #B2A393",
"J.	c #CFA8AE",
"K.	c #7FBC6D",
"L.	c #74D363",
"M.	c #79CF66",
"N.	c #60A74F",
"O.	c #62B253",
"P.	c #57A24A",
"Q.	c #4F8941",
"R.	c #3F8831",
"S.	c #463E49",
"T.	c #444445",
"U.	c #4D453B",
"V.	c #776757",
"W.	c #867565",
"X.	c #93816D",
"Y.	c #9E8C77",
"Z.	c #AC9B8B",
"`.	c #B9A89C",
" +	c #DDB7BA",
".+	c #7BAE68",
"++	c #64B954",
"@+	c #6EB95E",
"#+	c #59994C",
"$+	c #549648",
"%+	c #549845",
"&+	c #417337",
"*+	c #3C7631",
"=+	c #2D2C2A",
"-+	c #463E48",
";+	c #454444",
">+	c #52473C",
",+	c #766656",
"'+	c #847464",
")+	c #917F6C",
"!+	c #9C8B78",
"~+	c #AC9A8D",
"{+	c #DCB6BD",
"]+	c #83B970",
"^+	c #6FC75D",
"/+	c #75C766",
"(+	c #63A956",
"_+	c #589D4B",
":+	c #58A34A",
"<+	c #467A3C",
"[+	c #437A35",
"}+	c #434141",
"|+	c #52453B",
"1+	c #746455",
"2+	c #817162",
"3+	c #8E7D6A",
"4+	c #988775",
"5+	c #A69486",
"6+	c #B1A293",
"7+	c #D3AFB3",
"8+	c #73A063",
"9+	c #5EA84F",
"0+	c #67AB57",
"a+	c #539348",
"b+	c #4B8441",
"c+	c #4D8D41",
"d+	c #3E6D35",
"e+	c #3B6B30",
"f+	c #6E5E51",
"g+	c #7C6D5D",
"h+	c #887866",
"i+	c #93816C",
"j+	c #9E8C7C",
"k+	c #A69787",
"l+	c #C1A09F",
"m+	c #6F9C5F",
"n+	c #5DAA52",
"o+	c #68AE58",
"p+	c #58954A",
"q+	c #4B8541",
"r+	c #4D8E41",
"s+	c #3D6835",
"t+	c #3A6630",
"u+	c #453F46",
"v+	c #3E362E",
"w+	c #66574A",
"x+	c #766757",
"y+	c #807161",
"z+	c #8A796A",
"A+	c #948271",
"B+	c #998A78",
"C+	c #B0908B",
"D+	c #618F53",
"E+	c #519C47",
"F+	c #5CA04D",
"G+	c #4C8540",
"H+	c #467C3C",
"I+	c #48813D",
"J+	c #36602F",
"K+	c #325A27",
"L+	c #37332F",
"M+	c #534539",
"N+	c #6C5E50",
"O+	c #776758",
"P+	c #817061",
"Q+	c #897767",
"R+	c #8C7E69",
"S+	c #A4827A",
"T+	c #547B45",
"U+	c #42853C",
"V+	c #4D8842",
"W+	c #3D6A34",
"X+	c #3F6C37",
"Y+	c #396731",
"Z+	c #2E4C28",
"`+	c #173912",
" @	c #3A3B3C",
".@	c #372D24",
"+@	c #5F5346",
"@@	c #6A5C4F",
"#@	c #756555",
"$@	c #7C6C5B",
"%@	c #7F7160",
"&@	c #91746C",
"*@	c #4C7240",
"=@	c #3E7F36",
"-@	c #48823C",
";@	c #3A6430",
">@	c #396730",
",@	c #335B2A",
"'@	c #284B23",
")@	c #0A2009",
"!@	c #443C44",
"~@	c #464645",
"{@	c #464849",
"]@	c #3C3228",
"^@	c #60554A",
"/@	c #66584B",
"(@	c #716051",
"_@	c #756556",
":@	c #866961",
"<@	c #446236",
"[@	c #366C30",
"}@	c #386530",
"|@	c #2E4F27",
"1@	c #32572B",
"2@	c #274122",
"3@	c #0A1907",
"4@	c #2C252C",
"5@	c #464748",
"6@	c #292522",
"7@	c #392C22",
"8@	c #574E43",
"9@	c #615448",
"0@	c #645849",
"a@	c #735B53",
"b@	c #3A552E",
"c@	c #2F6029",
"d@	c #2E5328",
"e@	c #2B4A25",
"f@	c #254320",
"g@	c #091708",
"h@	c #201E22",
"i@	c #454748",
"j@	c #2B2728",
"k@	c #291F17",
"l@	c #40342C",
"m@	c #4F463B",
"n@	c #5F4C46",
"o@	c #2D4326",
"p@	c #22451E",
"q@	c #1D341A",
"r@	c #11210D",
"s@	c #060907",
"t@	c #29242A",
"u@	c #3B3D3E",
"v@	c #272421",
"w@	c #231E19",
"x@	c #332623",
"y@	c #12160B",
"z@	c #030E00",
"A@	c #0C0E0C",
"B@	c #1F1D20",
"C@	c #443F44",
"D@	c #414141",
". . . . . . . . . . . . . . . . . . . . . . . . . . . . . . . . ",
". + + + + + + + + + + + + + + + + + + + + + + + + + + + + + + . ",
". + @ @ @ @ @ @ @ @ @ @ @ @ @ @ @ @ @ @ @ @ @ @ @ @ @ @ @ @ @ . ",
". + # $ $ $ $ $ $ % $ $ % & $ * & * * * & $ % $ $ $ $ $ $ $ @ . ",
". + # $ $ $ $ $ * = - $ ; > , ' ) ! ~ { ] ^ / ( % $ $ $ $ $ @ . ",
". + # $ $ $ $ $ ; _ : < [ } | 1 2 3 4 5 6 7 } 8 { 9 $ $ $ $ @ . ",
". + # $ $ $ $ 0 [ a b c / 5 d b e f g h ; c i 0 j h $ $ $ $ @ . ",
". + # $ $ $ $ [ k l m n o p [ q i ; n r d a s [ t u $ $ $ $ @ . ",
". + # $ $ $ v w 5 x w } - y z 5 A 0 } 9 $ B C t 5 A $ $ $ $ @ . ",
". + # $ $ $ $ A x $ $ r $ < u A $ $ r $ $ $ x i A $ $ $ $ $ @ . ",
". + # $ $ $ $ $ $ $ $ $ $ $ $ $ $ $ $ $ $ $ $ $ $ $ $ $ $ $ @ . ",
". + # $ $ $ $ $ $ $ $ D # E F G H I J K L M $ $ $ $ $ $ $ $ @ . ",
". + # $ $ $ $ $ $ $ D N O P Q R S T U V W X Y $ $ $ $ $ $ $ @ . ",
". + # $ $ $ $ $ $ Z `  ...+.@.#.$.%.&.*.=.-.;.>.$ $ $ $ $ $ @ . ",
". + @ $ $ $ $ $ $ ,.'.).!.~.{.].^./.(._.:.<.[.}.|.$ $ $ $ $ @ . ",
". + 1.$ $ $ $ $ 2.3.4.5.6.7.8.9.0.a.b.c.d.e.f.g.h.$ $ $ $ $ @ . ",
". + i.$ $ $ $ $ j.k.l.m.n.o.p.q.r.s.t.u.v.w.x.y.z.A.$ $ $ $ @ . ",
". + B.$ $ $ $ $ C.D.E.F.G.H.I.J.K.L.M.N.O.P.Q.R.z.S.$ $ $ $ @ . ",
". + T.$ $ $ $ C.U.V.W.X.Y.Z.`. +.+++@+#+$+%+&+*+=+-+$ $ $ $ @ . ",
". + ;+$ $ $ $ C.>+,+'+)+!+~+`.{+]+^+/+(+_+:+<+[+=+C.$ $ $ $ @ . ",
". + }+$ $ $ $ C.|+1+2+3+4+5+6+7+8+9+0+a+b+c+d+e+=+C.$ $ $ $ @ . ",
". + # $ $ $ $ C.C.f+g+h+i+j+k+l+m+n+o+p+q+r+s+t+=+u+$ $ $ $ @ . ",
". + # $ $ $ $ $ v+w+x+y+z+A+B+C+D+E+F+G+H+I+J+K+=+$ $ $ $ $ @ . ",
". + # $ $ $ $ $ L+M+N+O+P+Q+R+S+T+U+V+W+X+Y+Z+`+=+$ $ $ $ $ @ . ",
". + # $ $ $ $ $  @.@+@@@#@$@%@&@*@=@-@;@>@,@'@)@!@~@$ $ $ $ @ . ",
". + # $ $ $ $ $ {@=+]@^@/@(@_@:@<@[@}@|@1@2@3@4@$ $ $ $ $ $ @ . ",
". + # $ $ $ $ $ $ 5@6@7@8@9@0@a@b@c@d@e@f@g@h@$ $ $ $ $ $ $ @ . ",
". + $ $ $ $ $ $ $ $ i@j@k@l@m@n@o@p@q@r@s@t@$ $ $ $ $ $ $ $ @ . ",
". + $ $ $ $ $ $ $ $ $ $ u@v@w@x@y@z@A@B@C@$ $ $ $ $ $ $ $ $ @ . ",
". + $ $ $ $ $ $ $ $ $ $ $ $ $ $ $ $ $ $ $ $ $ $ $ $ $ $ $ $ @ . ",
". + # # # # # # # # D@D@$ $ $ $ $ $ $ $ $ D@# # # # # # # # @ . ",
". . . . . . . . . . . . . . . . . . . . . . . . . . . . . . . . "};
