/* XPM */
static char * coat_voxcombine_xpm[] = {
"32 32 487 2",
"  	c None",
". 	c #000000",
"+ 	c #737373",
"@ 	c #434343",
"# 	c #404040",
"$ 	c #424242",
"% 	c #434242",
"& 	c #434344",
"* 	c #414141",
"= 	c #3A3D3E",
"- 	c #3F4142",
"; 	c #424344",
"> 	c #403F3F",
", 	c #404041",
"' 	c #3A3A3D",
") 	c #3B3D3E",
"! 	c #615A50",
"~ 	c #534B43",
"{ 	c #423E3D",
"] 	c #3E3E3E",
"^ 	c #3F3F3F",
"/ 	c #3B3D40",
"( 	c #3F3F40",
"_ 	c #4E4640",
": 	c #725A41",
"< 	c #887E6E",
"[ 	c #5E5853",
"} 	c #3C3029",
"| 	c #5F4F3E",
"1 	c #978E82",
"2 	c #676663",
"3 	c #393B3C",
"4 	c #3D3D3D",
"5 	c #3F3E3F",
"6 	c #393A3A",
"7 	c #4C4744",
"8 	c #7E6B5D",
"9 	c #726356",
"0 	c #908575",
"a 	c #696F6C",
"b 	c #46403D",
"c 	c #716253",
"d 	c #77634E",
"e 	c #6D5947",
"f 	c #6F6357",
"g 	c #4D433E",
"h 	c #353636",
"i 	c #383838",
"j 	c #393939",
"k 	c #3A3A3A",
"l 	c #3B3B3B",
"m 	c #424444",
"n 	c #6E6E67",
"o 	c #A8815E",
"p 	c #888278",
"q 	c #818A89",
"r 	c #A3B0AF",
"s 	c #757672",
"t 	c #676763",
"u 	c #6A6C68",
"v 	c #677272",
"w 	c #4A5254",
"x 	c #302F2F",
"y 	c #372A22",
"z 	c #312D2C",
"A 	c #353737",
"B 	c #323435",
"C 	c #353535",
"D 	c #373737",
"E 	c #3C3C3C",
"F 	c #323130",
"G 	c #8D9494",
"H 	c #BFB5A6",
"I 	c #765D4A",
"J 	c #697B80",
"K 	c #A2AEAE",
"L 	c #D0D2CF",
"M 	c #DADBDA",
"N 	c #999D9B",
"O 	c #878C89",
"P 	c #767A76",
"Q 	c #525554",
"R 	c #393C3C",
"S 	c #212223",
"T 	c #292B2D",
"U 	c #40403E",
"V 	c #685E4F",
"W 	c #554C42",
"X 	c #413C39",
"Y 	c #3C3C3D",
"Z 	c #9A9D97",
"` 	c #A09485",
" .	c #585F5F",
"..	c #7A878A",
"+.	c #AAB0AD",
"@.	c #D3D1CD",
"#.	c #D0D0D0",
"$.	c #C1C1BD",
"%.	c #878885",
"&.	c #5D5F5D",
"*.	c #4A4B4A",
"=.	c #3F3C3A",
"-.	c #544434",
";.	c #6B5A48",
">.	c #80796D",
",.	c #5B514A",
"'.	c #2C2321",
").	c #3E352C",
"!.	c #84847E",
"~.	c #707271",
"{.	c #383A3B",
"].	c #3A3B3A",
"^.	c #464648",
"/.	c #3D3733",
"(.	c #757473",
"_.	c #B6BDBD",
":.	c #5E6869",
"<.	c #A0A49C",
"[.	c #BCBBB3",
"}.	c #BDBBB7",
"|.	c #9FA09D",
"1.	c #5F6363",
"2.	c #424244",
"3.	c #5F544B",
"4.	c #645348",
"5.	c #876D53",
"6.	c #9B9483",
"7.	c #555B5B",
"8.	c #332C29",
"9.	c #685647",
"0.	c #7E644A",
"a.	c #8B6B4E",
"b.	c #998A76",
"c.	c #857F78",
"d.	c #3E3F3F",
"e.	c #3C3B3B",
"f.	c #4B4C4D",
"g.	c #969590",
"h.	c #BDBDB5",
"i.	c #50524D",
"j.	c #555854",
"k.	c #6A6B66",
"l.	c #656765",
"m.	c #494947",
"n.	c #514C44",
"o.	c #8B6F58",
"p.	c #83776C",
"q.	c #6E675F",
"r.	c #87877F",
"s.	c #6C7676",
"t.	c #706961",
"u.	c #71665A",
"v.	c #69645A",
"w.	c #5D5953",
"x.	c #453E39",
"y.	c #5A493C",
"z.	c #544237",
"A.	c #4E504F",
"B.	c #77726A",
"C.	c #696D69",
"D.	c #5E5F5B",
"E.	c #4E514E",
"F.	c #3F403F",
"G.	c #4A4A48",
"H.	c #6C7271",
"I.	c #98795E",
"J.	c #957A5F",
"K.	c #6B7779",
"L.	c #848F8D",
"M.	c #A9B8B8",
"N.	c #9A9D99",
"O.	c #757673",
"P.	c #6B6D69",
"Q.	c #787D7A",
"R.	c #7C8989",
"S.	c #657072",
"T.	c #4B4F51",
"U.	c #373738",
"V.	c #413329",
"W.	c #3D3835",
"X.	c #3E3E3F",
"Y.	c #434342",
"Z.	c #434341",
"`.	c #2D2B2B",
" +	c #2C2A2B",
".+	c #666663",
"++	c #575855",
"@+	c #373836",
"#+	c #828584",
"$+	c #B0B6B0",
"%+	c #8E674C",
"&+	c #535C5D",
"*+	c #788689",
"=+	c #A2ADAC",
"-+	c #C9CBC8",
";+	c #F6F6F3",
">+	c #D7D9D8",
",+	c #99A09D",
"'+	c #AEB4AF",
")+	c #9DA29B",
"!+	c #787C78",
"~+	c #5B5E5E",
"{+	c #454849",
"]+	c #2B2E30",
"^+	c #2A2320",
"/+	c #34373B",
"(+	c #57534C",
"_+	c #5C4C3C",
":+	c #363131",
"<+	c #4C4C4A",
"[+	c #424241",
"}+	c #9AA09C",
"|+	c #ADA194",
"1+	c #615449",
"2+	c #54646A",
"3+	c #899393",
"4+	c #A8AFAD",
"5+	c #E2DDD9",
"6+	c #FFFFFF",
"7+	c #E7E8E1",
"8+	c #BCC0BB",
"9+	c #9A9F9A",
"0+	c #83867F",
"a+	c #646A66",
"b+	c #404343",
"c+	c #37302C",
"d+	c #4B382A",
"e+	c #473E38",
"f+	c #3F4041",
"g+	c #424343",
"h+	c #393C3E",
"i+	c #60554B",
"j+	c #8D7F6A",
"k+	c #56514A",
"l+	c #242423",
"m+	c #211F1F",
"n+	c #404144",
"o+	c #5B554E",
"p+	c #645E59",
"q+	c #9BA8A9",
"r+	c #657071",
"s+	c #838E91",
"t+	c #BCC3BB",
"u+	c #E5E3D9",
"v+	c #FCF8F5",
"w+	c #FFFCF6",
"x+	c #E3E3DC",
"y+	c #B8BDBA",
"z+	c #A6A8A5",
"A+	c #929087",
"B+	c #61625D",
"C+	c #464C4A",
"D+	c #74736C",
"E+	c #877D6F",
"F+	c #47413C",
"G+	c #3D3B3B",
"H+	c #3B3C3D",
"I+	c #B2B1A9",
"J+	c #7B8282",
"K+	c #454A4B",
"L+	c #2C2C2C",
"M+	c #161719",
"N+	c #3B3A3A",
"O+	c #383332",
"P+	c #4B4A49",
"Q+	c #EDEEEB",
"R+	c #818480",
"S+	c #525A59",
"T+	c #999A92",
"U+	c #C2C2B8",
"V+	c #E5E4DB",
"W+	c #D1D2CD",
"X+	c #BCC3C0",
"Y+	c #8C9392",
"Z+	c #6B6C67",
"`+	c #868178",
" @	c #5C5B56",
".@	c #828684",
"+@	c #B6C0BF",
"@@	c #7A8281",
"#@	c #2C2D2B",
"$@	c #35312E",
"%@	c #474747",
"&@	c #494743",
"*@	c #565656",
"=@	c #969793",
"-@	c #3B3B39",
";@	c #1E1D1C",
">@	c #2C251F",
",@	c #42413F",
"'@	c #595C5B",
")@	c #8E8F8A",
"!@	c #B6B5AD",
"~@	c #888A84",
"{@	c #51524E",
"]@	c #5C605D",
"^@	c #6A6B67",
"/@	c #7F837E",
"(@	c #9EA7A4",
"_@	c #959895",
":@	c #737876",
"<@	c #656764",
"[@	c #403D38",
"}@	c #54534F",
"|@	c #999C99",
"1@	c #B7BCB5",
"2@	c #6A6964",
"3@	c #242322",
"4@	c #353331",
"5@	c #555757",
"6@	c #6E6B64",
"7@	c #565551",
"8@	c #24211E",
"9@	c #26211D",
"0@	c #413D38",
"a@	c #3C3D3D",
"b@	c #484B4C",
"c@	c #766F67",
"d@	c #676864",
"e@	c #707570",
"f@	c #686B67",
"g@	c #636464",
"h@	c #7A7D79",
"i@	c #444542",
"j@	c #555756",
"k@	c #646564",
"l@	c #4C4A47",
"m@	c #3B3937",
"n@	c #70726E",
"o@	c #858982",
"p@	c #5A5854",
"q@	c #292727",
"r@	c #393938",
"s@	c #444545",
"t@	c #4A4A49",
"u@	c #2F2F2F",
"v@	c #3B3938",
"w@	c #414041",
"x@	c #494B4A",
"y@	c #474543",
"z@	c #434340",
"A@	c #282522",
"B@	c #1F1E1F",
"C@	c #5A5A58",
"D@	c #7D807B",
"E@	c #686A67",
"F@	c #616361",
"G@	c #5B5857",
"H@	c #64645E",
"I@	c #666863",
"J@	c #969997",
"K@	c #969893",
"L@	c #54514D",
"M@	c #33302E",
"N@	c #363637",
"O@	c #4B4D4D",
"P@	c #4C4B49",
"Q@	c #302B2A",
"R@	c #3C3B3A",
"S@	c #3D3D3E",
"T@	c #272828",
"U@	c #28292B",
"V@	c #473F37",
"W@	c #483A37",
"X@	c #70706D",
"Y@	c #8A8B84",
"Z@	c #7B7D78",
"`@	c #565652",
" #	c #585854",
".#	c #8C918E",
"+#	c #CFD1CE",
"@#	c #989693",
"##	c #2E2C29",
"$#	c #3B3A38",
"%#	c #252220",
"&#	c #21201E",
"*#	c #32302F",
"=#	c #363230",
"-#	c #303030",
";#	c #303032",
">#	c #796E5D",
",#	c #957F64",
"'#	c #423933",
")#	c #262425",
"!#	c #4A4948",
"~#	c #61615E",
"{#	c #4F5456",
"]#	c #2E3538",
"^#	c #484B4A",
"/#	c #4C4C4C",
"(#	c #292829",
"_#	c #302D2C",
":#	c #282120",
"<#	c #2A231C",
"[#	c #786959",
"}#	c #887C69",
"|#	c #62625F",
"1#	c #3C3F3E",
"2#	c #322F2E",
"3#	c #262422",
"4#	c #161921",
"5#	c #2D2B28",
"6#	c #7A6851",
"7#	c #5C4D3E",
"8#	c #313130",
"9#	c #383A3A",
"0#	c #3D3C3C",
"a#	c #33312F",
"b#	c #282222",
"c#	c #302C2A",
"d#	c #686158",
"e#	c #B9BDB6",
"f#	c #8B9292",
"g#	c #4E5758",
"h#	c #474847",
"i#	c #2D2C2E",
"j#	c #181B1E",
"k#	c #2A211B",
"l#	c #806E56",
"m#	c #8D7C69",
"n#	c #534E4B",
"o#	c #4C4D4B",
"p#	c #464645",
"q#	c #3F4140",
"r#	c #2E2D2B",
"s#	c #2E2B2A",
"t#	c #3E3E3D",
"u#	c #4A4949",
"v#	c #3F3C38",
"w#	c #505152",
"x#	c #ACAFAB",
"y#	c #52534F",
"z#	c #1B191A",
"A#	c #2E2620",
"B#	c #A7A194",
"C#	c #92948E",
"D#	c #576164",
"E#	c #505354",
"F#	c #3B393A",
"G#	c #3A3B3B",
"H#	c #333233",
"I#	c #2E2827",
"J#	c #3B3836",
"K#	c #4F5051",
"L#	c #514E48",
"M#	c #78766F",
"N#	c #43403D",
"O#	c #1C1816",
"P#	c #211912",
"Q#	c #554B40",
"R#	c #6E7474",
"S#	c #B0B6B5",
"T#	c #6C6E6A",
"U#	c #4D4E4C",
"V#	c #373736",
"W#	c #2F2E2D",
"X#	c #2D2724",
"Y#	c #2E2825",
"Z#	c #3C3837",
"`#	c #383839",
" $	c #595A59",
".$	c #706D66",
"+$	c #3B3C3A",
"@$	c #211F1E",
"#$	c #2D2926",
"$$	c #403F3D",
"%$	c #515352",
"&$	c #2D2A2A",
"*$	c #7A7871",
"=$	c #76756E",
"-$	c #33312D",
";$	c #302824",
">$	c #2B221E",
",$	c #322D29",
"'$	c #353738",
")$	c #333334",
"!$	c #5A5C59",
"~$	c #7B7970",
"{$	c #64645D",
"]$	c #2E2E2D",
"^$	c #27201D",
"/$	c #362C29",
"($	c #3D3A39",
"_$	c #333333",
":$	c #2E2E2F",
"<$	c #3D3E3D",
"[$	c #343535",
". . . . . . . . . . . . . . . . . . . . . . . . . . . . . . . . ",
". + + + + + + + + + + + + + + + + + + + + + + + + + + + + + + . ",
". + @ # # # # # # # # # # # # # # # # # # # # # # # # # # # # . ",
". + @ @ $ $ $ $ % @ & * = - ; > * * $ $ $ # # # # # # # # # # . ",
". + @ @ $ $ $ $ * , ' ) ! ~ { ; ] * ^ # * # # # # # # # # # # . ",
". + @ @ $ % $ / ( _ : < [ } | 1 2 3 ] 4 4 ] ^ ^ # # # # # # # . ",
". + @ @ @ 5 6 7 8 9 0 a b c d e f g h i j k l 4 ] ^ ^ # # # # . ",
". + @ @ ( m n o p q r s t u v w x y z A B C D i k E ] # # # # . ",
". + @ @ F G H I J K L M N O P Q R S T U V W X Y C j 4 ^ # # # . ",
". + @ , E Z `  ...+.@.#.$.%.&.*.=.-.;.>.,.'.).!.~.{.].^ # # # . ",
". + @ * ^./.(._.:.<.[.}.|.1.2.3.4.5.6.7.8.9.0.a.b.c.d.4 ^ # # . ",
". + @ @ e.f.g.h.i.j.k.l.m.n.o.p.q.r.s.X t.u.v.w.x.y.z.E ^ # # . ",
". + @ @ ] A.B.C.D.E.F.G.H.I.J.K.L.M.N.O.P.Q.R.S.T.U.V.W.X.# # . ",
". + @ % Y.Z.`. +.+++@+#+$+%+&+*+=+-+;+>+,+'+)+!+~+{+]+^+l ^ # . ",
". + @ @ Y./+(+_+:+<+[+}+|+1+2+3+4+5+6+6+7+8+9+0+a+b+c+d+e+f+# . ",
". + @ g+h+i+j+k+l+m+n+o+p+q+r+s+t+u+v+w+x+y+z+A+B+C+D+E+F+G+# . ",
". + @ H+k+I+J+K+L+M+N+O+P+Q+R+S+T+U+V+W+X+Y+Z+`+ @.@+@@@#@$@# . ",
". + @ %@&@*@=@-@;@>@,@'@)@!@~@{@]@^@/@(@_@:@<@[@}@|@1@2@3@4@# . ",
". + @ ] 5@6@7@8@9@0@a@b@c@d@e@d@f@&.g@h@i@j@k@l@m@n@o@p@q@r@# . ",
". + @ , s@t@u@v@w@x@y@z@A@B@C@D@E@F@G@H@I@J@K@L@M@N@O@P@Q@R@# . ",
". + @ # # S@* # # l R@T@U@V@W@X@Y@Z@`@ #.#+#@###$#%#&#*#=## # . ",
". + @ # ^ ] ] # # 4 -#;#>#,#'#)#!#~#{#]#^#/#(#;#_#:#<#j # # # . ",
". + @ # ^ E ] # ^ i j [#}#|#1#2#3#4#5#6#7#8#9#0#a#b#c#Y # # # . ",
". + @ # ] 4 # # ^ j d#e#f#g#h#i#j#k#l#m#n#o#p#w@q#r#s#t## # # . ",
". + @ # ^ ^ # # ^ u#v#w#x#y#D z#A#B#C#D#E#F#G#h H#I#J## # # # . ",
". + @ # # # # # t#@ K#L#M#N#O#P#Q#R#S#T#U#V#W#X#Y#Z## # # # # . ",
". + @ # # # # # ^ `# $.$+$@$#$$$%$&$*$=$-$;$>$,$e.# # # # # # . ",
". + @ # # # # # # ^ E '$)$^ l U.!$~${$]$^$/$($# # # # # # # # . ",
". + @ # # # # # # # # ^ ] E j D l P@_$:$<$# # # # # # # # # # . ",
". + @ # # # # # # # # # ^ ] 4 E l [$i ^ # # # # # # # # # # # . ",
". + @ # # # # # # # # # # ^ ^ ^ ^ ^ # # # # # # # # # # # # # . ",
". . . . . . . . . . . . . . . . . . . . . . . . . . . . . . . . "};
