/* XPM */
static char * coat_retopo_xpm[] = {
"32 32 594 2",
"  	c None",
". 	c #000000",
"+ 	c #737373",
"@ 	c #434343",
"# 	c #424242",
"$ 	c #434342",
"% 	c #444342",
"& 	c #444243",
"* 	c #3F4141",
"= 	c #3E3F42",
"- 	c #413744",
"; 	c #413942",
"> 	c #434443",
", 	c #424642",
"' 	c #424342",
") 	c #434242",
"! 	c #464443",
"~ 	c #3F4041",
"{ 	c #37393F",
"] 	c #2D3A3B",
"^ 	c #35333F",
"/ 	c #3F1F43",
"( 	c #3D2242",
"_ 	c #402943",
": 	c #403342",
"< 	c #424442",
"[ 	c #454242",
"} 	c #3B3F41",
"| 	c #30373D",
"1 	c #32363C",
"2 	c #424340",
"3 	c #57474A",
"4 	c #5A5247",
"5 	c #43843A",
"6 	c #49773E",
"7 	c #3E513A",
"8 	c #413C40",
"9 	c #401E44",
"0 	c #423344",
"a 	c #424742",
"b 	c #454342",
"c 	c #404242",
"d 	c #2E373F",
"e 	c #35383C",
"f 	c #5C4E45",
"g 	c #806B57",
"h 	c #88795D",
"i 	c #A3776E",
"j 	c #877A62",
"k 	c #4ED93F",
"l 	c #62CB49",
"m 	c #50B43C",
"n 	c #4EB33B",
"o 	c #3F7635",
"p 	c #40453C",
"q 	c #3D1844",
"r 	c #433B44",
"s 	c #424740",
"t 	c #454343",
"u 	c #3E4143",
"v 	c #2D323B",
"w 	c #4E4840",
"x 	c #816754",
"y 	c #907865",
"z 	c #917E68",
"A 	c #8B7F66",
"B 	c #9C7B74",
"C 	c #877366",
"D 	c #51C148",
"E 	c #67BF57",
"F 	c #539948",
"G 	c #62B74E",
"H 	c #52B542",
"I 	c #45A537",
"J 	c #3C6B34",
"K 	c #412546",
"L 	c #463849",
"M 	c #42473F",
"N 	c #3F4142",
"O 	c #2B323C",
"P 	c #5C4F44",
"Q 	c #8B735B",
"R 	c #897968",
"S 	c #8A7B69",
"T 	c #93806E",
"U 	c #94846E",
"V 	c #AC847D",
"W 	c #947E6C",
"X 	c #4FC545",
"Y 	c #70CC5B",
"Z 	c #60B54E",
"` 	c #58A448",
" .	c #60B451",
"..	c #519844",
"+.	c #54BF40",
"@.	c #387D2B",
"#.	c #3C1E40",
"$.	c #453948",
"%.	c #414243",
"&.	c #30363F",
"*.	c #594A40",
"=.	c #89735C",
"-.	c #867566",
";.	c #8E7A69",
">.	c #96826F",
",.	c #9C8874",
"'.	c #998C75",
").	c #B28D88",
"!.	c #978975",
"~.	c #4CBF42",
"{.	c #6FC459",
"].	c #68C055",
"^.	c #519344",
"/.	c #5FB04F",
"(.	c #5AA84B",
"_.	c #4B7D3E",
":.	c #50AA3B",
"<.	c #2E6720",
"[.	c #3F2945",
"}.	c #463F46",
"|.	c #353C40",
"1.	c #47403C",
"2.	c #7F6952",
"3.	c #847265",
"4.	c #8A7867",
"5.	c #94816E",
"6.	c #9C8773",
"7.	c #A28E7A",
"8.	c #9F937B",
"9.	c #B6968E",
"0.	c #9B967D",
"a.	c #5BDA50",
"b.	c #79DA62",
"c.	c #73DA63",
"d.	c #64B752",
"e.	c #64B855",
"f.	c #72D05A",
"g.	c #51A044",
"h.	c #5C9E4C",
"i.	c #50B23B",
"j.	c #34572A",
"k.	c #462F4C",
"l.	c #3B373C",
"m.	c #6A5845",
"n.	c #7E6F5E",
"o.	c #857565",
"p.	c #917E6B",
"q.	c #988571",
"r.	c #9F8C79",
"s.	c #A59480",
"t.	c #A69A81",
"u.	c #C4A29E",
"v.	c #A69486",
"w.	c #48B03E",
"x.	c #6AAF5A",
"y.	c #67B157",
"z.	c #57A149",
"A.	c #518C43",
"B.	c #549B48",
"C.	c #509A44",
"D.	c #3C6E33",
"E.	c #518D42",
"F.	c #296A1D",
"G.	c #323436",
"H.	c #483F4A",
"I.	c #424241",
"J.	c #3B3F42",
"K.	c #4A4239",
"L.	c #74624E",
"M.	c #7F6F61",
"N.	c #8A7966",
"O.	c #94816D",
"P.	c #9C8875",
"Q.	c #A2917E",
"R.	c #AB9A88",
"S.	c #ADA18C",
"T.	c #CCAAAC",
"U.	c #B2A394",
"V.	c #5ED452",
"W.	c #82D26F",
"X.	c #7FD76C",
"Y.	c #6FC35C",
"Z.	c #5DA14D",
"`.	c #64B655",
" +	c #64BC53",
".+	c #498740",
"++	c #558D46",
"@+	c #47953A",
"#+	c #2A5022",
"$+	c #46354E",
"%+	c #434243",
"&+	c #424341",
"*+	c #424343",
"=+	c #393B3D",
"-+	c #584E3D",
";+	c #7A6957",
">+	c #817061",
",+	c #8D7B69",
"'+	c #96836F",
")+	c #9D8B76",
"!+	c #A59581",
"~+	c #B09E91",
"{+	c #B2A698",
"]+	c #DAB5B7",
"^+	c #B8AA9E",
"/+	c #56C24C",
"(+	c #7CC765",
"_+	c #73C863",
":+	c #6CBD5A",
"<+	c #549347",
"[+	c #5EA751",
"}+	c #5FAF50",
"|+	c #4F8F40",
"1+	c #467C38",
"2+	c #509542",
"3+	c #2A611B",
"4+	c #3A3B3D",
"5+	c #47404A",
"6+	c #404246",
"7+	c #3B3B37",
"8+	c #625142",
"9+	c #77695B",
"0+	c #817261",
"a+	c #8D7B6A",
"b+	c #9D8C76",
"c+	c #A79584",
"d+	c #B4A195",
"e+	c #B4A897",
"f+	c #DFBDBC",
"g+	c #BFAEA0",
"h+	c #4AA73D",
"i+	c #6FB45F",
"j+	c #68AD5A",
"k+	c #68B058",
"l+	c #4F8846",
"m+	c #4F8E45",
"n+	c #549445",
"o+	c #4B8A40",
"p+	c #36602F",
"q+	c #42743A",
"r+	c #24551A",
"s+	c #2B3829",
"t+	c #4A414C",
"u+	c #454445",
"v+	c #434345",
"w+	c #3F4146",
"x+	c #3F3B36",
"y+	c #625445",
"z+	c #756757",
"A+	c #807160",
"B+	c #8B7A69",
"C+	c #94826E",
"D+	c #9B8A78",
"E+	c #A69485",
"F+	c #B2A095",
"G+	c #B5A899",
"H+	c #DDB9BD",
"I+	c #C0B2A5",
"J+	c #5FC64F",
"K+	c #81CD6D",
"L+	c #76C967",
"M+	c #75CA66",
"N+	c #5E9F51",
"O+	c #5CA34F",
"P+	c #5CA84D",
"Q+	c #539F4A",
"R+	c #436F39",
"S+	c #4D833D",
"T+	c #326B26",
"U+	c #273B24",
"V+	c #4C3E4D",
"W+	c #484348",
"X+	c #444545",
"Y+	c #3E4145",
"Z+	c #3F3932",
"`+	c #655446",
" @	c #746556",
".@	c #7E6F5F",
"+@	c #897867",
"@@	c #92806E",
"#@	c #988877",
"$@	c #A29082",
"%@	c #AE9C8F",
"&@	c #B0A493",
"*@	c #D6B4B7",
"=@	c #B8AAA2",
"-@	c #4EB142",
";@	c #76B961",
">@	c #6BB55C",
",@	c #6AB75A",
"'@	c #519347",
")@	c #549447",
"!@	c #539545",
"~@	c #529944",
"{@	c #3E6C32",
"]@	c #457939",
"^@	c #346A29",
"/@	c #1F381C",
"(@	c #48404C",
"_@	c #49444B",
":@	c #434546",
"<@	c #3F4246",
"[@	c #3B3633",
"}@	c #615143",
"|@	c #716356",
"1@	c #7C6D5D",
"2@	c #867666",
"3@	c #8E7E68",
"4@	c #968470",
"5@	c #9F8C7D",
"6@	c #A79687",
"7@	c #A99D8B",
"8@	c #D1AFAB",
"9@	c #AE9D92",
"0@	c #3F8D35",
"a@	c #649C58",
"b@	c #5D964F",
"c@	c #5C9D4C",
"d@	c #47793F",
"e@	c #46783D",
"f@	c #437D3B",
"g@	c #477E3C",
"h@	c #32522C",
"i@	c #375F30",
"j@	c #2B5321",
"k@	c #152513",
"l@	c #4B434D",
"m@	c #4B484C",
"n@	c #444445",
"o@	c #414447",
"p@	c #373530",
"q@	c #564A3D",
"r@	c #6F5E52",
"s@	c #786959",
"t@	c #807161",
"u@	c #91806A",
"v@	c #998674",
"w@	c #A08F80",
"x@	c #A19583",
"y@	c #BFA09C",
"z@	c #A49888",
"A@	c #4FAA46",
"B@	c #6DB45E",
"C@	c #68B059",
"D@	c #6BB558",
"E@	c #548D47",
"F@	c #4D8C43",
"G@	c #529345",
"H@	c #4B8E40",
"I@	c #396032",
"J@	c #447239",
"K@	c #2A551F",
"L@	c #1F2F1C",
"M@	c #50464F",
"N@	c #4B464B",
"O@	c #454444",
"P@	c #454849",
"Q@	c #333431",
"R@	c #4D3F33",
"S@	c #695B50",
"T@	c #736454",
"U@	c #7D6D5D",
"V@	c #837464",
"W@	c #8B7A6D",
"X@	c #92806F",
"Y@	c #988776",
"Z@	c #978B79",
"`@	c #B2948E",
" #	c #998D7B",
".#	c #429E3E",
"+#	c #64A654",
"@#	c #5DA550",
"##	c #61AA4F",
"$#	c #48813E",
"%#	c #49863F",
"&#	c #4E8942",
"*#	c #47853E",
"=#	c #325B2B",
"-#	c #426F35",
";#	c #1F4517",
">#	c #212B22",
",#	c #504851",
"'#	c #474548",
")#	c #434141",
"!#	c #464749",
"~#	c #3A393B",
"{#	c #3F3227",
"]#	c #62554A",
"^#	c #6C5D4F",
"/#	c #766657",
"(#	c #7D6E5E",
"_#	c #847365",
":#	c #8B7A6A",
"<#	c #927F6D",
"[#	c #8D826A",
"}#	c #AD8D82",
"|#	c #8D7D6E",
"1#	c #2B7628",
"2#	c #4D7F42",
"3#	c #477F3E",
"4#	c #457A3A",
"5#	c #345A2E",
"6#	c #3B6533",
"7#	c #3D6935",
"8#	c #325B2C",
"9#	c #273C21",
"0#	c #305029",
"a#	c #021700",
"b#	c #323035",
"c#	c #4F4C51",
"d#	c #414241",
"e#	c #43484A",
"f#	c #2F2620",
"g#	c #504237",
"h#	c #63574A",
"i#	c #6D5E4F",
"j#	c #7C6C5C",
"k#	c #817161",
"l#	c #867665",
"m#	c #847965",
"n#	c #9E7F75",
"o#	c #867766",
"p#	c #358633",
"q#	c #518D46",
"r#	c #4B8840",
"s#	c #3D6833",
"t#	c #43743A",
"u#	c #427C39",
"v#	c #315729",
"w#	c #31502B",
"x#	c #214E1C",
"y#	c #051002",
"z#	c #4F4751",
"A#	c #414141",
"B#	c #464849",
"C#	c #313131",
"D#	c #372B21",
"E#	c #5B5044",
"F#	c #635649",
"G#	c #6C5E50",
"H#	c #746455",
"I#	c #796959",
"J#	c #7D6D5C",
"K#	c #7C705E",
"L#	c #91766C",
"M#	c #776E5D",
"N#	c #2D772B",
"O#	c #477D3A",
"P#	c #48853B",
"Q#	c #427535",
"R#	c #375D2E",
"S#	c #37642E",
"T#	c #3A6C2D",
"U#	c #294522",
"V#	c #2F552A",
"W#	c #042002",
"X#	c #252127",
"Y#	c #564F54",
"Z#	c #3E413E",
"`#	c #444444",
" $	c #454B4E",
".$	c #221E19",
"+$	c #403529",
"@$	c #5D544A",
"#$	c #615448",
"$$	c #695A4D",
"%$	c #716152",
"&$	c #766555",
"*$	c #746757",
"=$	c #8C7065",
"-$	c #746354",
";$	c #205D20",
">$	c #3C6436",
",$	c #396631",
"'$	c #2F5329",
")$	c #2B4625",
"!$	c #315329",
"~$	c #274423",
"{$	c #25331E",
"]$	c #12280D",
"^$	c #050105",
"/$	c #574E57",
"($	c #464646",
"_$	c #4A4A4A",
":$	c #3E4042",
"<$	c #1B1411",
"[$	c #45392F",
"}$	c #5C5044",
"|$	c #5C5145",
"1$	c #64574A",
"2$	c #6D5C4E",
"3$	c #6B5E4F",
"4$	c #7B625B",
"5$	c #6B5E4D",
"6$	c #2B6C28",
"7$	c #447237",
"8$	c #3D7534",
"9$	c #2F5629",
"0$	c #335829",
"a$	c #37652E",
"b$	c #284425",
"c$	c #193615",
"d$	c #484049",
"e$	c #535553",
"f$	c #404040",
"g$	c #414040",
"h$	c #4E5152",
"i$	c #3A3F40",
"j$	c #1B1008",
"k$	c #3A2D24",
"l$	c #524C43",
"m$	c #584E43",
"n$	c #5A5242",
"o$	c #6F5A51",
"p$	c #5C5141",
"q$	c #154617",
"r$	c #305228",
"s$	c #2A4C25",
"t$	c #1E351B",
"u$	c #284523",
"v$	c #1F371E",
"w$	c #091204",
"x$	c #3B353C",
"y$	c #5B5A5B",
"z$	c #3E3E3E",
"A$	c #42403F",
"B$	c #3D3F46",
"C$	c #1B1613",
"D$	c #291D11",
"E$	c #41352C",
"F$	c #524941",
"G$	c #514B40",
"H$	c #624E49",
"I$	c #4E483C",
"J$	c #1A451A",
"K$	c #315029",
"L$	c #253F21",
"M$	c #253C22",
"N$	c #162711",
"O$	c #000500",
"P$	c #0A0A0A",
"Q$	c #433C45",
"R$	c #5B5B5B",
"S$	c #404140",
"T$	c #403F3E",
"U$	c #4B4B4C",
"V$	c #4D4D53",
"W$	c #282A2A",
"X$	c #17110D",
"Y$	c #22180F",
"Z$	c #2E251D",
"`$	c #453731",
" %	c #3E362D",
".%	c #092508",
"+%	c #14250E",
"@%	c #051203",
"#%	c #020000",
"$%	c #27232A",
"%%	c #595357",
"&%	c #525151",
"*%	c #3E3F3E",
"=%	c #434444",
"-%	c #4B5051",
";%	c #474B4F",
">%	c #2F3231",
",%	c #1E1F1E",
"'%	c #241C1B",
")%	c #1D1311",
"!%	c #060705",
"~%	c #1C151C",
"{%	c #302E31",
"]%	c #514F52",
"^%	c #595857",
"/%	c #454645",
"(%	c #444544",
"_%	c #4D4D4E",
":%	c #4E4D51",
"<%	c #484A4C",
"[%	c #474849",
"}%	c #4D494E",
"|%	c #535154",
"1%	c #565456",
"2%	c #535453",
"3%	c #464647",
"4%	c #3E3E3D",
"5%	c #414242",
"6%	c #424141",
"7%	c #484848",
"8%	c #4A4C4B",
"9%	c #4B4C4D",
"0%	c #514F51",
"a%	c #515151",
"b%	c #4B4B4B",
"c%	c #40403F",
". . . . . . . . . . . . . . . . . . . . . . . . . . . . . . . . ",
". + + + + + + + + + + + + + + + + + + + + + + + + + + + + + + . ",
". + @ @ @ @ @ @ @ @ @ @ @ @ @ @ @ @ @ @ @ @ @ @ @ @ @ @ @ @ @ . ",
". + # # # # # # # # # $ % & * = - ; > , ' ' # # # # # # # # @ . ",
". + # # # # # # # # ) ! ~ { ] ^ / ( _ : , < ' # # # # # # # @ . ",
". + # # # # # # $ [ } | 1 2 3 4 5 6 7 8 9 0 > a # # # # # # @ . ",
". + # # # # # b c d e f g h i j k l m n o p q r s # # # # # @ . ",
". + # # # # t u v w x y z A B C D E F G H I J K L M # # # # @ . ",
". + # # # b N O P Q R S T U V W X Y Z `  ...+.@.#.$., # # # @ . ",
". + # # ) %.&.*.=.-.;.>.,.'.).!.~.{.].^./.(._.:.<.[.}.' # # @ . ",
". + # # # |.1.2.3.4.5.6.7.8.9.0.a.b.c.d.e.f.g.h.i.j.k.) # # @ . ",
". + # # N l.m.n.o.p.q.r.s.t.u.v.w.x.y.z.A.B.C.D.E.F.G.H.I.# @ . ",
". + # ) J.K.L.M.N.O.P.Q.R.S.T.U.V.W.X.Y.Z.`. +.+++@+#+$+%+&+@ . ",
". + # *+=+-+;+>+,+'+)+!+~+{+]+^+/+(+_+:+<+[+}+|+1+2+3+4+5+&+@ . ",
". + @ 6+7+8+9+0+a+'+b+c+d+e+f+g+h+i+j+k+l+m+n+o+p+q+r+s+t+u+@ . ",
". + v+w+x+y+z+A+B+C+D+E+F+G+H+I+J+K+L+M+N+O+P+Q+R+S+T+U+V+W+@ . ",
". + X+Y+Z+`+ @.@+@@@#@$@%@&@*@=@-@;@>@,@'@)@!@~@{@]@^@/@(@_@@ . ",
". + :@<@[@}@|@1@2@3@4@5@6@7@8@9@0@a@b@c@d@e@f@g@h@i@j@k@l@m@@ . ",
". + n@o@p@q@r@s@t@R u@v@w@x@y@z@A@B@C@D@E@F@G@H@I@J@K@L@M@N@@ . ",
". + O@P@Q@R@S@T@U@V@W@X@Y@Z@`@ #.#+#@###$#%#&#*#=#-#;#>#,#'#@ . ",
". + )#!#~#{#]#^#/#(#_#:#<#[#}#|#1#2#3#4#5#6#7#8#9#0#a#b#c#d#@ . ",
". + # @ e#f#g#h#i#/#j#k#l#m#n#o#p#q#'@r#s#t#u#v#w#x#y#z#u+A#@ . ",
". + # I.B#C#D#E#F#G#H#I#J#K#L#M#N#O#P#Q#R#S#T#U#V#W#X#Y#Z#A#@ . ",
". + # # `# $.$+$@$#$$$%$&$*$=$-$;$>$,$'$)$!$~${$]$^$/$($# # @ . ",
". + # # A#_$:$<$[$}$|$1$2$3$4$5$6$7$8$9$0$a$b$c$. d$e$f$# # @ . ",
". + # # A#g$h$i$j$k$l$m$E#n$o$p$q$r$s$t$u$v$w$. x$y$z$A## # @ . ",
". + # # # # A$h$B$C$D$E$F$G$H$I$J$K$L$M$N$O$P$Q$R$S$A## # # @ . ",
". + # # # # A#T$U$V$W$X$Y$Z$`$ %.%+%@%O$#%$%%%&%*%f$# # # # @ . ",
". + # # # # # # g$=%-%;%>%,%'%)%. !%~%{%]%^%/%f$A## # # # # @ . ",
". + # # # # # # # # f$(%_%:%<%[%}%|%1%2%3%4%5%# # # # # # # @ . ",
". + # # # # # # # # A#A#6%7%8%9%0%a%b%I.c%A## # # # # # # # @ . ",
". . . . . . . . . . . . . . . . . . . . . . . . . . . . . . . . "};
