/* XPM */
static char * coat_mv_xpm[] = {
"32 32 371 2",
"  	c None",
". 	c #000000",
"+ 	c #737373",
"@ 	c #434343",
"# 	c #575757",
"$ 	c #6A6A6A",
"% 	c #414141",
"& 	c #424242",
"* 	c #616161",
"= 	c #555555",
"- 	c #606060",
"; 	c #6B6B6B",
"> 	c #4B4B4B",
", 	c #BCBCBC",
"' 	c #E6E6E6",
") 	c #484848",
"! 	c #DBDBDB",
"~ 	c #BABABA",
"{ 	c #8D8D8D",
"] 	c #C5C5C5",
"^ 	c #393939",
"/ 	c #696969",
"( 	c #3D3D3D",
"_ 	c #D1D1D1",
": 	c #CECECE",
"< 	c #858585",
"[ 	c #ADADAD",
"} 	c #9E9E9E",
"| 	c #565656",
"1 	c #2D2D2D",
"2 	c #8C8C8C",
"3 	c #2E2E2E",
"4 	c #3A3A3A",
"5 	c #4D4D4D",
"6 	c #909090",
"7 	c #D9D9D9",
"8 	c #B6B6B6",
"9 	c #C1C1C1",
"0 	c #757575",
"a 	c #7A7A7A",
"b 	c #DADADA",
"c 	c #373737",
"d 	c #3C3C3C",
"e 	c #2F2F2F",
"f 	c #B4B4B4",
"g 	c #3B3B3B",
"h 	c #525252",
"i 	c #2B2B2B",
"j 	c #838383",
"k 	c #282828",
"l 	c #353535",
"m 	c #898989",
"n 	c #C4C4C4",
"o 	c #262626",
"p 	c #515151",
"q 	c #303030",
"r 	c #B9B9B9",
"s 	c #2A2A2A",
"t 	c #2C2C2C",
"u 	c #404040",
"v 	c #343434",
"w 	c #383838",
"x 	c #363636",
"y 	c #3E3E3E",
"z 	c #3F3F3F",
"A 	c #444643",
"B 	c #4E6A3C",
"C 	c #4E802E",
"D 	c #6BA638",
"E 	c #80BA43",
"F 	c #7DB544",
"G 	c #649938",
"H 	c #4F7737",
"I 	c #485142",
"J 	c #506045",
"K 	c #5B9A32",
"L 	c #76C334",
"M 	c #B0E85C",
"N 	c #CCFF70",
"O 	c #CBFF6F",
"P 	c #CDFF6F",
"Q 	c #CDFD70",
"R 	c #ABE459",
"S 	c #71B737",
"T 	c #5A7845",
"U 	c #4E5B43",
"V 	c #6EC536",
"W 	c #8CD142",
"X 	c #CEFD72",
"Y 	c #BEFF64",
"Z 	c #ABFF56",
"` 	c #A6FF50",
" .	c #A7FF51",
"..	c #B1FF5A",
"+.	c #D7FF77",
"@.	c #92D144",
"#.	c #61BC28",
"$.	c #63864A",
"%.	c #42453F",
"&.	c #85D34B",
"*.	c #51AD14",
"=.	c #70B72A",
"-.	c #ACFC57",
";.	c #9DFF48",
">.	c #95FF42",
",.	c #99FF44",
"'.	c #9AFF46",
").	c #9CFF48",
"!.	c #B3FF5B",
"~.	c #80CD36",
"{.	c #449410",
"].	c #85DB46",
"^.	c #4B5A3F",
"/.	c #689147",
"(.	c #81E538",
"_.	c #55A817",
":.	c #47A00B",
"<.	c #5EBA1C",
"[.	c #98FD44",
"}.	c #8BFA39",
"|.	c #7BE42D",
"1.	c #77DD2B",
"2.	c #7FE831",
"3.	c #94F543",
"4.	c #65BC22",
"5.	c #4DA111",
"6.	c #77C43E",
"7.	c #689549",
"8.	c #434641",
"9.	c #3E3F3C",
"0.	c #79EB2F",
"a.	c #5CBE1B",
"b.	c #3D2B49",
"c.	c #517835",
"d.	c #55B90B",
"e.	c #5FBC1B",
"f.	c #5CB718",
"g.	c #51A90E",
"h.	c #4FAA0E",
"i.	c #52AB10",
"j.	c #56B214",
"k.	c #58AE18",
"l.	c #60BD1B",
"m.	c #64CC23",
"n.	c #5A6752",
"o.	c #3E4936",
"p.	c #37452D",
"q.	c #56D80A",
"r.	c #537C35",
"s.	c #40185E",
"t.	c #4C5C40",
"u.	c #62C915",
"v.	c #59BE0D",
"w.	c #5CCA0B",
"x.	c #5DC213",
"y.	c #5BB517",
"z.	c #5AB715",
"A.	c #57B214",
"B.	c #5EB61C",
"C.	c #6BC528",
"D.	c #58CC11",
"E.	c #486438",
"F.	c #384033",
"G.	c #2D491F",
"H.	c #58CD11",
"I.	c #5A6550",
"J.	c #483159",
"K.	c #526345",
"L.	c #6EE219",
"M.	c #59A81E",
"N.	c #4A6B32",
"O.	c #5EB51E",
"P.	c #66CF17",
"Q.	c #61BE1C",
"R.	c #67C721",
"S.	c #6AC825",
"T.	c #77D333",
"U.	c #61D317",
"V.	c #355E1F",
"W.	c #373B33",
"X.	c #38651E",
"Y.	c #5FCA1C",
"Z.	c #585C53",
"`.	c #493459",
" +	c #4D623E",
".+	c #64CA18",
"++	c #40463E",
"@+	c #381254",
"#+	c #444D3D",
"$+	c #64CF16",
"%+	c #69CF1D",
"&+	c #62BF1D",
"*+	c #61B820",
"=+	c #7CDE35",
"-+	c #61DE13",
";+	c #355A22",
">+	c #3A3F37",
",+	c #41463F",
"'+	c #395B26",
")+	c #5EAD2A",
"!+	c #5D6B53",
"~+	c #4F3C5F",
"{+	c #4F6A3C",
"]+	c #539921",
"^+	c #3B3143",
"/+	c #403F41",
"(+	c #392249",
"_+	c #4D8922",
":+	c #5AC40B",
"<+	c #5CB619",
"[+	c #71D029",
"}+	c #70D12E",
"|+	c #467A27",
"1+	c #465D38",
"2+	c #3E4D36",
"3+	c #434542",
"4+	c #3E5132",
"5+	c #538830",
"6+	c #576C48",
"7+	c #503C5E",
"8+	c #597446",
"9+	c #5C9A30",
"0+	c #433A49",
"a+	c #464747",
"b+	c #402F4C",
"c+	c #507336",
"d+	c #6CDD19",
"e+	c #76E623",
"f+	c #78E628",
"g+	c #5CA62A",
"h+	c #3F4A3A",
"i+	c #537040",
"j+	c #364F26",
"k+	c #3C532D",
"l+	c #578B33",
"m+	c #4D6A38",
"n+	c #493259",
"o+	c #557040",
"p+	c #57932B",
"q+	c #433B49",
"r+	c #484947",
"s+	c #403249",
"t+	c #507136",
"u+	c #6FDB1F",
"v+	c #4D683B",
"w+	c #67B233",
"x+	c #5AA02A",
"y+	c #353834",
"z+	c #497130",
"A+	c #3D6325",
"B+	c #434740",
"C+	c #3D5130",
"D+	c #4B752E",
"E+	c #477D21",
"F+	c #402553",
"G+	c #5C7748",
"H+	c #549B22",
"I+	c #413945",
"J+	c #4E4D4C",
"K+	c #3F3249",
"L+	c #4C7E28",
"M+	c #58962C",
"N+	c #411560",
"O+	c #507236",
"P+	c #539427",
"Q+	c #3A3D39",
"R+	c #51882E",
"S+	c #486A31",
"T+	c #41453E",
"U+	c #3B4F2E",
"V+	c #3C383F",
"W+	c #5C7E45",
"X+	c #5AAB20",
"Y+	c #3B363D",
"Z+	c #5A5A5A",
"`+	c #4E3F59",
" @	c #5A9232",
".@	c #5F9A37",
"+@	c #412B50",
"@@	c #447420",
"#@	c #61A82E",
"$@	c #3D4637",
"%@	c #4C9320",
"&@	c #42473F",
"*@	c #454743",
"=@	c #484E45",
"-@	c #4A8625",
";@	c #536942",
">@	c #444642",
",@	c #28222E",
"'@	c #588039",
")@	c #74D02E",
"!@	c #4A494B",
"~@	c #4D4B4E",
"{@	c #4F5A48",
"]@	c #38303F",
"^@	c #4D782E",
"/@	c #53872F",
"(@	c #404D36",
"_@	c #52A719",
":@	c #87D749",
"<@	c #83CC4B",
"[@	c #6CA245",
"}@	c #47533F",
"|@	c #444840",
"1@	c #4A583E",
"2@	c #698E4D",
"3@	c #7AC14B",
"4@	c #459712",
"5@	c #74B448",
"6@	c #5F8344",
"7@	c #435238",
"8@	c #75D329",
"9@	c #2F322E",
"0@	c #302D33",
"a@	c #353832",
"b@	c #312C34",
"c@	c #2C2730",
"d@	c #2E2A31",
"e@	c #3D4139",
"f@	c #434640",
"g@	c #445638",
"h@	c #3D681E",
"i@	c #486633",
"j@	c #58843B",
"k@	c #568734",
"l@	c #424F39",
"m@	c #424A3D",
"n@	c #52733B",
"o@	c #7ECE47",
"p@	c #5AA32C",
"q@	c #429A11",
"r@	c #49752A",
"s@	c #455638",
"t@	c #424F37",
"u@	c #363536",
"v@	c #2F2F30",
"w@	c #2D2E2E",
"x@	c #303130",
"y@	c #393839",
"z@	c #3D4736",
"A@	c #4C812C",
"B@	c #495442",
"C@	c #464B43",
"D@	c #424441",
"E@	c #4E7731",
"F@	c #558631",
"G@	c #396B1B",
"H@	c #518F26",
"I@	c #40552F",
"J@	c #3C5E27",
"K@	c #5DC81C",
"L@	c #7CCB43",
"M@	c #7CC746",
"N@	c #4B623B",
"O@	c #424E3A",
"P@	c #4B8126",
"Q@	c #3D4339",
"R@	c #434442",
"S@	c #415038",
"T@	c #476A2F",
"U@	c #4E7333",
"V@	c #4A6635",
"W@	c #44513C",
"X@	c #070B04",
"Y@	c #1A2F0A",
"Z@	c #000100",
"`@	c #010100",
" #	c #0A1105",
".#	c #0B1205",
"+#	c #020401",
". . . . . . . . . . . . . . . . . . . . . . . . . . . . . . . . ",
". + + + + + + + + + + + + + + + + + + + + + + + + + + + + + + . ",
". + @ @ @ @ @ @ @ @ @ @ @ @ @ @ @ @ @ @ @ @ @ @ @ @ @ @ @ @ @ . ",
". + @ @ @ @ @ @ @ @ @ # $ % & * $ = - % & ; > & @ @ @ @ @ @ @ . ",
". + @ @ @ @ @ @ @ @ @ , ' # ) ! ~ { ] ^ / ! @ ( & @ @ @ @ @ @ . ",
". + @ @ @ @ @ @ @ @ @ _ : < [ ' } | ' 1 ~ 2 3 4 & @ @ @ @ @ @ . ",
". + @ @ @ @ @ @ @ @ 5 ' 6 7 8 9 0 ( ' a b c 3 d @ @ @ @ @ @ @ . ",
". + @ @ @ @ @ @ @ @ ; ' e f g ' h i ' b j k l % @ @ @ @ @ @ @ . ",
". + @ @ @ @ @ @ @ @ m n o i p ' q q r b s t d @ @ @ @ @ @ @ @ . ",
". + @ @ @ @ @ @ @ @ u v e w d v 1 c 4 i k x % @ @ @ @ @ @ @ @ . ",
". + @ @ @ @ @ @ @ @ & y d u & z d u u g g u @ @ @ @ @ @ @ @ @ . ",
". + @ @ @ @ @ @ @ @ @ @ @ @ @ @ @ @ @ @ @ @ @ @ @ @ @ @ @ @ @ . ",
". + @ @ @ @ @ @ @ @ @ @ A B C D E F G H I @ @ @ @ @ @ @ @ @ @ . ",
". + @ @ @ @ @ @ @ @ @ J K L M N O P Q R S T @ @ @ @ @ @ @ @ @ . ",
". + @ @ @ @ @ @ @ @ U V W X Y Z `  ...+.@.#.$.@ @ @ @ @ @ @ @ . ",
". + @ @ @ @ @ @ @ %.&.*.=.-.;.>.,.'.).!.~.{.].^.@ @ @ @ @ @ @ . ",
". + @ @ @ @ @ @ @ /.(._.:.<.[.}.|.1.2.3.4.5.6.7.8.@ @ @ @ @ @ . ",
". + @ @ @ @ @ @ 9.0.a.b.c.d.e.f.g.h.i.j.k.l.m.n.o.@ @ @ @ @ @ . ",
". + @ @ @ @ @ @ p.q.r.s.t.u.v.w.x.y.z.A.B.C.D.E.F.@ @ @ @ @ @ . ",
". + @ @ @ @ @ @ G.H.I.J.K.L.M.N.O.P.Q.R.S.T.U.V.W.@ @ @ @ @ @ . ",
". + @ @ @ @ @ @ X.Y.Z.`. +.+++@+#+$+%+&+*+=+-+;+>+@ @ @ @ @ @ . ",
". + @ @ @ @ @ ,+'+)+!+~+{+]+^+/+(+_+:+<+[+}+|+1+2+@ @ @ @ @ @ . ",
". + @ @ @ @ @ 3+4+5+6+7+8+9+0+a+b+c+d+e+f+g+h+i+j+@ @ @ @ @ @ . ",
". + @ @ @ @ @ @ k+l+m+n+o+p+q+r+s+t+u+v+w+x+y+z+A+@ @ @ @ @ @ . ",
". + @ @ @ @ @ B+C+D+E+F+G+H+I+J+K+L+M+N+O+P+Q+R+@ @ @ @ @ @ @ . ",
". + @ @ @ @ @ 3+S+T+U+V+W+X+Y+Z+`+ @.@+@@@#@$@%@&@*@@ @ @ @ @ . ",
". + @ @ @ @ @ =@-@;@>@,@'@)@/+!@~@{@t.]@^@/@(@_@:@<@[@}@@ @ @ . ",
". + @ @ |@1@2@3@4@5@6@@ 7@8@9@0@a@b@c@d@e@f@g@h@i@j@k@l@@ @ @ . ",
". + @ @ m@n@o@p@q@r@s@@ @ t@u@v@w@x@y@@ @ @ z@A@B@C@@ @ @ @ @ . ",
". + @ @ @ D@E@F@G@H@I@@ @ @ @ @ @ @ @ @ @ & J@K@L@M@N@@ @ @ @ . ",
". + @ @ @ @ @ @ O@P@Q@@ @ @ @ @ @ @ @ @ @ R@S@T@U@V@W@@ @ @ @ . ",
". . . . . . . . X@Y@Z@. . . . . . . . . . . `@ #.#+#. . . . . . "};
