/* XPM */
static char *coat_unload1_xpm[] = {
/* width height num_colors chars_per_pixel */
"    32    32      256            2",
/* colors */
"`` c #000000",
"`. c #717171",
"`# c #707070",
"`a c #404040",
"`b c #3f3f3f",
"`c c #3e3e3e",
"`d c #3d3d3d",
"`e c #6c6c6c",
"`f c #3b3b3b",
"`g c #363636",
"`h c #3a3a3a",
"`i c #303030",
"`j c #b1b1b1",
"`k c #2c2c2c",
"`l c #343434",
"`m c #393939",
"`n c #282828",
"`o c #323232",
"`p c #383838",
"`q c #b1a1a1",
"`r c #b30707",
"`s c #b32121",
"`t c #272727",
"`u c #313131",
"`v c #b29d9d",
"`w c #b70000",
"`x c #b60f0f",
"`y c #bc0000",
"`z c #bb0f0f",
"`A c #b39d9d",
"`B c #c20000",
"`C c #c10f0f",
"`D c #b49d9d",
"`E c #c90000",
"`F c #c70f0f",
"`G c #b59d9d",
"`H c #d10000",
"`I c #ce0f0f",
"`J c #b69d9d",
"`K c #d90000",
"`L c #d60f0f",
"`M c #df0000",
"`N c #db0f0f",
"`O c #b79d9d",
"`P c #e40000",
"`Q c #e00f0f",
"`R c #b2adad",
"`S c #dc2525",
"`T c #df1c1c",
"`U c #e01919",
"`V c #e80000",
"`W c #e40c0c",
"`X c #d14a4a",
"`Y c #d54747",
"`Z c #ed0000",
"`0 c #ed0101",
"`1 c #bc9191",
"`2 c #6f6f6f",
"`3 c #e81818",
"`4 c #f00000",
"`5 c #d25555",
"`6 c #252525",
"`7 c #212121",
"`8 c #1f1f1f",
".` c #371b1b",
".. c #f10000",
".# c #f40000",
".a c #d00505",
".b c #6e6e6e",
".c c #761818",
".d c #f60000",
".e c #f70000",
".f c #f10101",
".g c #362424",
".h c #c40d0d",
".i c #fa0000",
".j c #f90000",
".k c #762020",
".l c #3d3737",
".m c #f00404",
".n c #fc0000",
".o c #c01111",
".p c #673030",
".q c #f00505",
".r c #a31f1f",
".s c #623434",
".t c #010100",
".u c #0a1105",
".v c #0b1205",
".w c #020401",
".x c #000000",
".y c #000000",
".z c #000000",
".A c #000000",
".B c #000000",
".C c #000000",
".D c #000000",
".E c #000000",
".F c #000000",
".G c #000000",
".H c #000000",
".I c #000000",
".J c #000000",
".K c #000000",
".L c #000000",
".M c #000000",
".N c #000000",
".O c #000000",
".P c #000000",
".Q c #000000",
".R c #000000",
".S c #000000",
".T c #000000",
".U c #000000",
".V c #000000",
".W c #000000",
".X c #000000",
".Y c #000000",
".Z c #000000",
".0 c #000000",
".1 c #000000",
".2 c #000000",
".3 c #000000",
".4 c #000000",
".5 c #000000",
".6 c #000000",
".7 c #000000",
".8 c #000000",
"#` c #000000",
"#. c #000000",
"## c #000000",
"#a c #000000",
"#b c #000000",
"#c c #000000",
"#d c #000000",
"#e c #000000",
"#f c #000000",
"#g c #000000",
"#h c #000000",
"#i c #000000",
"#j c #000000",
"#k c #000000",
"#l c #000000",
"#m c #000000",
"#n c #000000",
"#o c #000000",
"#p c #000000",
"#q c #000000",
"#r c #000000",
"#s c #000000",
"#t c #000000",
"#u c #000000",
"#v c #000000",
"#w c #000000",
"#x c #000000",
"#y c #000000",
"#z c #000000",
"#A c #000000",
"#B c #000000",
"#C c #000000",
"#D c #000000",
"#E c #000000",
"#F c #000000",
"#G c #000000",
"#H c #000000",
"#I c #000000",
"#J c #000000",
"#K c #000000",
"#L c #000000",
"#M c #000000",
"#N c #000000",
"#O c #000000",
"#P c #000000",
"#Q c #000000",
"#R c #000000",
"#S c #000000",
"#T c #000000",
"#U c #000000",
"#V c #000000",
"#W c #000000",
"#X c #000000",
"#Y c #000000",
"#Z c #000000",
"#0 c #000000",
"#1 c #000000",
"#2 c #000000",
"#3 c #000000",
"#4 c #000000",
"#5 c #000000",
"#6 c #000000",
"#7 c #000000",
"#8 c #000000",
"a` c #000000",
"a. c #000000",
"a# c #000000",
"aa c #000000",
"ab c #000000",
"ac c #000000",
"ad c #000000",
"ae c #000000",
"af c #000000",
"ag c #000000",
"ah c #000000",
"ai c #000000",
"aj c #000000",
"ak c #000000",
"al c #000000",
"am c #000000",
"an c #000000",
"ao c #000000",
"ap c #000000",
"aq c #000000",
"ar c #000000",
"as c #000000",
"at c #000000",
"au c #000000",
"av c #000000",
"aw c #000000",
"ax c #000000",
"ay c #000000",
"az c #000000",
"aA c #000000",
"aB c #000000",
"aC c #000000",
"aD c #000000",
"aE c #000000",
"aF c #000000",
"aG c #000000",
"aH c #000000",
"aI c #000000",
"aJ c #000000",
"aK c #000000",
"aL c #000000",
"aM c #000000",
"aN c #000000",
"aO c #000000",
"aP c #000000",
"aQ c #000000",
"aR c #000000",
"aS c #000000",
"aT c #000000",
"aU c #000000",
"aV c #000000",
"aW c #000000",
"aX c #000000",
"aY c #000000",
"aZ c #000000",
"a0 c #000000",
"a1 c #000000",
"a2 c #000000",
"a3 c #000000",
"a4 c #000000",
"a5 c #000000",
"a6 c #000000",
"a7 c #000000",
"a8 c #000000",
/* pixels */
"````````````````````````````````````````````````````````````````",
"```.`.`.`.`.`.`.`.`.`.`.`.`.`.`.`.`.`.`.`.`.`.`.`.`.`.`.`.`.`.``",
"```#`a`a`a`a`a`a`a`a`a`a`a`a`a`a`a`a`a`a`a`a`a`a`a`a`a`a`a`a`a``",
"```.`a`a`a`a`a`a`a`a`a`a`a`a`a`a`a`a`a`a`a`a`a`a`a`a`a`a`a`a`a``",
"```.`a`a`a`a`a`a`a`a`a`a`a`a`a`a`a`a`a`a`a`a`a`a`a`a`a`a`a`a`a``",
"```.`a`a`b`b`c`c`c`d`d`d`d`d`d`d`d`d`d`d`d`d`d`d`d`d`c`c`c`b`b``",
"```.`a`b`c`e`e`e`e`e`e`e`e`e`e`e`e`e`e`e`e`e`e`e`e`e`e`e`f`d`c``",
"```.`a`b`d`e`e`e`e`e`e`e`e`e`e`e`e`e`e`e`e`e`e`e`e`e`e`e`g`h`d``",
"```.`a`c`f`e`e`e`e`e`e`e`e`e`e`e`e`e`e`e`e`e`e`e`e`e`e`e`i`g`f``",
"```.`a`c`h`j`j`j`j`j`j`j`j`j`j`j`j`j`j`j`j`j`j`j`j`j`j`j`k`l`h``",
"```.`a`c`m`j`j`j`j`j`j`j`j`j`j`j`j`j`j`j`j`j`j`j`j`j`j`j`n`o`m``",
"```.`a`d`p`j`j`j`j`j`j`j`j`j`j`j`j`q`r`r`r`r`r`s`j`j`j`j`t`u`p``",
"```.`a`d`p`j`j`j`j`j`j`j`j`j`j`j`j`v`w`w`w`w`w`x`j`j`j`j`t`u`p``",
"```.`a`d`p`j`j`j`j`j`j`j`j`j`j`j`j`v`y`y`y`y`y`z`j`j`j`j`t`u`p``",
"```.`a`d`p`j`j`j`j`j`j`j`j`j`j`j`j`A`B`B`B`B`B`C`j`j`j`j`t`u`p``",
"```.`a`d`p`j`j`j`j`j`j`j`j`j`j`j`j`D`E`E`E`E`E`F`j`j`j`j`t`u`p``",
"```.`a`d`p`j`j`j`j`j`j`j`j`j`j`j`j`G`H`H`H`H`H`I`j`j`j`j`t`u`p``",
"```#`a`d`p`j`j`j`j`j`j`j`j`j`j`j`j`J`K`K`K`K`K`L`j`j`j`j`t`u`p``",
"```#`a`d`p`j`j`j`j`j`j`j`j`j`j`j`j`J`M`M`M`M`M`N`j`j`j`j`t`u`p``",
"```#`a`d`p`j`j`j`j`j`j`j`j`j`j`j`j`O`P`P`P`P`P`Q`j`j`j`j`t`u`p``",
"```#`a`d`p`j`j`j`j`j`j`j`j`j`R`S`T`U`V`V`V`V`V`W`T`T`X`j`t`u`p``",
"```#`a`d`p`j`j`j`j`j`j`j`j`j`j`Y`Z`Z`Z`Z`Z`Z`Z`Z`Z`0`1`j`t`u`p``",
"```2`a`c`m`j`j`j`j`j`j`j`j`j`j`j`3`4`4`4`4`4`4`4`4`5`j`j`n`o`m``",
"```2`a`c`h`l`k`6`7`8`8`8`8`8`8`8.`...#.#.#.#.#.#.a`8`7`6`k`l`h``",
"``.b`a`c`f`g`i`k`n`t`t`t`t`t`t`t`t.c.d.e.e.e.e.f.g`t`n`k`i`g`f``",
"``.b`a`b`d`h`g`l`o`u`u`u`u`u`u`u`u`u.h.i.i.i.j.k`u`u`o`l`g`h`d``",
"``.b`a`b`c`d`f`h`m`p`p`p`p`p`p`p`p`p.l.m.n.n.o`p`p`p`m`h`f`d`c``",
"``.b`a`a`b`b`c`c`c`d`d`d`d`d`d`d`d`d`d.p.n.q`d`d`d`d`c`c`c`b`b``",
"``.b`a`a`a`a`a`a`a`a`a`a`a`a`a`a`a`a`a`a.r.s`a`a`a`a`a`a`a`a`a``",
"``.b`a`a`a`a`a`a`a`a`a`a`a`a`a`a`a`a`a`a`a`a`a`a`a`a`a`a`a`a`a``",
"```2`a`a`a`a`a`a`a`a`a`a`a`a`a`a`a`a`a`a`a`a`a`a`a`a`a`a`a`a`a``",
"````````````````````````````````````````````.t.u.v.w````````````"
};
