/* XPM */
static char * coat_ptex_xpm[] = {
"32 32 379 2",
"  	c None",
". 	c #000000",
"+ 	c #737373",
"@ 	c #434343",
"# 	c #4D4D4D",
"$ 	c #6B6B6B",
"% 	c #6A6A6A",
"& 	c #555555",
"* 	c #414141",
"= 	c #575757",
"- 	c #616161",
"; 	c #424242",
"> 	c #939393",
", 	c #DBDBDB",
"' 	c #B9B9B9",
") 	c #E6E6E6",
"! 	c #626262",
"~ 	c #BBBBBB",
"{ 	c #8F8F8F",
"] 	c #3A3A3A",
"^ 	c #404040",
"/ 	c #A7A7A7",
"( 	c #A1A1A1",
"_ 	c #272727",
": 	c #DADADA",
"< 	c #9E9E9E",
"[ 	c #C2C2C2",
"} 	c #898989",
"| 	c #7A7A7A",
"1 	c #BCBCBC",
"2 	c #7B7B7B",
"3 	c #676767",
"4 	c #5B5B5B",
"5 	c #D1D1D1",
"6 	c #909090",
"7 	c #3D3D3D",
"8 	c #C6C6C6",
"9 	c #CECECE",
"0 	c #C1C1C1",
"a 	c #2E2E2E",
"b 	c #444444",
"c 	c #262626",
"d 	c #B6B6B6",
"e 	c #AAAAAA",
"f 	c #303030",
"g 	c #AEAEAE",
"h 	c #9F9F9F",
"i 	c #2D2D2D",
"j 	c #353535",
"k 	c #474747",
"l 	c #595959",
"m 	c #232323",
"n 	c #535353",
"o 	c #393939",
"p 	c #C4C4C4",
"q 	c #696969",
"r 	c #282828",
"s 	c #383838",
"t 	c #313131",
"u 	c #333333",
"v 	c #2F2F2F",
"w 	c #656565",
"x 	c #797979",
"y 	c #D9D9D9",
"z 	c #363636",
"A 	c #3B3B3B",
"B 	c #373737",
"C 	c #2A2A2A",
"D 	c #2B2B2B",
"E 	c #2C2C2C",
"F 	c #3F3F3F",
"G 	c #3C3C3C",
"H 	c #3E3E3E",
"I 	c #444643",
"J 	c #4E6A3C",
"K 	c #4E802E",
"L 	c #6BA638",
"M 	c #80BA43",
"N 	c #7DB544",
"O 	c #649938",
"P 	c #4F7737",
"Q 	c #485142",
"R 	c #506045",
"S 	c #5B9A32",
"T 	c #76C334",
"U 	c #B0E85C",
"V 	c #CCFF70",
"W 	c #CBFF6F",
"X 	c #CDFF6F",
"Y 	c #CDFD70",
"Z 	c #ABE459",
"` 	c #71B737",
" .	c #5A7845",
"..	c #4E5B43",
"+.	c #6EC536",
"@.	c #8CD142",
"#.	c #CEFD72",
"$.	c #BEFF64",
"%.	c #ABFF56",
"&.	c #A6FF50",
"*.	c #A7FF51",
"=.	c #B1FF5A",
"-.	c #D7FF77",
";.	c #92D144",
">.	c #61BC28",
",.	c #63864A",
"'.	c #42453F",
").	c #85D34B",
"!.	c #51AD14",
"~.	c #70B72A",
"{.	c #ACFC57",
"].	c #9DFF48",
"^.	c #95FF42",
"/.	c #99FF44",
"(.	c #9AFF46",
"_.	c #9CFF48",
":.	c #B3FF5B",
"<.	c #80CD36",
"[.	c #449410",
"}.	c #85DB46",
"|.	c #4B5A3F",
"1.	c #689147",
"2.	c #81E538",
"3.	c #55A817",
"4.	c #47A00B",
"5.	c #5EBA1C",
"6.	c #98FD44",
"7.	c #8BFA39",
"8.	c #7BE42D",
"9.	c #77DD2B",
"0.	c #7FE831",
"a.	c #94F543",
"b.	c #65BC22",
"c.	c #4DA111",
"d.	c #77C43E",
"e.	c #689549",
"f.	c #434641",
"g.	c #3E3F3C",
"h.	c #79EB2F",
"i.	c #5CBE1B",
"j.	c #3D2B49",
"k.	c #517835",
"l.	c #55B90B",
"m.	c #5FBC1B",
"n.	c #5CB718",
"o.	c #51A90E",
"p.	c #4FAA0E",
"q.	c #52AB10",
"r.	c #56B214",
"s.	c #58AE18",
"t.	c #60BD1B",
"u.	c #64CC23",
"v.	c #5A6752",
"w.	c #3E4936",
"x.	c #37452D",
"y.	c #56D80A",
"z.	c #537C35",
"A.	c #40185E",
"B.	c #4C5C40",
"C.	c #62C915",
"D.	c #59BE0D",
"E.	c #5CCA0B",
"F.	c #5DC213",
"G.	c #5BB517",
"H.	c #5AB715",
"I.	c #57B214",
"J.	c #5EB61C",
"K.	c #6BC528",
"L.	c #58CC11",
"M.	c #486438",
"N.	c #384033",
"O.	c #2D491F",
"P.	c #58CD11",
"Q.	c #5A6550",
"R.	c #483159",
"S.	c #526345",
"T.	c #6EE219",
"U.	c #59A81E",
"V.	c #4A6B32",
"W.	c #5EB51E",
"X.	c #66CF17",
"Y.	c #61BE1C",
"Z.	c #67C721",
"`.	c #6AC825",
" +	c #77D333",
".+	c #61D317",
"++	c #355E1F",
"@+	c #373B33",
"#+	c #38651E",
"$+	c #5FCA1C",
"%+	c #585C53",
"&+	c #493459",
"*+	c #4D623E",
"=+	c #64CA18",
"-+	c #40463E",
";+	c #381254",
">+	c #444D3D",
",+	c #64CF16",
"'+	c #69CF1D",
")+	c #62BF1D",
"!+	c #61B820",
"~+	c #7CDE35",
"{+	c #61DE13",
"]+	c #355A22",
"^+	c #3A3F37",
"/+	c #41463F",
"(+	c #395B26",
"_+	c #5EAD2A",
":+	c #5D6B53",
"<+	c #4F3C5F",
"[+	c #4F6A3C",
"}+	c #539921",
"|+	c #3B3143",
"1+	c #403F41",
"2+	c #392249",
"3+	c #4D8922",
"4+	c #5AC40B",
"5+	c #5CB619",
"6+	c #71D029",
"7+	c #70D12E",
"8+	c #467A27",
"9+	c #465D38",
"0+	c #3E4D36",
"a+	c #434542",
"b+	c #3E5132",
"c+	c #538830",
"d+	c #576C48",
"e+	c #503C5E",
"f+	c #597446",
"g+	c #5C9A30",
"h+	c #433A49",
"i+	c #464747",
"j+	c #402F4C",
"k+	c #507336",
"l+	c #6CDD19",
"m+	c #76E623",
"n+	c #78E628",
"o+	c #5CA62A",
"p+	c #3F4A3A",
"q+	c #537040",
"r+	c #364F26",
"s+	c #3C532D",
"t+	c #578B33",
"u+	c #4D6A38",
"v+	c #493259",
"w+	c #557040",
"x+	c #57932B",
"y+	c #433B49",
"z+	c #484947",
"A+	c #403249",
"B+	c #507136",
"C+	c #6FDB1F",
"D+	c #4D683B",
"E+	c #67B233",
"F+	c #5AA02A",
"G+	c #353834",
"H+	c #497130",
"I+	c #3D6325",
"J+	c #434740",
"K+	c #3D5130",
"L+	c #4B752E",
"M+	c #477D21",
"N+	c #402553",
"O+	c #5C7748",
"P+	c #549B22",
"Q+	c #413945",
"R+	c #4E4D4C",
"S+	c #3F3249",
"T+	c #4C7E28",
"U+	c #58962C",
"V+	c #411560",
"W+	c #507236",
"X+	c #539427",
"Y+	c #3A3D39",
"Z+	c #51882E",
"`+	c #486A31",
" @	c #41453E",
".@	c #3B4F2E",
"+@	c #3C383F",
"@@	c #5C7E45",
"#@	c #5AAB20",
"$@	c #3B363D",
"%@	c #5A5A5A",
"&@	c #4E3F59",
"*@	c #5A9232",
"=@	c #5F9A37",
"-@	c #412B50",
";@	c #447420",
">@	c #61A82E",
",@	c #3D4637",
"'@	c #4C9320",
")@	c #42473F",
"!@	c #454743",
"~@	c #484E45",
"{@	c #4A8625",
"]@	c #536942",
"^@	c #444642",
"/@	c #28222E",
"(@	c #588039",
"_@	c #74D02E",
":@	c #4A494B",
"<@	c #4D4B4E",
"[@	c #4F5A48",
"}@	c #38303F",
"|@	c #4D782E",
"1@	c #53872F",
"2@	c #404D36",
"3@	c #52A719",
"4@	c #87D749",
"5@	c #83CC4B",
"6@	c #6CA245",
"7@	c #47533F",
"8@	c #444840",
"9@	c #4A583E",
"0@	c #698E4D",
"a@	c #7AC14B",
"b@	c #459712",
"c@	c #74B448",
"d@	c #5F8344",
"e@	c #435238",
"f@	c #75D329",
"g@	c #2F322E",
"h@	c #302D33",
"i@	c #353832",
"j@	c #312C34",
"k@	c #2C2730",
"l@	c #2E2A31",
"m@	c #3D4139",
"n@	c #434640",
"o@	c #445638",
"p@	c #3D681E",
"q@	c #486633",
"r@	c #58843B",
"s@	c #568734",
"t@	c #424F39",
"u@	c #424A3D",
"v@	c #52733B",
"w@	c #7ECE47",
"x@	c #5AA32C",
"y@	c #429A11",
"z@	c #49752A",
"A@	c #455638",
"B@	c #424F37",
"C@	c #363536",
"D@	c #2F2F30",
"E@	c #2D2E2E",
"F@	c #303130",
"G@	c #393839",
"H@	c #3D4736",
"I@	c #4C812C",
"J@	c #495442",
"K@	c #464B43",
"L@	c #424441",
"M@	c #4E7731",
"N@	c #558631",
"O@	c #396B1B",
"P@	c #518F26",
"Q@	c #40552F",
"R@	c #3C5E27",
"S@	c #5DC81C",
"T@	c #7CCB43",
"U@	c #7CC746",
"V@	c #4B623B",
"W@	c #424E3A",
"X@	c #4B8126",
"Y@	c #3D4339",
"Z@	c #434442",
"`@	c #415038",
" #	c #476A2F",
".#	c #4E7333",
"+#	c #4A6635",
"@#	c #44513C",
"##	c #070B04",
"$#	c #1A2F0A",
"%#	c #000100",
"&#	c #010100",
"*#	c #0A1105",
"=#	c #0B1205",
"-#	c #020401",
". . . . . . . . . . . . . . . . . . . . . . . . . . . . . . . . ",
". + + + + + + + + + + + + + + + + + + + + + + + + + + + + + + . ",
". + @ @ @ @ @ @ @ @ @ @ @ @ @ @ @ @ @ @ @ @ @ @ @ @ @ @ @ @ @ . ",
". + @ @ @ @ @ @ # $ % & * = - * ; @ @ @ @ @ @ @ @ @ @ @ @ @ @ . ",
". + @ @ @ @ @ @ > , ' ) ! ~ { ] ^ @ @ @ @ @ @ @ @ @ @ @ @ @ @ . ",
". + @ @ @ @ @ @ / ( _ : < ) [ } | 1 , 2 3 ) 4 5 6 7 * @ @ @ @ . ",
". + @ @ @ @ @ @ 8 9 0 0 a ) b c , ( d e f g ) h i j ^ @ @ @ @ . ",
". + @ @ @ @ @ @ ) | k _ l ) m 4 ) ! n & o p : q r s * @ @ @ @ . ",
". + @ @ @ @ @ - ) t r u l , d v ' ) : w p ( x y z A @ @ @ @ @ . ",
". + @ @ @ @ @ ; B i j ^ ^ z C f j D c E t v D C v A @ @ @ @ @ . ",
". + @ @ @ @ @ ; F G ^ @ ; F ] A H A B o G A A A G ^ @ @ @ @ @ . ",
". + @ @ @ @ @ @ @ @ @ @ @ @ @ @ @ @ @ @ @ @ @ @ @ @ @ @ @ @ @ . ",
". + @ @ @ @ @ @ @ @ @ @ I J K L M N O P Q @ @ @ @ @ @ @ @ @ @ . ",
". + @ @ @ @ @ @ @ @ @ R S T U V W X Y Z `  .@ @ @ @ @ @ @ @ @ . ",
". + @ @ @ @ @ @ @ @ ..+.@.#.$.%.&.*.=.-.;.>.,.@ @ @ @ @ @ @ @ . ",
". + @ @ @ @ @ @ @ '.).!.~.{.].^./.(._.:.<.[.}.|.@ @ @ @ @ @ @ . ",
". + @ @ @ @ @ @ @ 1.2.3.4.5.6.7.8.9.0.a.b.c.d.e.f.@ @ @ @ @ @ . ",
". + @ @ @ @ @ @ g.h.i.j.k.l.m.n.o.p.q.r.s.t.u.v.w.@ @ @ @ @ @ . ",
". + @ @ @ @ @ @ x.y.z.A.B.C.D.E.F.G.H.I.J.K.L.M.N.@ @ @ @ @ @ . ",
". + @ @ @ @ @ @ O.P.Q.R.S.T.U.V.W.X.Y.Z.`. +.+++@+@ @ @ @ @ @ . ",
". + @ @ @ @ @ @ #+$+%+&+*+=+-+;+>+,+'+)+!+~+{+]+^+@ @ @ @ @ @ . ",
". + @ @ @ @ @ /+(+_+:+<+[+}+|+1+2+3+4+5+6+7+8+9+0+@ @ @ @ @ @ . ",
". + @ @ @ @ @ a+b+c+d+e+f+g+h+i+j+k+l+m+n+o+p+q+r+@ @ @ @ @ @ . ",
". + @ @ @ @ @ @ s+t+u+v+w+x+y+z+A+B+C+D+E+F+G+H+I+@ @ @ @ @ @ . ",
". + @ @ @ @ @ J+K+L+M+N+O+P+Q+R+S+T+U+V+W+X+Y+Z+@ @ @ @ @ @ @ . ",
". + @ @ @ @ @ a+`+ @.@+@@@#@$@%@&@*@=@-@;@>@,@'@)@!@@ @ @ @ @ . ",
". + @ @ @ @ @ ~@{@]@^@/@(@_@1+:@<@[@B.}@|@1@2@3@4@5@6@7@@ @ @ . ",
". + @ @ 8@9@0@a@b@c@d@@ e@f@g@h@i@j@k@l@m@n@o@p@q@r@s@t@@ @ @ . ",
". + @ @ u@v@w@x@y@z@A@@ @ B@C@D@E@F@G@@ @ @ H@I@J@K@@ @ @ @ @ . ",
". + @ @ @ L@M@N@O@P@Q@@ @ @ @ @ @ @ @ @ @ ; R@S@T@U@V@@ @ @ @ . ",
". + @ @ @ @ @ @ W@X@Y@@ @ @ @ @ @ @ @ @ @ Z@`@ #.#+#@#@ @ @ @ . ",
". . . . . . . . ##$#%#. . . . . . . . . . . &#*#=#-#. . . . . . "};
