/* XPM */
static char * coat_ppp_xpm[] = {
"32 32 351 2",
"  	c None",
". 	c #000000",
"+ 	c #737373",
"@ 	c #434343",
"# 	c #4D4D4D",
"$ 	c #6B6B6B",
"% 	c #6A6A6A",
"& 	c #555555",
"* 	c #414141",
"= 	c #4C4C4C",
"- 	c #939393",
"; 	c #DBDBDB",
"> 	c #B9B9B9",
", 	c #E6E6E6",
"' 	c #626262",
") 	c #919191",
"! 	c #3D3D3D",
"~ 	c #424242",
"{ 	c #A7A7A7",
"] 	c #A1A1A1",
"^ 	c #272727",
"/ 	c #DADADA",
"( 	c #6F6F6F",
"_ 	c #A0A0A0",
": 	c #343434",
"< 	c #404040",
"[ 	c #C6C6C6",
"} 	c #CECECE",
"| 	c #C1C1C1",
"1 	c #242424",
"2 	c #C2C2C2",
"3 	c #313131",
"4 	c #7A7A7A",
"5 	c #474747",
"6 	c #2C2C2C",
"7 	c #383838",
"8 	c #616161",
"9 	c #282828",
"0 	c #333333",
"a 	c #5A5A5A",
"b 	c #3A3A3A",
"c 	c #373737",
"d 	c #2D2D2D",
"e 	c #353535",
"f 	c #3F3F3F",
"g 	c #3C3C3C",
"h 	c #444643",
"i 	c #4E6A3C",
"j 	c #4E802E",
"k 	c #6BA638",
"l 	c #80BA43",
"m 	c #7DB544",
"n 	c #649938",
"o 	c #4F7737",
"p 	c #485142",
"q 	c #506045",
"r 	c #5B9A32",
"s 	c #76C334",
"t 	c #B0E85C",
"u 	c #CCFF70",
"v 	c #CBFF6F",
"w 	c #CDFF6F",
"x 	c #CDFD70",
"y 	c #ABE459",
"z 	c #71B737",
"A 	c #5A7845",
"B 	c #4E5B43",
"C 	c #6EC536",
"D 	c #8CD142",
"E 	c #CEFD72",
"F 	c #BEFF64",
"G 	c #ABFF56",
"H 	c #A6FF50",
"I 	c #A7FF51",
"J 	c #B1FF5A",
"K 	c #D7FF77",
"L 	c #92D144",
"M 	c #61BC28",
"N 	c #63864A",
"O 	c #42453F",
"P 	c #85D34B",
"Q 	c #51AD14",
"R 	c #70B72A",
"S 	c #ACFC57",
"T 	c #9DFF48",
"U 	c #95FF42",
"V 	c #99FF44",
"W 	c #9AFF46",
"X 	c #9CFF48",
"Y 	c #B3FF5B",
"Z 	c #80CD36",
"` 	c #449410",
" .	c #85DB46",
"..	c #4B5A3F",
"+.	c #689147",
"@.	c #81E538",
"#.	c #55A817",
"$.	c #47A00B",
"%.	c #5EBA1C",
"&.	c #98FD44",
"*.	c #8BFA39",
"=.	c #7BE42D",
"-.	c #77DD2B",
";.	c #7FE831",
">.	c #94F543",
",.	c #65BC22",
"'.	c #4DA111",
").	c #77C43E",
"!.	c #689549",
"~.	c #434641",
"{.	c #3E3F3C",
"].	c #79EB2F",
"^.	c #5CBE1B",
"/.	c #3D2B49",
"(.	c #517835",
"_.	c #55B90B",
":.	c #5FBC1B",
"<.	c #5CB718",
"[.	c #51A90E",
"}.	c #4FAA0E",
"|.	c #52AB10",
"1.	c #56B214",
"2.	c #58AE18",
"3.	c #60BD1B",
"4.	c #64CC23",
"5.	c #5A6752",
"6.	c #3E4936",
"7.	c #37452D",
"8.	c #56D80A",
"9.	c #537C35",
"0.	c #40185E",
"a.	c #4C5C40",
"b.	c #62C915",
"c.	c #59BE0D",
"d.	c #5CCA0B",
"e.	c #5DC213",
"f.	c #5BB517",
"g.	c #5AB715",
"h.	c #57B214",
"i.	c #5EB61C",
"j.	c #6BC528",
"k.	c #58CC11",
"l.	c #486438",
"m.	c #384033",
"n.	c #2D491F",
"o.	c #58CD11",
"p.	c #5A6550",
"q.	c #483159",
"r.	c #526345",
"s.	c #6EE219",
"t.	c #59A81E",
"u.	c #4A6B32",
"v.	c #5EB51E",
"w.	c #66CF17",
"x.	c #61BE1C",
"y.	c #67C721",
"z.	c #6AC825",
"A.	c #77D333",
"B.	c #61D317",
"C.	c #355E1F",
"D.	c #373B33",
"E.	c #38651E",
"F.	c #5FCA1C",
"G.	c #585C53",
"H.	c #493459",
"I.	c #4D623E",
"J.	c #64CA18",
"K.	c #40463E",
"L.	c #381254",
"M.	c #444D3D",
"N.	c #64CF16",
"O.	c #69CF1D",
"P.	c #62BF1D",
"Q.	c #61B820",
"R.	c #7CDE35",
"S.	c #61DE13",
"T.	c #355A22",
"U.	c #3A3F37",
"V.	c #41463F",
"W.	c #395B26",
"X.	c #5EAD2A",
"Y.	c #5D6B53",
"Z.	c #4F3C5F",
"`.	c #4F6A3C",
" +	c #539921",
".+	c #3B3143",
"++	c #403F41",
"@+	c #392249",
"#+	c #4D8922",
"$+	c #5AC40B",
"%+	c #5CB619",
"&+	c #71D029",
"*+	c #70D12E",
"=+	c #467A27",
"-+	c #465D38",
";+	c #3E4D36",
">+	c #434542",
",+	c #3E5132",
"'+	c #538830",
")+	c #576C48",
"!+	c #503C5E",
"~+	c #597446",
"{+	c #5C9A30",
"]+	c #433A49",
"^+	c #464747",
"/+	c #402F4C",
"(+	c #507336",
"_+	c #6CDD19",
":+	c #76E623",
"<+	c #78E628",
"[+	c #5CA62A",
"}+	c #3F4A3A",
"|+	c #537040",
"1+	c #364F26",
"2+	c #3C532D",
"3+	c #578B33",
"4+	c #4D6A38",
"5+	c #493259",
"6+	c #557040",
"7+	c #57932B",
"8+	c #433B49",
"9+	c #484947",
"0+	c #403249",
"a+	c #507136",
"b+	c #6FDB1F",
"c+	c #4D683B",
"d+	c #67B233",
"e+	c #5AA02A",
"f+	c #353834",
"g+	c #497130",
"h+	c #3D6325",
"i+	c #434740",
"j+	c #3D5130",
"k+	c #4B752E",
"l+	c #477D21",
"m+	c #402553",
"n+	c #5C7748",
"o+	c #549B22",
"p+	c #413945",
"q+	c #4E4D4C",
"r+	c #3F3249",
"s+	c #4C7E28",
"t+	c #58962C",
"u+	c #411560",
"v+	c #507236",
"w+	c #539427",
"x+	c #3A3D39",
"y+	c #51882E",
"z+	c #486A31",
"A+	c #41453E",
"B+	c #3B4F2E",
"C+	c #3C383F",
"D+	c #5C7E45",
"E+	c #5AAB20",
"F+	c #3B363D",
"G+	c #4E3F59",
"H+	c #5A9232",
"I+	c #5F9A37",
"J+	c #412B50",
"K+	c #447420",
"L+	c #61A82E",
"M+	c #3D4637",
"N+	c #4C9320",
"O+	c #42473F",
"P+	c #454743",
"Q+	c #484E45",
"R+	c #4A8625",
"S+	c #536942",
"T+	c #444642",
"U+	c #28222E",
"V+	c #588039",
"W+	c #74D02E",
"X+	c #4A494B",
"Y+	c #4D4B4E",
"Z+	c #4F5A48",
"`+	c #38303F",
" @	c #4D782E",
".@	c #53872F",
"+@	c #404D36",
"@@	c #52A719",
"#@	c #87D749",
"$@	c #83CC4B",
"%@	c #6CA245",
"&@	c #47533F",
"*@	c #444840",
"=@	c #4A583E",
"-@	c #698E4D",
";@	c #7AC14B",
">@	c #459712",
",@	c #74B448",
"'@	c #5F8344",
")@	c #435238",
"!@	c #75D329",
"~@	c #2F322E",
"{@	c #302D33",
"]@	c #353832",
"^@	c #312C34",
"/@	c #2C2730",
"(@	c #2E2A31",
"_@	c #3D4139",
":@	c #434640",
"<@	c #445638",
"[@	c #3D681E",
"}@	c #486633",
"|@	c #58843B",
"1@	c #568734",
"2@	c #424F39",
"3@	c #424A3D",
"4@	c #52733B",
"5@	c #7ECE47",
"6@	c #5AA32C",
"7@	c #429A11",
"8@	c #49752A",
"9@	c #455638",
"0@	c #424F37",
"a@	c #363536",
"b@	c #2F2F30",
"c@	c #2D2E2E",
"d@	c #303130",
"e@	c #393839",
"f@	c #3D4736",
"g@	c #4C812C",
"h@	c #495442",
"i@	c #464B43",
"j@	c #424441",
"k@	c #4E7731",
"l@	c #558631",
"m@	c #396B1B",
"n@	c #518F26",
"o@	c #40552F",
"p@	c #3C5E27",
"q@	c #5DC81C",
"r@	c #7CCB43",
"s@	c #7CC746",
"t@	c #4B623B",
"u@	c #424E3A",
"v@	c #4B8126",
"w@	c #3D4339",
"x@	c #434442",
"y@	c #415038",
"z@	c #476A2F",
"A@	c #4E7333",
"B@	c #4A6635",
"C@	c #44513C",
"D@	c #070B04",
"E@	c #1A2F0A",
"F@	c #000100",
"G@	c #010100",
"H@	c #0A1105",
"I@	c #0B1205",
"J@	c #020401",
". . . . . . . . . . . . . . . . . . . . . . . . . . . . . . . . ",
". + + + + + + + + + + + + + + + + + + + + + + + + + + + + + + . ",
". + @ @ @ @ @ @ @ @ @ @ @ @ @ @ @ @ @ @ @ @ @ @ @ @ @ @ @ @ @ . ",
". + @ @ @ @ @ @ @ # $ % & * = $ % & * = $ % & * @ @ @ @ @ @ @ . ",
". + @ @ @ @ @ @ @ - ; > , ' ) ; > , ' ) ; > , ' ! ~ @ @ @ @ @ . ",
". + @ @ @ @ @ @ @ { ] ^ / ( ] _ ^ / ( ] _ ^ / ( : < @ @ @ @ @ . ",
". + @ @ @ @ @ @ @ [ } | | 1 2 } | | 1 2 } | | 1 3 < @ @ @ @ @ . ",
". + @ @ @ @ @ @ @ , 4 5 ^ 6 , 4 5 ^ 6 , 4 5 ^ 6 7 ~ @ @ @ @ @ . ",
". + @ @ @ @ @ @ 8 , 3 9 0 a , 3 9 0 a , 3 9 0 b < @ @ @ @ @ @ . ",
". + @ @ @ @ @ @ ~ c d e < * c d e < * c d e < ~ @ @ @ @ @ @ @ . ",
". + @ @ @ @ @ @ ~ f g < @ ~ f g < @ ~ f g < @ @ @ @ @ @ @ @ @ . ",
". + @ @ @ @ @ @ @ @ @ @ @ @ @ @ @ @ @ @ @ @ @ @ @ @ @ @ @ @ @ . ",
". + @ @ @ @ @ @ @ @ @ @ h i j k l m n o p @ @ @ @ @ @ @ @ @ @ . ",
". + @ @ @ @ @ @ @ @ @ q r s t u v w x y z A @ @ @ @ @ @ @ @ @ . ",
". + @ @ @ @ @ @ @ @ B C D E F G H I J K L M N @ @ @ @ @ @ @ @ . ",
". + @ @ @ @ @ @ @ O P Q R S T U V W X Y Z `  ...@ @ @ @ @ @ @ . ",
". + @ @ @ @ @ @ @ +.@.#.$.%.&.*.=.-.;.>.,.'.).!.~.@ @ @ @ @ @ . ",
". + @ @ @ @ @ @ {.].^./.(._.:.<.[.}.|.1.2.3.4.5.6.@ @ @ @ @ @ . ",
". + @ @ @ @ @ @ 7.8.9.0.a.b.c.d.e.f.g.h.i.j.k.l.m.@ @ @ @ @ @ . ",
". + @ @ @ @ @ @ n.o.p.q.r.s.t.u.v.w.x.y.z.A.B.C.D.@ @ @ @ @ @ . ",
". + @ @ @ @ @ @ E.F.G.H.I.J.K.L.M.N.O.P.Q.R.S.T.U.@ @ @ @ @ @ . ",
". + @ @ @ @ @ V.W.X.Y.Z.`. +.+++@+#+$+%+&+*+=+-+;+@ @ @ @ @ @ . ",
". + @ @ @ @ @ >+,+'+)+!+~+{+]+^+/+(+_+:+<+[+}+|+1+@ @ @ @ @ @ . ",
". + @ @ @ @ @ @ 2+3+4+5+6+7+8+9+0+a+b+c+d+e+f+g+h+@ @ @ @ @ @ . ",
". + @ @ @ @ @ i+j+k+l+m+n+o+p+q+r+s+t+u+v+w+x+y+@ @ @ @ @ @ @ . ",
". + @ @ @ @ @ >+z+A+B+C+D+E+F+a G+H+I+J+K+L+M+N+O+P+@ @ @ @ @ . ",
". + @ @ @ @ @ Q+R+S+T+U+V+W+++X+Y+Z+a.`+ @.@+@@@#@$@%@&@@ @ @ . ",
". + @ @ *@=@-@;@>@,@'@@ )@!@~@{@]@^@/@(@_@:@<@[@}@|@1@2@@ @ @ . ",
". + @ @ 3@4@5@6@7@8@9@@ @ 0@a@b@c@d@e@@ @ @ f@g@h@i@@ @ @ @ @ . ",
". + @ @ @ j@k@l@m@n@o@@ @ @ @ @ @ @ @ @ @ ~ p@q@r@s@t@@ @ @ @ . ",
". + @ @ @ @ @ @ u@v@w@@ @ @ @ @ @ @ @ @ @ x@y@z@A@B@C@@ @ @ @ . ",
". . . . . . . . D@E@F@. . . . . . . . . . . G@H@I@J@. . . . . . "};
