/* XPM */
static char * coat_ref_xpm[] = {
"32 32 585 2",
"  	c None",
". 	c #000000",
"+ 	c #737373",
"@ 	c #404040",
"# 	c #3F4041",
"$ 	c #3F3F40",
"% 	c #433E3E",
"& 	c #454040",
"* 	c #463E3E",
"= 	c #453F3E",
"- 	c #443C3B",
"; 	c #413939",
"> 	c #3F4040",
", 	c #404343",
"' 	c #404141",
") 	c #434343",
"! 	c #403F3F",
"~ 	c #453E3D",
"{ 	c #4A4040",
"] 	c #474140",
"^ 	c #444241",
"/ 	c #404243",
"( 	c #414443",
"_ 	c #434444",
": 	c #464241",
"< 	c #473433",
"[ 	c #422C2A",
"} 	c #403D3C",
"| 	c #404344",
"1 	c #404242",
"2 	c #443D3D",
"3 	c #483330",
"4 	c #392D2C",
"5 	c #273638",
"6 	c #194145",
"7 	c #0E3134",
"8 	c #124549",
"9 	c #13494D",
"0 	c #164D52",
"a 	c #25696E",
"b 	c #2F4D51",
"c 	c #414D50",
"d 	c #452927",
"e 	c #412D2B",
"f 	c #404444",
"g 	c #463A3A",
"h 	c #403231",
"i 	c #2A5B60",
"j 	c #1D8790",
"k 	c #033C43",
"l 	c #116A73",
"m 	c #177982",
"n 	c #1E8D94",
"o 	c #1C8892",
"p 	c #1B8C96",
"q 	c #0C5760",
"r 	c #189098",
"s 	c #2BC6D5",
"t 	c #3999A2",
"u 	c #474443",
"v 	c #41211F",
"w 	c #404041",
"x 	c #463837",
"y 	c #332121",
"z 	c #135A60",
"A 	c #2CF7FF",
"B 	c #2DD4E1",
"C 	c #2FC9D1",
"D 	c #31CFD5",
"E 	c #23949D",
"F 	c #36D6DA",
"G 	c #2599A0",
"H 	c #2DB7BF",
"I 	c #3ADEE1",
"J 	c #2ECCD7",
"K 	c #39F4F7",
"L 	c #2AE0E8",
"M 	c #22929E",
"N 	c #415E61",
"O 	c #422622",
"P 	c #463A38",
"Q 	c #3A3F3F",
"R 	c #1C8995",
"S 	c #1DA3AF",
"T 	c #28A5AD",
"U 	c #2EC8CF",
"V 	c #46FFFF",
"W 	c #33CCD4",
"X 	c #33DDE4",
"Y 	c #48FFFF",
"Z 	c #3BFAFC",
"` 	c #30C6CD",
" .	c #49FFFF",
"..	c #38E2E7",
"+.	c #29AAB3",
"@.	c #2BADB5",
"#.	c #21B4BD",
"$.	c #2AD2E2",
"%.	c #425F61",
"&.	c #432A27",
"*.	c #403F40",
"=.	c #3F4141",
"-.	c #473F3F",
";.	c #33211D",
">.	c #188992",
",.	c #3AFFFF",
"'.	c #2CB7C0",
").	c #1C747C",
"!.	c #2CB6BF",
"~.	c #27B0B9",
"{.	c #1A727B",
"].	c #2AB1B7",
"^.	c #2EC2C9",
"/.	c #2EC6CC",
"(.	c #1E7A82",
"_.	c #28A8B1",
":.	c #2EC1C8",
"<.	c #22939A",
"[.	c #22949E",
"}.	c #45FDFE",
"|.	c #33EDF0",
"1.	c #27BDCD",
"2.	c #3F494B",
"3.	c #432E2C",
"4.	c #404244",
"5.	c #463130",
"6.	c #133237",
"7.	c #2CF9FF",
"8.	c #31D0DA",
"9.	c #25A2AC",
"0.	c #3DFFFF",
"a.	c #2ABCC7",
"b.	c #229096",
"c.	c #32CDD4",
"d.	c #31CDD2",
"e.	c #32CFD5",
"f.	c #259BA4",
"g.	c #2CB8C2",
"h.	c #3BFDFE",
"i.	c #42FFFF",
"j.	c #32D2D8",
"k.	c #2CBEC8",
"l.	c #26C7D0",
"m.	c #22717E",
"n.	c #483E3B",
"o.	c #403736",
"p.	c #404142",
"q.	c #473431",
"r.	c #303739",
"s.	c #199DA9",
"t.	c #29B7C3",
"u.	c #1F8791",
"v.	c #36F0FB",
"w.	c #3BFFFF",
"x.	c #3CFFFF",
"y.	c #2EC6CE",
"z.	c #32DAE3",
"A.	c #3FFFFF",
"B.	c #32E0EA",
"C.	c #30C8CE",
"D.	c #3EFFFF",
"E.	c #29ABB6",
"F.	c #2CB4BB",
"G.	c #2EC3CA",
"H.	c #23C6D1",
"I.	c #386266",
"J.	c #462B28",
"K.	c #404042",
"L.	c #444444",
"M.	c #3E211D",
"N.	c #1D6E74",
"O.	c #34FFFF",
"P.	c #1D737C",
"Q.	c #1B7074",
"R.	c #2DC5D1",
"S.	c #2FCFD5",
"T.	c #32DEE5",
"U.	c #249BAB",
"V.	c #32DFE6",
"W.	c #38FFFF",
"X.	c #37F4FF",
"Y.	c #39FFFF",
"Z.	c #33DFE1",
"`.	c #26A4AE",
" +	c #38ECF0",
".+	c #34D8DC",
"++	c #32CFD2",
"@+	c #279FA6",
"#+	c #155F6C",
"$+	c #38F0F5",
"%+	c #37FFFF",
"&+	c #2A98A4",
"*+	c #422F2C",
"=+	c #423B3B",
"-+	c #4A4041",
";+	c #2C1A16",
">+	c #1FACB8",
",+	c #2ED1E1",
"'+	c #218D97",
")+	c #30DAE7",
"!+	c #27ACB9",
"~+	c #26A5B0",
"{+	c #238F98",
"]+	c #196670",
"^+	c #28A9AE",
"/+	c #28ACB8",
"(+	c #28AAB1",
"_+	c #29AFB8",
":+	c #29A8B3",
"<+	c #1B6A72",
"[+	c #25A0A9",
"}+	c #29AFBC",
"|+	c #29B7C1",
"1+	c #36E5E5",
"2+	c #29B0B8",
"3+	c #2FC9D5",
"4+	c #25BBC8",
"5+	c #342D2C",
"6+	c #483A39",
"7+	c #3F4242",
"8+	c #424243",
"9+	c #483B3A",
"0+	c #1C2121",
"a+	c #1BA1AB",
"b+	c #24A1AF",
"c+	c #28A8B3",
"d+	c #34ECFA",
"e+	c #31D5E6",
"f+	c #36ECF9",
"g+	c #2CC4C8",
"h+	c #249BA6",
"i+	c #30D4E3",
"j+	c #30CFDC",
"k+	c #2FCCDA",
"l+	c #30D3E0",
"m+	c #32DFE2",
"n+	c #259DA8",
"o+	c #2FC9CC",
"p+	c #3AF8F9",
"q+	c #36EEFF",
"r+	c #33E1EB",
"s+	c #26A2B0",
"t+	c #38F1F2",
"u+	c #1C9EAB",
"v+	c #2E6165",
"w+	c #452F2D",
"x+	c #444546",
"y+	c #412625",
"z+	c #225D64",
"A+	c #1C99A6",
"B+	c #17646B",
"C+	c #30D4E1",
"D+	c #32DCEB",
"E+	c #30D3E1",
"F+	c #34E6F5",
"G+	c #2AB8C5",
"H+	c #28ACB7",
"I+	c #34EAFA",
"J+	c #35EAFA",
"K+	c #36EAFA",
"L+	c #37EFFF",
"M+	c #38FAFF",
"N+	c #28B0BC",
"O+	c #2DC4D0",
"P+	c #39FDFF",
"Q+	c #36E7F9",
"R+	c #259EA6",
"S+	c #1E8189",
"T+	c #2DE3EF",
"U+	c #36A3AD",
"V+	c #411F1B",
"W+	c #413E3E",
"X+	c #444543",
"Y+	c #3C211E",
"Z+	c #24727B",
"`+	c #22B9C5",
" @	c #175B60",
".@	c #218B95",
"+@	c #27A9B4",
"@@	c #2FCFDD",
"#@	c #35EBFA",
"$@	c #28ACBA",
"%@	c #2BBBC9",
"&@	c #33E1F0",
"*@	c #33E2F1",
"=@	c #34E5F4",
"-@	c #37F3FF",
";@	c #2DC2CF",
">@	c #2CBBC8",
",@	c #2ECAD7",
"'@	c #2BB4B8",
")@	c #1B7178",
"!@	c #249DA6",
"~@	c #3097A4",
"{@	c #40211F",
"]@	c #423C3C",
"^@	c #454747",
"/@	c #3E2422",
"(@	c #1F5B60",
"_@	c #1B929C",
":@	c #239AA4",
"<@	c #28B8C4",
"[@	c #1F848E",
"}@	c #1F8790",
"|@	c #2497A0",
"1@	c #1D757D",
"2@	c #25A2AE",
"3@	c #2ECEDB",
"4@	c #2ECAD9",
"5@	c #2ECEDC",
"6@	c #2FCEDD",
"7@	c #2FD6E6",
"8@	c #28ADB9",
"9@	c #20848C",
"0@	c #29ABB7",
"a@	c #22969E",
"b@	c #23929B",
"c@	c #2BB8C6",
"d@	c #2DCAD8",
"e@	c #27A7B1",
"f@	c #2EF1FF",
"g@	c #25737B",
"h@	c #412A29",
"i@	c #433E3D",
"j@	c #434242",
"k@	c #473836",
"l@	c #1F3E42",
"m@	c #0F626A",
"n@	c #25A6B1",
"o@	c #2DCAD9",
"p@	c #2DC8D5",
"q@	c #2CC4D2",
"r@	c #26ABB7",
"s@	c #1A696F",
"t@	c #20858E",
"u@	c #2397A1",
"v@	c #218D96",
"w@	c #228D99",
"x@	c #229098",
"y@	c #2599A2",
"z@	c #208C96",
"A@	c #1A6C76",
"B@	c #29B1BD",
"C@	c #2FCEDC",
"D@	c #33E5F5",
"E@	c #34E8F9",
"F@	c #30DBE9",
"G@	c #22979F",
"H@	c #1EA1AD",
"I@	c #2D7278",
"J@	c #463735",
"K@	c #413B3A",
"L@	c #414242",
"M@	c #473937",
"N@	c #294C4C",
"O@	c #0B4A50",
"P@	c #1F8C97",
"Q@	c #2AB8C6",
"R@	c #2AB8C4",
"S@	c #2FCDDC",
"T@	c #2DCCDB",
"U@	c #21919B",
"V@	c #2CC5D2",
"W@	c #30D7E6",
"X@	c #2ECAD8",
"Y@	c #2ECCDB",
"Z@	c #2ECEDD",
"`@	c #30DAE9",
" #	c #2ECFDC",
".#	c #259EA7",
"+#	c #31E1EE",
"@#	c #34E4F4",
"##	c #31D5E5",
"$#	c #31D4E2",
"%#	c #2ED6E4",
"&#	c #196B72",
"*#	c #1D9CA9",
"=#	c #3A8C95",
"-#	c #432522",
";#	c #473A39",
">#	c #2B393A",
",#	c #115F67",
"'#	c #18656B",
")#	c #1B7A83",
"!#	c #249DA8",
"~#	c #2BC0CD",
"{#	c #1E868E",
"]#	c #2CC2CD",
"^#	c #2FD1DF",
"/#	c #2EC8D5",
"(#	c #2ECBD8",
"_#	c #30CCDA",
":#	c #31D4E3",
"<#	c #2ECCD8",
"[#	c #218F9A",
"}#	c #31DBEB",
"|#	c #2DC6D3",
"1#	c #27A8B5",
"2#	c #1E858D",
"3#	c #197078",
"4#	c #24C6D5",
"5#	c #36575B",
"6#	c #442C29",
"7#	c #474445",
"8#	c #3A2D2D",
"9#	c #0D373B",
"0#	c #209EA9",
"a#	c #1F8B93",
"b#	c #17676D",
"c#	c #1F8089",
"d#	c #208992",
"e#	c #1B7179",
"f#	c #27ACB7",
"g#	c #2AB9C6",
"h#	c #2AB7C3",
"i#	c #2ABCC9",
"j#	c #2BBBC8",
"k#	c #2CC1CD",
"l#	c #2AB9C4",
"m#	c #1E7D87",
"n#	c #24A0AB",
"o#	c #249EA7",
"p#	c #1E7B85",
"q#	c #208691",
"r#	c #2ABCCA",
"s#	c #1F969F",
"t#	c #186B73",
"u#	c #3C3737",
"v#	c #4C4242",
"w#	c #1E1716",
"x#	c #0E6971",
"y#	c #29B6C4",
"z#	c #24A3AD",
"A#	c #22949D",
"B#	c #1C777F",
"C#	c #145156",
"D#	c #1D7881",
"E#	c #1D7E88",
"F#	c #1D7D85",
"G#	c #1D7F89",
"H#	c #1D7D86",
"I#	c #1E838C",
"J#	c #1E7F89",
"K#	c #16575E",
"L#	c #1E8087",
"M#	c #249BA5",
"N#	c #27ADB9",
"O#	c #2FCDDD",
"P#	c #0D656D",
"Q#	c #2B4344",
"R#	c #493D3B",
"S#	c #3F3F3F",
"T#	c #484B4B",
"U#	c #3A2929",
"V#	c #021C20",
"W#	c #17727D",
"X#	c #219199",
"Y#	c #27B8C3",
"Z#	c #24A5B0",
"`#	c #1B747B",
" $	c #26A7B3",
".$	c #249FAB",
"+$	c #249FAA",
"@$	c #25A1AC",
"#$	c #26AAB8",
"$$	c #1D7C83",
"%$	c #28B1BD",
"&$	c #2BC6D2",
"*$	c #26A2AE",
"=$	c #157279",
"-$	c #105156",
";$	c #464747",
">$	c #433A3A",
",$	c #4B4242",
"'$	c #242524",
")$	c #09525A",
"!$	c #16626A",
"~$	c #1B6D75",
"{$	c #1F848C",
"]$	c #19727A",
"^$	c #25ABB6",
"/$	c #2BBAC6",
"($	c #28B2BD",
"_$	c #28B4C2",
":$	c #29B5C2",
"<$	c #2ABFCC",
"[$	c #28BCCA",
"}$	c #1E828A",
"|$	c #24A5AF",
"1$	c #249AA5",
"2$	c #1A6A72",
"3$	c #1D858E",
"4$	c #0B676E",
"5$	c #2A2F2E",
"6$	c #493F3E",
"7$	c #463A39",
"8$	c #1B2729",
"9$	c #0B6670",
"0$	c #1A7E84",
"a$	c #175F66",
"b$	c #0F3B41",
"c$	c #176269",
"d$	c #1C7880",
"e$	c #1D7C84",
"f$	c #1F818B",
"g$	c #1F818A",
"h$	c #1F838B",
"i$	c #1C787E",
"j$	c #12484E",
"k$	c #18646B",
"l$	c #1E7C83",
"m$	c #1F99A3",
"n$	c #118590",
"o$	c #233236",
"p$	c #483636",
"q$	c #414040",
"r$	c #434445",
"s$	c #453836",
"t$	c #1D1A1A",
"u$	c #074E53",
"v$	c #178990",
"w$	c #156067",
"x$	c #196870",
"y$	c #1B767F",
"z$	c #1A7076",
"A$	c #1A6F76",
"B$	c #1C7982",
"C$	c #1C767F",
"D$	c #17636A",
"E$	c #2199A4",
"F$	c #1C9BA6",
"G$	c #0D646A",
"H$	c #202526",
"I$	c #463533",
"J$	c #444445",
"K$	c #4C403F",
"L$	c #2A1A17",
"M$	c #092224",
"N$	c #053438",
"O$	c #0C515A",
"P$	c #177C86",
"Q$	c #1B828A",
"R$	c #1B8891",
"S$	c #1B8892",
"T$	c #1C8D97",
"U$	c #16747D",
"V$	c #0C5157",
"W$	c #085359",
"X$	c #0D3233",
"Y$	c #312B2B",
"Z$	c #4C3E3D",
"`$	c #424344",
" %	c #4C4747",
".%	c #3F3535",
"+%	c #242121",
"@%	c #0A1113",
"#%	c #092D30",
"$%	c #0A3E42",
"%%	c #0C3D43",
"&%	c #0C4146",
"*%	c #0A4449",
"=%	c #052325",
"-%	c #102326",
";%	c #27302F",
">%	c #4A4343",
",%	c #424141",
"'%	c #464646",
")%	c #4A4544",
"!%	c #423B39",
"~%	c #363232",
"{%	c #303233",
"]%	c #2D2F30",
"^%	c #2E3233",
"/%	c #303434",
"(%	c #373434",
"_%	c #453B3A",
":%	c #4B403F",
"<%	c #444243",
"[%	c #454545",
"}%	c #484344",
"|%	c #494140",
"1%	c #49403E",
"2%	c #494544",
"3%	c #454444",
"4%	c #404241",
". . . . . . . . . . . . . . . . . . . . . . . . . . . . . . . . ",
". + + + + + + + + + + + + + + + + + + + + + + + + + + + + + + . ",
". + @ @ @ @ @ @ @ @ @ # $ % & * = - ; > , ' @ @ @ @ @ @ @ @ ) . ",
". + @ @ @ @ @ @ @ @ ! ~ { ] ^ / ( _ : < [ } | @ @ @ @ @ @ @ ) . ",
". + @ @ @ @ @ @ 1 2 3 4 5 6 7 8 9 0 a b c d e f ' @ @ @ @ @ ) . ",
". + @ @ @ @ @ @ g h i j k l m n o p q r s t u v w @ @ @ @ @ ) . ",
". + @ @ @ @ ' x y z A B C D E F G H I J K L M N O ! @ @ @ @ ) . ",
". + @ @ @ # P Q R S T U V W X Y Z `  ...+.@.#.$.%.&.*.' @ @ ) . ",
". + @ @ =.-.;.>.,.'.).!.~.{.].^./.(._.:.<.[.}.|.1.2.3.4.@ @ ) . ",
". + @ > _ 5.6.7.8.9.0.,.a.b.c.d.e.f.g.h.i.j.k. .l.m.n.o.p.@ ) . ",
". + @ 1 q.r.s.t.u.v.w.x.y.z.A.0.A.B.C.i.D.i.E.F.G.H.I.J.K.@ ) . ",
". + > L.M.N.O.P.Q.R.S.T.U.V.W.X.Y.Z.`. +.+++@+#+$+%+&+*+=+' ) . ",
". + =.-+;+>+,+'+)+!+~+{+]+^+/+(+_+:+<+[+}+|+1+2+3+D.4+5+6+7+) . ",
". + 8+9+0+a+b+c+d+e+f+g+h+i+j+k+l+m+n+o+p+q+w.r+s+t+u+v+w+w ) . ",
". + x+y+z+A+B+C+D+E+F+G+H+I+J+K+L+M+N+O+P+Q+q+0.R+S+T+U+V+W+) . ",
". + X+Y+Z+`+ @.@+@@@#@$@%@J+&@*@=@-@;@>@Y.d+,@'@)@!@%+~@{@]@) . ",
". + ^@/@(@_@:@<@[@}@|@1@2@3@4@5@6@7@8@9@0@a@b@c@d@e@f@g@h@i@) . ",
". + j@k@l@m@n@o@p@q@r@s@t@u@v@w@x@y@z@A@B@C@D@E@F@G@H@I@J@K@) . ",
". + L@M@N@O@P@Q@R@S@T@U@V@W@X@Y@Z@`@ #.#+#@###$#%#&#*#=#-#@ ) . ",
". + , ;#>#,#'#)#!#~#<@{#]#^#/#(#_#:#<#[# #}#|#1#2#3#4#5#6#, ) . ",
". + > 7#8#9#0#a#b#c#d#e#f#g#h#i#j#k#l#m#n#o#p#q#r#s#t#u#2 =.) . ",
". + @ p.v#w#x#y#z#A#B#C#D#E#F#G#H#I#J#K#L#M#N#^#O#P#Q#R#@ @ ) . ",
". + @ S#T#U#V#W#X#Y#Z#`#n# $.$+$@$r@#$$$%$E+&$*$=$-$;$>$# @ ) . ",
". + @ @ ' ,$'$)$!$~${$]$^$/$($_$:$<$[$}$|$1$2$3$4$5$6$@ @ @ ) . ",
". + @ @ ! _ 7$8$9$0$a$b$c$d$e$f$g$h$i$j$k$l$m$n$o$p$q$@ @ @ ) . ",
". + @ @ @ > r$s$t$u$v$w$x$y$z$A$)@B$C$D$E$F$G$H$I$) @ @ @ @ ) . ",
". + @ @ @ @ S#J$K$L$M$N$O$P$Q$R$S$T$U$V$W$X$Y$Z$j@> @ @ @ @ ) . ",
". + @ @ @ @ @ S#`$ %.%+%@%#%$%%%&%*%=%-%;%o.>%,%@ @ @ @ @ @ ) . ",
". + @ @ @ @ @ @ @ @ '%)%!%~%{%]%^%/%(%_%:%<%' @ @ @ @ @ @ @ ) . ",
". + @ @ @ @ @ @ @ @ S#L@[%}%{ |%1%1%2%3%4%> @ @ @ @ @ @ @ @ ) . ",
". + ) ) ) ) ) ) ) ) ) ) ) ) ) ) ) ) ) ) ) ) ) ) ) ) ) ) ) ) ) . ",
". . . . . . . . . . . . . . . . . . . . . . . . . . . . . . . . "};
